<svg xmlns="http://www.w3.org/2000/svg" width="168" height="168" viewBox="0 0 168 168">
  <path fill="#3BC7AB" fill-rule="evenodd" d="M40.25,121.652344 L40.25,128 L109,128 L109,134.25 L40.25,134.25 C38.5572832,134.25 37.0924541,133.631517 35.8554688,132.394531 C34.6184834,131.157546 34,129.692717 34,128 L34,118.625 C34,116.867179 35.0416563,115.386074 37.125,114.181641 L40.25,112.375 L67.6914062,99.3867188 C65.4778535,97.6288975 63.6224033,95.5293091 62.125,93.0878906 C60.6275967,90.6464722 59.4069058,88.1237109 58.4628906,85.5195312 C57.5188755,82.9153516 56.8515645,80.3925903 56.4609375,77.9511719 C56.0703105,75.5097534 55.875,73.4427168 55.875,71.75 L55.875,56.125 C55.875,53.5208203 56.6887939,50.9166797 58.3164062,48.3125 C59.9440186,45.7083203 62.0924346,43.3645937 64.7617188,41.28125 C67.4310029,39.1979063 70.4420405,37.5052148 73.7949219,36.203125 C77.1478032,34.9010352 80.5494619,34.25 84,34.25 C87.4505381,34.25 90.8521968,34.9010352 94.2050781,36.203125 C97.5579595,37.5052148 100.552721,39.1979063 103.189453,41.28125 C105.826185,43.3645937 107.974601,45.7083203 109.634766,48.3125 C111.29493,50.9166797 112.125,53.5208203 112.125,56.125 L112.125,71.75 C112.125,73.6380303 111.929689,75.818998 111.539062,78.2929688 C111.148436,80.7669395 110.4974,83.2897007 109.585938,85.8613281 C108.674475,88.4329556 107.47006,90.9068892 105.972656,93.2832031 C104.475253,95.6595171 102.652354,97.7265537 100.503906,99.484375 L108.804688,103.292969 L107.242188,109.542969 L97.8671875,105.148438 C96.8906201,104.692706 96.0768262,104.025395 95.4257812,103.146484 C94.7747363,102.267574 94.3841152,101.274745 94.2539062,100.167969 C94.1888018,99.0611924 94.3515605,98.0195361 94.7421875,97.0429688 C95.1328145,96.0664014 95.7512979,95.2200557 96.5976562,94.5039062 C99.9830898,91.8997266 102.375644,88.2051021 103.775391,83.4199219 C105.175137,78.6347417 105.875,74.7448066 105.875,71.75 L105.875,56.125 C105.875,54.4322832 105.223965,52.6744883 103.921875,50.8515625 C102.619785,49.0286367 100.94337,47.3522212 98.8925781,45.8222656 C96.8417866,44.2923101 94.5143359,43.0227915 91.9101562,42.0136719 C89.3059766,41.0045522 86.6692842,40.5 84,40.5 C81.3307158,40.5 78.6940234,41.0045522 76.0898438,42.0136719 C73.4856641,43.0227915 71.1419375,44.3085859 69.0585938,45.8710938 C66.97525,47.4336016 65.2988345,49.126293 64.0292969,50.9492188 C62.7597593,52.7721445 62.125,54.4973877 62.125,56.125 L62.125,71.75 C62.125,74.8099111 62.8899663,78.7161221 64.4199219,83.46875 C65.9498774,88.2213779 68.3424316,91.8997266 71.5976562,94.5039062 C72.4440146,95.1549512 73.0787739,95.985021 73.5019531,96.9941406 C73.9251323,98.0032603 74.0716152,99.0611924 73.9414062,100.167969 C73.8111973,101.209641 73.4205762,102.169917 72.7695312,103.048828 C72.1184863,103.927739 71.3046924,104.59505 70.328125,105.050781 L42.8867188,118.039062 C42.4960918,118.169271 41.9589878,118.494789 41.2753906,119.015625 C40.5917935,119.536461 40.25,120.415358 40.25,121.652344 Z M130.875,115.5 C131.721358,115.5 132.453773,115.809242 133.072266,116.427734 C133.690758,117.046227 134,117.778642 134,118.625 C134,119.471358 133.690758,120.203773 133.072266,120.822266 C132.453773,121.440758 131.721358,121.75 130.875,121.75 L121.5,121.75 L121.5,131.125 C121.5,131.971358 121.190758,132.703773 120.572266,133.322266 C119.953773,133.940758 119.221358,134.25 118.375,134.25 C117.528642,134.25 116.796227,133.940758 116.177734,133.322266 C115.559242,132.703773 115.25,131.971358 115.25,131.125 L115.25,121.75 L105.875,121.75 C105.028642,121.75 104.296227,121.440758 103.677734,120.822266 C103.059242,120.203773 102.75,119.471358 102.75,118.625 C102.75,117.778642 103.059242,117.046227 103.677734,116.427734 C104.296227,115.809242 105.028642,115.5 105.875,115.5 L115.25,115.5 L115.25,106.125 C115.25,105.278642 115.559242,104.546227 116.177734,103.927734 C116.796227,103.309242 117.528642,103 118.375,103 C119.221358,103 119.953773,103.309242 120.572266,103.927734 C121.190758,104.546227 121.5,105.278642 121.5,106.125 L121.5,115.5 L130.875,115.5 Z" opacity=".5"/>
</svg>
