<svg xmlns="http://www.w3.org/2000/svg" width="168" height="168" viewBox="0 0 168 168">
  <path fill="#FFF" fill-rule="evenodd" d="M78.0507812,99.5507812 L89.4765625,88.125 L29.125,88.125 C28.2786416,88.125 27.5462271,87.8157583 26.9277344,87.1972656 C26.3092417,86.5787729 26,85.8463584 26,85 C26,84.0885371 26.3092417,83.3398467 26.9277344,82.7539062 C27.5462271,82.1679658 28.2786416,81.875 29.125,81.875 L89.28125,81.875 L78.0507812,70.546875 C77.3997363,69.9609346 77.0742188,69.22852 77.0742188,68.3496094 C77.0742188,67.4706987 77.3997363,66.7382842 78.0507812,66.1523438 C78.6367217,65.5012988 79.3528604,65.1757812 80.1992188,65.1757812 C81.0455771,65.1757812 81.7942676,65.5012988 82.4453125,66.1523438 L100.902344,85.0976562 L82.4453125,104.042969 C82.11979,104.303387 81.7617207,104.514973 81.3710938,104.677734 C80.9804668,104.840496 80.5898457,104.921875 80.1992188,104.921875 C79.8085918,104.921875 79.4179707,104.840496 79.0273438,104.677734 C78.6367168,104.514973 78.3111992,104.303387 78.0507812,104.042969 C77.3997363,103.391924 77.0742188,102.643233 77.0742188,101.796875 C77.0742188,100.950517 77.3997363,100.201826 78.0507812,99.5507812 Z M119.75,35 C121.507821,35 122.988926,35.6022075 124.193359,36.8066406 C125.397792,38.0110737 126,39.4921787 126,41.25 L126,128.75 C126,130.507821 125.397792,131.988926 124.193359,133.193359 C122.988926,134.397792 121.507821,135 119.75,135 L63.5,135 C61.8072832,135 60.3424541,134.397792 59.1054688,133.193359 C57.8684834,131.988926 57.25,130.507821 57.25,128.75 L57.25,100.527344 L63.5976562,100.527344 L63.5976562,124.941406 C63.5976562,125.983078 63.9557256,126.878251 64.671875,127.626953 C65.3880244,128.375655 66.2669219,128.75 67.3085938,128.75 L115.941406,128.75 C116.983078,128.75 117.878251,128.375655 118.626953,127.626953 C119.375655,126.878251 119.75,125.983078 119.75,124.941406 L119.652344,45.0585938 C119.652344,44.0169219 119.277999,43.1217485 118.529297,42.3730469 C117.780595,41.6243452 116.885422,41.25 115.84375,41.25 L67.3085938,41.25 C66.2669219,41.25 65.3880244,41.6243452 64.671875,42.3730469 C63.9557256,43.1217485 63.5976562,44.0169219 63.5976562,45.0585938 L63.5976562,69.375 L57.25,69.375 L57.25,41.25 C57.25,39.4921787 57.8684834,38.0110737 59.1054688,36.8066406 C60.3424541,35.6022075 61.8072832,35 63.5,35 L119.75,35 Z"/>
</svg>
