<?xml version="1.0" encoding="utf-8"?>
<!-- Generator: Adobe Illustrator 19.0.1, SVG Export Plug-In . SVG Version: 6.00 Build 0)  -->
<svg version="1.1" id="Слой_1" xmlns="http://www.w3.org/2000/svg" xmlns:xlink="http://www.w3.org/1999/xlink" x="0px" y="0px"
	 viewBox="-41 164.9 512 512" style="enable-background:new -41 164.9 512 512;" xml:space="preserve">
<style type="text/css">
	.st0{fill:#F2E1C2;}
	.st1{fill:none;stroke:#F2E1C2;stroke-width:17;stroke-miterlimit:10;}
</style>
<g>
	<g>
		<path class="st0" d="M333.7,567.9v-343H154.9l-81.8,81v262H333.7z M319.8,553.2h-232V316.1h70.1c4.4,0,7.3-3.6,7.3-7.3v-69.3
			h154.7V553.2L319.8,553.2z M150.5,249.7v52.6H97.9L150.5,249.7z"/>
		<rect x="127.2" y="503.1" class="st0" width="154" height="14.6"/>
		<rect x="127.2" y="458.5" class="st0" width="154" height="14.6"/>
	</g>
</g>
<g>
	<path class="st0" d="M373.6,616.9c-2.5,0-6.4-1.3-8.9-2.5l-35.6-17.8c-1.3-1.3-3.8-1.3-5.1,0l-35.6,17.8
		c-7.6,3.8-17.8,1.3-22.9-5.1c-3.8-3.8-5.1-10.2-3.8-15.3l5.1-39.4c0-2.5,0-3.8-1.3-5.1l-28-28c-5.1-5.1-6.4-12.7-5.1-19.1
		c2.5-6.4,7.6-11.4,15.3-12.7l39.4-6.4c2.5,0,3.8-1.3,5.1-3.8l17.8-35.6c3.8-6.4,10.2-10.2,16.5-10.2c6.4,0,14,3.8,16.5,10.2
		l17.8,35.6c1.3,1.3,2.5,2.5,5.1,3.8l39.4,6.4c7.6,1.3,12.7,6.4,15.3,12.7c2.5,6.4,0,14-5.1,19.1l-28,28c-1.3,1.3-2.5,3.8-1.3,5.1
		l6.4,39.4c1.3,5.1-1.3,11.4-3.8,15.3C383.8,614.3,378.7,616.9,373.6,616.9z"/>
</g>
<circle class="st0" cx="271.2" cy="358.9" r="12"/>
<circle class="st0" cx="139.1" cy="358.9" r="12"/>
<path class="st1" d="M244.7,383.6L244.7,383.6c0,18.6-15.2,33.8-33.8,33.8h-10.8c-18.6,0-33.8-15.2-33.8-33.8v0"/>
<polygon class="st0" points="68.6,650.9 59.4,634 42.5,624.8 59.4,615.5 68.6,598.7 77.8,615.5 94.7,624.8 77.8,634 "/>
<polygon class="st0" points="5,450.4 -0.8,439.7 -11.5,433.9 -0.8,428 5,417.3 10.9,428 21.6,433.9 10.9,439.7 "/>
<polygon class="st0" points="400.4,441 402.8,445.4 407.2,447.9 402.8,450.3 400.4,454.7 398,450.3 393.6,447.9 398,445.4 "/>
<polygon class="st0" points="277.3,635.4 280.9,642 287.5,645.6 280.9,649.3 277.3,655.8 273.7,649.3 267.1,645.6 273.7,642 "/>
<polygon class="st0" points="421.7,581.1 425.3,587.6 431.9,591.2 425.3,594.9 421.7,601.4 418.1,594.9 411.5,591.2 418.1,587.6 "/>
<polygon class="st0" points="191.3,595.9 193.3,599.5 196.8,601.4 193.3,603.4 191.3,606.9 189.4,603.4 185.8,601.4 189.4,599.5 "/>
</svg>
