<svg xmlns="http://www.w3.org/2000/svg" width="168" height="155" viewBox="0 0 168 155">
  <path fill="#F35E5E" fill-opacity=".45" d="M30.4972973,164.075694 L27.0162162,157.699074 L20.6216216,154.227778 L27.0162162,150.71875 L30.4972973,144.379861 L33.9783784,150.71875 L40.372973,154.227778 L33.9783784,157.699074 L30.4972973,164.075694 Z M6.43243243,88.4240741 L4.23783784,84.3868056 L0.189189189,82.1983796 L4.23783784,79.9722222 L6.43243243,75.9349537 L8.66486486,79.9722222 L12.7135135,82.1983796 L8.66486486,84.3868056 L6.43243243,88.4240741 Z M156.043243,84.8773148 L156.951351,86.5375 L158.616216,87.480787 L156.951351,88.3863426 L156.043243,90.0465278 L155.135135,88.3863426 L153.47027,87.480787 L155.135135,86.5375 L156.043243,84.8773148 Z M109.464865,158.227315 L110.827027,160.717593 L113.324324,162.075926 L110.827027,163.471991 L109.464865,165.924537 L108.102703,163.471991 L105.605405,162.075926 L108.102703,160.717593 L109.464865,158.227315 Z M164.102703,137.73912 L165.464865,140.191667 L167.962162,141.55 L165.464865,142.946065 L164.102703,145.398611 L162.740541,142.946065 L160.243243,141.55 L162.740541,140.191667 L164.102703,137.73912 Z M76.9243243,143.32338 L77.6810811,144.681713 L79.0054054,145.398611 L77.6810811,146.153241 L76.9243243,147.473843 L76.2054054,146.153241 L74.8432432,145.398611 L76.2054054,144.681713 L76.9243243,143.32338 Z M116.732422,52.4375 C116.732422,54.5237735 116.516604,56.9337428 116.084961,59.6674805 C115.653318,62.4012181 114.933924,65.1888693 113.926758,68.0305176 C112.919591,70.8721659 111.606698,73.6058625 109.988037,76.2316895 C108.369377,78.8575164 106.337089,81.1056222 103.891113,82.9760742 L106.049316,84.5947266 L103.027832,90.2060547 L101.085449,89.3427734 C100.006342,88.8391902 99.1071,88.1018115 98.3876953,87.1306152 C97.6682907,86.159419 97.2366544,85.0623434 97.0927734,83.8393555 C96.9488925,82.6163676 97.1107561,81.4653374 97.5783691,80.3862305 C98.0459822,79.3071235 98.7473912,78.3719115 99.6826172,77.5805664 C103.351581,74.7029479 105.959384,70.6203878 107.506104,65.3327637 C109.052823,60.0451396 109.826172,55.7467613 109.826172,52.4375 L109.826172,35.171875 C109.826172,33.3014229 109.124763,31.3590596 107.721924,29.3447266 C106.319085,27.3303936 104.466646,25.4779544 102.164551,23.7873535 C99.8624559,22.0967526 97.2726381,20.6939346 94.3950195,19.5788574 C91.517401,18.4637802 88.6038559,17.90625 85.6542969,17.90625 C82.7766783,17.90625 79.8991029,18.4637802 77.0214844,19.5788574 C74.1438658,20.6939346 71.554048,22.1147375 69.2519531,23.8413086 C66.9498583,25.5678797 65.0794343,27.4383037 63.640625,29.4526367 C62.2018157,31.4669697 61.4824219,33.3733634 61.4824219,35.171875 L61.4824219,52.4375 C61.4824219,55.8187018 62.3456945,60.1350649 64.0722656,65.3867188 C65.7988368,70.6383726 68.460594,74.7029479 72.0576172,77.5805664 C72.9928432,78.299971 73.6762674,79.2171982 74.1079102,80.3322754 C74.5395529,81.4473526 74.6834317,82.6163676 74.5395508,83.8393555 C74.3956699,84.9904029 73.9640335,86.0515088 73.2446289,87.0227051 C72.5252243,87.9939013 71.625982,88.73128 70.546875,89.2348633 L40.2241211,103.586914 C39.7924783,103.730795 39.1989784,104.090492 38.4436035,104.666016 C37.6882286,105.241539 37.3105469,106.212721 37.3105469,107.57959 L37.3105469,114.59375 L102.919922,114.59375 L102.919922,121.5 L37.3105469,121.5 C35.4400948,121.5 33.8214587,120.816576 32.4545898,119.449707 C31.087721,118.082838 30.4042969,116.464202 30.4042969,114.59375 L30.4042969,104.234375 C30.4042969,102.291982 31.555327,100.655361 33.8574219,99.3244629 L37.3105469,97.328125 L67.6333008,82.9760742 C65.2592655,81.0336817 63.2449627,78.6956517 61.590332,75.9619141 C59.9357014,73.2281764 58.5868379,70.4405253 57.5437012,67.598877 C56.5005644,64.7572286 55.7452009,61.9875623 55.2775879,59.2897949 C54.8099749,56.5920275 54.5761719,54.3079521 54.5761719,52.4375 L54.5761719,35.171875 C54.5761719,32.2942564 55.4754142,29.4166811 57.2739258,26.5390625 C59.0724374,23.6614439 61.4464371,21.0716261 64.3959961,18.7695312 C67.3455551,16.4674364 70.6727517,14.5970124 74.3776855,13.1582031 C78.0826194,11.7193938 81.8414523,11 85.6542969,11 C89.4671415,11 93.2259743,11.7193938 96.9309082,13.1582031 C100.635842,14.5970124 103.963039,16.4674364 106.912598,18.7695312 C109.862157,21.0716261 112.236156,23.6614439 114.034668,26.5390625 C115.83318,29.4166811 116.732422,32.2942564 116.732422,35.171875 L116.732422,52.4375 Z M130.329102,105.853027 L140.041016,115.564941 C140.68848,116.284346 141.012207,117.111649 141.012207,118.046875 C141.012207,118.982101 140.68848,119.809404 140.041016,120.528809 C139.393551,121.176273 138.584233,121.5 137.613037,121.5 C136.641841,121.5 135.832523,121.176273 135.185059,120.528809 L125.365234,110.708984 L115.65332,120.528809 C115.005856,121.176273 114.196538,121.5 113.225342,121.5 C112.254146,121.5 111.444827,121.176273 110.797363,120.528809 C110.077959,119.809404 109.718262,118.982101 109.718262,118.046875 C109.718262,117.111649 110.077959,116.284346 110.797363,115.564941 L120.509277,105.853027 L110.797363,96.0332031 C110.077959,95.385739 109.718262,94.5764209 109.718262,93.6052246 C109.718262,92.6340283 110.077959,91.8247103 110.797363,91.1772461 C111.444827,90.5297819 112.254146,90.2060547 113.225342,90.2060547 C114.196538,90.2060547 115.005856,90.5297819 115.65332,91.1772461 L125.365234,100.99707 L135.185059,91.1772461 C135.832523,90.5297819 136.641841,90.2060547 137.613037,90.2060547 C138.584233,90.2060547 139.393551,90.5297819 140.041016,91.1772461 C140.68848,91.8247103 141.012207,92.6340283 141.012207,93.6052246 C141.012207,94.5764209 140.68848,95.385739 140.041016,96.0332031 L130.329102,105.853027 Z" transform="translate(0 -11)"/>
</svg>
