<svg xmlns="http://www.w3.org/2000/svg" width="168" height="168" viewBox="0 0 168 168">
  <path fill="#3BC7AB" fill-rule="evenodd" d="M127.75,54.5625 C129.507821,54.5625 130.988926,55.1647075 132.193359,56.3691406 C133.397792,57.5735737 134,59.0546787 134,60.8125 L134,117.0625 C134,118.820321 133.397792,120.301426 132.193359,121.505859 C130.988926,122.710292 129.507821,123.3125 127.75,123.3125 L40.25,123.3125 C38.5572832,123.3125 37.0924541,122.710292 35.8554688,121.505859 C34.6184834,120.301426 34,118.820321 34,117.0625 L34,51.4375 C34,49.6796787 34.6184834,48.1985737 35.8554688,46.9941406 C37.0924541,45.7897075 38.5572832,45.1875 40.25,45.1875 L71.5,45.1875 L80.875,54.5625 L127.75,54.5625 Z M40.25,51.4375 L40.25,67.0625 L127.75,67.0625 L127.75,60.8125 L78.3359375,60.8125 L76.3828125,58.9570312 L68.6679688,51.4375 L40.25,51.4375 Z M40.25,117.0625 L127.75,117.0625 L127.75,73.3125 L40.25,73.3125 L40.25,117.0625 Z" opacity=".5"/>
</svg>
