<svg xmlns="http://www.w3.org/2000/svg" width="48" height="48" viewBox="0 0 48 48">
  <g fill="none" fill-rule="evenodd">
    <g fill-rule="nonzero" transform="translate(25 6)">
      <ellipse cx="19.538" cy="17.533" fill="#1EBFE9" rx="1.538" ry="1.533"/>
      <ellipse cx="1.538" cy="1.533" fill="#1EBFE9" rx="1.538" ry="1.533"/>
      <path fill="#FFC033" d="M12.5378816,4.59819727 C11.6883947,4.59819727 11,3.91210742 11,3.06546484 L11,1.53273242 C11,0.686089844 11.6883947,0 12.5378816,0 C13.3873684,0 14.0757632,0.686089844 14.0757632,1.53273242 L14.0757632,3.06546484 C14.0757632,3.91210742 13.3874605,4.59819727 12.5378816,4.59819727 Z"/>
      <path fill="#F9A926" d="M12.5378816,12.5981973 C11.6883947,12.5981973 11,11.9121074 11,11.0654648 L11,9.53273242 C11,8.68608984 11.6883947,8 12.5378816,8 C13.3873684,8 14.0757632,8.68608984 14.0757632,9.53273242 L14.0757632,11.0654648 C14.0757632,11.9121074 13.3874605,12.5981973 12.5378816,12.5981973 Z"/>
      <path fill="#FFC033" d="M10.0757632,8.06546484 L8.53788158,8.06546484 C7.68839474,8.06546484 7,7.379375 7,6.53273242 C7,5.68608984 7.68839474,5 8.53788158,5 L10.0757632,5 C10.92525,5 11.6136447,5.68608984 11.6136447,6.53273242 C11.6136447,7.379375 10.9253421,8.06546484 10.0757632,8.06546484 Z"/>
      <path fill="#F9A926" d="M3.07576316,3.06546484 L1.53788158,3.06546484 C0.688394737,3.06546484 0,2.379375 0,1.53273242 C0,0.686089844 0.688394737,0 1.53788158,0 L3.07576316,0 C3.92478947,0 4.61364474,0.686089844 4.61364474,1.53273242 C4.61364474,2.379375 3.92478947,3.06546484 3.07576316,3.06546484 Z" transform="translate(13.855 4.773)"/>
    </g>
    <path fill="#1EBFE9" d="M37,23 L37,29 L35,29 L35,42.03125 C35,42.5729194 34.8072936,43.0416647 34.421875,43.4375 C34.0364564,43.8333353 33.5625028,44.03125 33,44.03125 L9.03125,44.03125 C8.46874719,44.03125 7.99479359,43.8333353 7.609375,43.4375 C7.22395641,43.0416647 7.03125,42.5729194 7.03125,42.03125 L7.03125,29 L5,29 L5,23.03125 C5,22.4687472 5.19270641,21.9947936 5.578125,21.609375 C5.96354359,21.2239564 6.43749719,21.03125 7,21.03125 L10.46875,21.03125 C10.0104144,20.5937478 9.65104297,20.0885445 9.390625,19.515625 C9.13020703,18.9427055 9,18.3020869 9,17.59375 C9,16.7187456 9.28124719,15.8958372 9.84375,15.125 C10.4062528,14.3541628 11.3854097,13.96875 12.78125,13.96875 C13.6979213,13.96875 14.5781208,14.1874978 15.421875,14.625 C16.2656292,15.0625022 17.0468714,15.5937469 17.765625,16.21875 C18.4843786,16.8437531 19.1249972,17.5052048 19.6875,18.203125 C20.2500028,18.9010452 20.7083316,19.5312472 21.0625,20.09375 C21.4166684,19.5312472 21.8697889,18.9010452 22.421875,18.203125 C22.9739611,17.5052048 23.6041631,16.8437531 24.3125,16.21875 C25.0208369,15.5937469 25.7916625,15.0625022 26.625,14.625 C27.4583375,14.1874978 28.3333287,13.96875 29.25,13.96875 C30.6458403,13.96875 31.6249972,14.3541628 32.1875,15.125 C32.7500028,15.8958372 33.03125,16.7187456 33.03125,17.59375 C33.03125,18.3020869 32.901043,18.9427055 32.640625,19.515625 C32.380207,20.0885445 32.0312522,20.5833313 31.59375,21 L35,21 C35.5625028,21 36.0364564,21.1979147 36.421875,21.59375 C36.8072936,21.9895853 37,22.4583306 37,23 Z M29.25,15.96875 C27.9999938,15.96875 26.7968808,16.5468692 25.640625,17.703125 C24.4843692,18.8593808 23.5520869,19.9583281 22.84375,21 L26.21875,21 C27.3854225,21 28.4791616,20.7083362 29.5,20.125 C30.5208384,19.5416637 31.03125,18.6979222 31.03125,17.59375 C31.03125,17.0520806 30.8906264,16.6458347 30.609375,16.375 C30.3281236,16.1041653 29.8750031,15.96875 29.25,15.96875 Z M12.78125,15.96875 C12.1562469,15.96875 11.7031264,16.098957 11.421875,16.359375 C11.1406236,16.619793 11,17.0208306 11,17.5625 C11,18.6666722 11.5260364,19.515622 12.578125,20.109375 C13.6302136,20.703128 14.7395775,21 15.90625,21 L19.28125,21 C18.5729131,19.9583281 17.6250059,18.8593808 16.4375,17.703125 C15.2499941,16.5468692 14.0312563,15.96875 12.78125,15.96875 Z M35,27 L35,23 L22,23 L22,27 L35,27 Z M7,23 L7,27 L20,27 L20,23 L7,23 Z M9.03125,29 L9.03125,42.03125 L20,42.03125 L20,29 L9.03125,29 Z M33,42.03125 L33,29 L22,29 L22,42.03125 L33,42.03125 Z"/>
    <ellipse cx="39.373" cy="37.371" fill="#FFC033" fill-rule="nonzero" rx="1.373" ry="1.371"/>
    <ellipse cx="13.373" cy="6.371" fill="#E65C64" fill-rule="nonzero" rx="1.373" ry="1.371"/>
    <ellipse cx="3.373" cy="31.371" fill="#E65C64" fill-rule="nonzero" rx="1.373" ry="1.371"/>
    <ellipse cx="4.373" cy="17.371" fill="#FFC033" fill-rule="nonzero" rx="1.373" ry="1.371"/>
  </g>
</svg>
