<svg xmlns="http://www.w3.org/2000/svg" width="168" height="168" viewBox="0 0 168 168">
  <path fill="#FFF" fill-rule="evenodd" d="M139.889648,52.875 C139.963217,53.0208341 140,53.1666659 140,53.3125 L140,109.75 C140,112.666681 139.26433,115.437487 137.792969,118.0625 C136.321607,120.687513 134.114598,122 131.171875,122 L39.3593755,122 C36.4166525,122 33.6211075,120.687513 30.9726568,118.0625 C28.3242061,115.437487 27.0000006,112.666681 27.0000006,109.75 L27.0000006,53.3125 C27.0000006,53.1666659 27.036784,53.0208341 27.1103521,52.875 C26.963216,52.3645808 26.963216,51.8723982 27.1103521,51.3984375 C27.2574883,50.9244768 27.5149727,50.4687522 27.882813,50.03125 C27.9563811,49.958333 28.0299481,49.867188 28.1035162,49.7578125 C28.1770842,49.648437 28.2874347,49.557292 28.4345709,49.484375 C29.538092,48.0260344 31.1013902,46.9140663 33.1245122,46.1484375 C35.1476343,45.3828087 37.2259013,45 39.3593755,45 L131.171875,45 C133.526053,45 135.420403,45.4921826 136.85498,46.4765625 C138.289558,47.4609424 139.227537,48.9374902 139.668945,50.90625 C139.816081,51.1979181 139.90804,51.5078109 139.944824,51.8359375 C139.981608,52.1640641 139.963217,52.5104148 139.889648,52.875 Z M37.7041021,52 C37.1155575,52 36.5270217,52.036458 35.9384771,52.109375 L83.5000003,89.734375 L131.171875,52 L37.7041021,52 Z M131.171875,115 C132.12826,115 132.661621,114.361986 132.771973,113.085938 C132.882325,111.809889 132.9375,110.697921 132.9375,109.75 L132.9375,59.65625 L85.8173831,96.953125 C85.4495427,97.2447931 85.0817078,97.4635409 84.7138675,97.609375 C84.3460271,97.7552091 83.9414087,97.828125 83.5000003,97.828125 C83.0585918,97.828125 82.6539735,97.7552091 82.2861331,97.609375 C81.9182927,97.4635409 81.5504579,97.2447931 81.1826175,96.953125 L34.0625005,59.65625 L34.0625005,109.75 C34.0625005,110.697921 34.7062115,111.809889 35.9936529,113.085938 C37.2810942,114.361986 38.4029905,115 39.3593755,115 L131.171875,115 Z"/>
</svg>
