<svg xmlns="http://www.w3.org/2000/svg" width="168" height="168" viewBox="0 0 168 168">
  <path fill="#3BC7AB" fill-rule="evenodd" d="M112.125,71.75 C115.575538,71.75 118.521472,72.9706909 120.962891,75.4121094 C123.404309,77.8535278 124.625,80.7994619 124.625,84.25 L124.625,121.75 C124.625,125.200538 123.404309,128.146472 120.962891,130.587891 C118.521472,133.029309 115.575538,134.25 112.125,134.25 L55.875,134.25 C52.4244619,134.25 49.4785278,133.029309 47.0371094,130.587891 C44.5956909,128.146472 43.375,125.200538 43.375,121.75 L43.375,84.25 C43.375,80.7994619 44.5956909,77.8535278 47.0371094,75.4121094 C49.4785278,72.9706909 52.4244619,71.75 55.875,71.75 L59,71.75 L59,59.8359375 C59,56.3202949 59.6022075,53.0000156 60.8066406,49.875 C62.0110737,46.7499844 63.7037651,44.0319126 65.8847656,41.7207031 C68.0657661,39.4094937 70.6861826,37.5865952 73.7460938,36.2519531 C76.8060049,34.917311 80.1913877,34.25 83.9023438,34.25 C87.5481953,34.25 90.9173022,34.917311 94.0097656,36.2519531 C97.102229,37.5865952 99.7551973,39.3932178 101.96875,41.671875 C104.182303,43.9505322 105.907546,46.6523281 107.144531,49.7773438 C108.381517,52.9023594 109,56.2551904 109,59.8359375 L109,71.75 L112.125,71.75 Z M65.25,59.8359375 L65.25,71.75 L102.75,71.75 L102.75,59.8359375 C102.75,54.4322646 101.008481,49.8587427 97.5253906,46.1152344 C94.0423003,42.3717261 89.5013301,40.5 83.9023438,40.5 C78.2382529,40.5 73.7135586,42.388002 70.328125,46.1640625 C66.9426914,49.940123 65.25,54.4973691 65.25,59.8359375 Z M118.375,121.75 L118.375,84.25 C118.375,82.5572832 117.756517,81.0924541 116.519531,79.8554688 C115.282546,78.6184834 113.817717,78 112.125,78 L55.875,78 C54.1822832,78 52.7174541,78.6184834 51.4804688,79.8554688 C50.2434834,81.0924541 49.625,82.5572832 49.625,84.25 L49.625,121.75 C49.625,123.442717 50.2434834,124.907546 51.4804688,126.144531 C52.7174541,127.381517 54.1822832,128 55.875,128 L112.125,128 C113.817717,128 115.282546,127.381517 116.519531,126.144531 C117.756517,124.907546 118.375,123.442717 118.375,121.75 Z M84,90.5 C85.7578213,90.5 87.2389263,91.1022075 88.4433594,92.3066406 C89.6477925,93.5110737 90.25,94.9921787 90.25,96.75 C90.25,97.9218809 89.9570342,98.979813 89.3710938,99.9238281 C88.7851533,100.867843 88.0364629,101.600258 87.125,102.121094 L87.125,112.375 C87.125,113.221358 86.8157583,113.953773 86.1972656,114.572266 C85.5787729,115.190758 84.8463584,115.5 84,115.5 C83.1536416,115.5 82.4212271,115.190758 81.8027344,114.572266 C81.1842417,113.953773 80.875,113.221358 80.875,112.375 L80.875,102.121094 C79.9635371,101.600258 79.2148467,100.867843 78.6289062,99.9238281 C78.0429658,98.979813 77.75,97.9218809 77.75,96.75 C77.75,94.9921787 78.3522075,93.5110737 79.5566406,92.3066406 C80.7610737,91.1022075 82.2421787,90.5 84,90.5 Z" opacity=".5"/>
</svg>
