<svg xmlns="http://www.w3.org/2000/svg" width="168" height="168" viewBox="0 0 168 168">
  <path fill="#FFF" fill-rule="evenodd" d="M111.538462,71.3846154 C114.978383,71.3846154 117.915252,72.6015503 120.349159,75.0354567 C122.783065,77.4693631 124,80.4062328 124,83.8461538 L124,121.230769 C124,124.67069 122.783065,127.60756 120.349159,130.041466 C117.915252,132.475373 114.978383,133.692308 111.538462,133.692308 L55.4615385,133.692308 C52.0216174,133.692308 49.0847477,132.475373 46.6508413,130.041466 C44.2169349,127.60756 43,124.67069 43,121.230769 L43,83.8461538 C43,80.4062328 44.2169349,77.4693631 46.6508413,75.0354567 C49.0847477,72.6015503 52.0216174,71.3846154 55.4615385,71.3846154 L58.5769231,71.3846154 L58.5769231,59.5072115 C58.5769231,56.0023863 59.1772777,52.6923233 60.3780048,49.5769231 C61.578732,46.4615229 63.2662151,43.7518144 65.4405048,41.4477163 C67.6147945,39.1436183 70.2271482,37.3263288 73.2776442,35.9957933 C76.3281403,34.6652578 79.7031065,34 83.4026442,34 C87.0372778,34 90.3960182,34.6652578 93.4789663,35.9957933 C96.5619145,37.3263288 99.2067197,39.1273925 101.413462,41.3990385 C103.620203,43.6706844 105.340138,46.3641671 106.573317,49.4795673 C107.806497,52.5949675 108.423077,55.9374822 108.423077,59.5072115 L108.423077,71.3846154 L111.538462,71.3846154 Z M64.8076923,59.5072115 L64.8076923,71.3846154 L102.192308,71.3846154 L102.192308,59.5072115 C102.192308,54.1201654 100.456147,49.5607158 96.983774,45.828726 C93.5114009,42.0967361 88.9844029,40.2307692 83.4026442,40.2307692 C77.7559814,40.2307692 73.2452092,42.1129619 69.8701923,45.8774038 C66.4951754,49.6418457 64.8076923,54.1850695 64.8076923,59.5072115 Z M117.769231,121.230769 L117.769231,83.8461538 C117.769231,82.1586454 117.15265,80.6983235 115.919471,79.4651442 C114.686292,78.231965 113.22597,77.6153846 111.538462,77.6153846 L55.4615385,77.6153846 C53.77403,77.6153846 52.3137081,78.231965 51.0805288,79.4651442 C49.8473496,80.6983235 49.2307692,82.1586454 49.2307692,83.8461538 L49.2307692,121.230769 C49.2307692,122.918278 49.8473496,124.3786 51.0805288,125.611779 C52.3137081,126.844958 53.77403,127.461538 55.4615385,127.461538 L111.538462,127.461538 C113.22597,127.461538 114.686292,126.844958 115.919471,125.611779 C117.15265,124.3786 117.769231,122.918278 117.769231,121.230769 Z M83.5,90.0769231 C85.2524126,90.0769231 86.7289603,90.6772777 87.9296875,91.8780048 C89.1304147,93.078732 89.7307692,94.5552797 89.7307692,96.3076923 C89.7307692,97.4759674 89.4387048,98.5306443 88.8545673,99.4717548 C88.2704298,100.412865 87.524043,101.143026 86.6153846,101.66226 L86.6153846,111.884615 C86.6153846,112.72837 86.3070944,113.458531 85.6905048,114.07512 C85.0739152,114.69171 84.3437542,115 83.5,115 C82.6562458,115 81.9260848,114.69171 81.3094952,114.07512 C80.6929056,113.458531 80.3846154,112.72837 80.3846154,111.884615 L80.3846154,101.66226 C79.475957,101.143026 78.7295702,100.412865 78.1454327,99.4717548 C77.5612952,98.5306443 77.2692308,97.4759674 77.2692308,96.3076923 C77.2692308,94.5552797 77.8695853,93.078732 79.0703125,91.8780048 C80.2710397,90.6772777 81.7475874,90.0769231 83.5,90.0769231 Z"/>
</svg>
