<svg xmlns="http://www.w3.org/2000/svg" width="168" height="168" viewBox="0 0 168 168">
  <g fill="#E4E5E9" fill-rule="evenodd">
    <path d="M145.892578,140.107422 C146.630863,140.845707 147,141.768549 147,142.875977 C147,143.983404 146.630863,144.906246 145.892578,145.644531 C145.072262,146.464848 144.128912,146.875 143.0625,146.875 C141.996088,146.875 141.052738,146.464848 140.232422,145.644531 L102.087891,107.253906 C97.7402126,111.027363 92.8183869,113.980458 87.3222656,116.113281 C81.8261444,118.246104 76.0019839,119.3125 69.8496094,119.3125 C63.0409816,119.3125 56.6426081,118.020521 50.6542969,115.436523 C44.6659857,112.852526 39.4365458,109.345725 34.9658203,104.916016 C30.4950948,100.486306 26.988294,95.2773737 24.4453125,89.2890625 C21.902331,83.3007513 20.6308594,76.9023778 20.6308594,70.09375 C20.6308594,63.2851222 21.902331,56.8867487 24.4453125,50.8984375 C26.988294,44.9101263 30.4950948,39.701194 34.9658203,35.2714844 C39.4365458,30.8417747 44.6659857,27.3349739 50.6542969,24.7509766 C56.6426081,22.1669793 63.0409816,20.875 69.8496094,20.875 C76.5762055,20.875 82.9335638,22.1669793 88.921875,24.7509766 C94.9101862,27.3349739 100.139626,30.8417747 104.610352,35.2714844 C109.081077,39.701194 112.608386,44.9101263 115.192383,50.8984375 C117.77638,56.8867487 119.068359,63.2851222 119.068359,70.09375 C119.068359,76.0820612 118.042979,81.7626684 115.992188,87.1357422 C113.941396,92.5088159 111.152361,97.3281037 107.625,101.59375 L145.892578,140.107422 Z M69.8496094,111.560547 C75.5097939,111.560547 80.8622795,110.473644 85.9072266,108.299805 C90.9521737,106.125966 95.3408017,103.152363 99.0732422,99.3789062 C102.805683,95.6054499 105.758778,91.2168219 107.932617,86.2128906 C110.106456,81.2089594 111.193359,75.8359662 111.193359,70.09375 C111.193359,64.3515338 110.106456,58.9785406 107.932617,53.9746094 C105.758778,48.9706781 102.805683,44.5820501 99.0732422,40.8085938 C95.3408017,37.0351374 90.9521737,34.0615343 85.9072266,31.8876953 C80.8622795,29.7138563 75.5097939,28.6269531 69.8496094,28.6269531 C64.1073932,28.6269531 58.7138924,29.7138563 53.6689453,31.8876953 C48.6239982,34.0615343 44.2353702,37.0351374 40.5029297,40.8085938 C36.7704892,44.5820501 33.8173937,48.9706781 31.6435547,53.9746094 C29.4697157,58.9785406 28.3828125,64.3515338 28.3828125,70.09375 C28.3828125,75.8359662 29.4697157,81.2089594 31.6435547,86.2128906 C33.8173937,91.2168219 36.7704892,95.6054499 40.5029297,99.3789062 C44.2353702,103.152363 48.6239982,106.125966 53.6689453,108.299805 C58.7138924,110.473644 64.1073932,111.560547 69.8496094,111.560547 Z"/>
    <path d="M70,21.125 C76.7630546,21.125 83.1272488,22.4010289 89.0927734,24.953125 C95.0582981,27.5052211 100.258116,30.9983502 104.692383,35.4326172 C109.12665,39.8668842 112.619779,45.0667019 115.171875,51.0322266 C117.723971,56.9977512 119,63.3619454 119,70.125 C119,76.8880546 117.723971,83.2522488 115.171875,89.2177734 C112.619779,95.1832981 109.12665,100.383116 104.692383,104.817383 C100.258116,109.25165 95.0582981,112.744779 89.0927734,115.296875 C83.1272488,117.848971 76.7630546,119.125 70,119.125 C63.2369454,119.125 56.8727512,117.848971 50.9072266,115.296875 C44.9417019,112.744779 39.7418842,109.25165 35.3076172,104.817383 C30.8733502,100.383116 27.3802211,95.1832981 24.828125,89.2177734 C22.2760289,83.2522488 21,76.8880546 21,70.125 C21,63.3619454 22.2760289,56.9977512 24.828125,51.0322266 C27.3802211,45.0667019 30.8733502,39.8668842 35.3076172,35.4326172 C39.7418842,30.9983502 44.9417019,27.5052211 50.9072266,24.953125 C56.8727512,22.4010289 63.2369454,21.125 70,21.125 Z M70,113.095703 C75.9336234,113.095703 81.5002995,111.963227 86.7001953,109.698242 C91.9000911,107.433257 96.4299937,104.354837 100.290039,100.462891 C104.150084,96.5709441 107.212554,92.0250911 109.477539,86.8251953 C111.742524,81.6252995 112.875,76.0586234 112.875,70.125 C112.875,64.1913766 111.742524,58.6247005 109.477539,53.4248047 C107.212554,48.2249089 104.150084,43.6950063 100.290039,39.8349609 C96.4299937,35.9749156 91.9000911,32.9124462 86.7001953,30.6474609 C81.5002995,28.3824757 75.9336234,27.25 70,27.25 C64.0663766,27.25 58.4997005,28.3824757 53.2998047,30.6474609 C48.0999089,32.9124462 43.5700063,35.9749156 39.7099609,39.8349609 C35.8499156,43.6950063 32.7874462,48.2249089 30.5224609,53.4248047 C28.2574757,58.6247005 27.125,64.1913766 27.125,70.125 C27.125,76.0586234 28.2574757,81.6252995 30.5224609,86.8251953 C32.7874462,92.0250911 35.8499156,96.5709441 39.7099609,100.462891 C43.5700063,104.354837 48.0999089,107.433257 53.2998047,109.698242 C58.4997005,111.963227 64.0663766,113.095703 70,113.095703 Z M87.3222656,52.8027344 C87.8964872,53.376956 88.1835937,54.0947223 88.1835937,54.9560547 C88.1835937,55.8173871 87.8964872,56.5351534 87.3222656,57.109375 L74.3066406,70.125 L87.3222656,83.140625 C87.8964872,83.7148466 88.1835937,84.4326129 88.1835937,85.2939453 C88.1835937,86.1552777 87.8964872,86.873044 87.3222656,87.4472656 C86.748044,88.0214872 86.0302777,88.3085937 85.1689453,88.3085937 C84.3076129,88.3085937 83.5898466,88.0214872 83.015625,87.4472656 L70,74.4316406 L56.984375,87.4472656 C56.4101534,88.0214872 55.6923871,88.3085937 54.8310547,88.3085937 C53.9697223,88.3085937 53.251956,88.0214872 52.6777344,87.4472656 C52.1035128,86.873044 51.8164062,86.1552777 51.8164062,85.2939453 C51.8164062,84.4326129 52.1035128,83.7148466 52.6777344,83.140625 L65.6933594,70.125 L52.6777344,57.109375 C52.1035128,56.5351534 51.8164062,55.8173871 51.8164062,54.9560547 C51.8164062,54.0947223 52.1035128,53.376956 52.6777344,52.8027344 C53.251956,52.2285128 53.9697223,51.9414062 54.8310547,51.9414062 C55.6923871,51.9414062 56.4101534,52.2285128 56.984375,52.8027344 L70,65.8183594 L83.015625,52.8027344 C83.5898466,52.2285128 84.3076129,51.9414062 85.1689453,51.9414062 C86.0302777,51.9414062 86.748044,52.2285128 87.3222656,52.8027344 Z"/>
  </g>
</svg>
