<svg xmlns="http://www.w3.org/2000/svg" width="168" height="168" viewBox="0 0 168 168">
  <path fill="#F35E5E" fill-opacity=".45" d="M123.872382,45.8826531 L99.6502679,45.8826531 L99.6502679,35.1436735 C99.6502679,33.9481633 98.6887482,33 97.5226498,33 L70.4773502,33 C69.290794,33 68.3497321,33.9687755 68.3497321,35.1436735 L68.3497321,45.8826531 L44.1276181,45.8826531 C42.9410619,45.8826531 42,46.8514286 42,48.0263265 L42,61.4036735 C42,62.5991837 42.9615197,63.5473469 44.1276181,63.5473469 L49.1602533,63.5473469 L49.1602533,118.107959 C49.1602533,126.868163 56.2386751,134 64.9332684,134 L103.066732,134 C111.761325,134 118.839747,126.868163 118.839747,118.107959 L118.839747,63.5679592 L123.872382,63.5679592 C125.058938,63.5679592 126,62.5991837 126,61.4242857 L126,48.0263265 C126,46.8514286 125.03848,45.8826531 123.872382,45.8826531 L123.872382,45.8826531 Z M72.6254262,37.3079592 L95.3950317,37.3079592 L95.3950317,45.9032653 L72.6254262,45.9032653 L72.6254262,37.3079592 L72.6254262,37.3079592 Z M114.564053,118.107959 C114.564053,124.497755 109.40867,129.692041 103.066732,129.692041 L64.9332684,129.692041 C58.5913298,129.692041 53.4359474,124.497755 53.4359474,118.107959 L53.4359474,63.5679592 L114.564053,63.5679592 L114.564053,118.107959 Z M121.724306,59.26 L46.2756941,59.26 L46.2756941,50.1906122 L121.744764,50.1906122 L121.744764,59.26 L121.724306,59.26 Z M65.1992207,118.746939 C64.0331223,118.746939 63.0716025,117.778163 63.0716025,116.603265 L63.0716025,76.6773469 C63.0716025,75.502449 64.0126644,74.5336735 65.1992207,74.5336735 C66.365319,74.5336735 67.3268388,75.4818367 67.3268388,76.6773469 L67.3268388,116.603265 C67.3268388,117.778163 66.3857769,118.746939 65.1992207,118.746939 Z M84,118.746939 C82.8134437,118.746939 81.8723819,117.778163 81.8723819,116.603265 L81.8723819,76.6773469 C81.8723819,75.502449 82.8339016,74.5336735 84,74.5336735 C85.1660984,74.5336735 86.1276181,75.4818367 86.1276181,76.6773469 L86.1276181,116.603265 C86.1276181,117.778163 85.1865563,118.746939 84,118.746939 Z M102.800779,118.746939 C101.614223,118.746939 100.652703,117.778163 100.673161,116.603265 L100.673161,76.6773469 C100.673161,75.502449 101.614223,74.5336735 102.800779,74.5336735 C103.966878,74.5336735 104.928397,75.4818367 104.928397,76.6773469 L104.928397,116.603265 C104.928397,117.778163 103.987336,118.746939 102.800779,118.746939 Z"/>
</svg>
