<?xml version="1.0" encoding="UTF-8"?>
<svg width="14px" height="16px" viewBox="0 0 14 16" version="1.1" xmlns="http://www.w3.org/2000/svg" xmlns:xlink="http://www.w3.org/1999/xlink">
    <!-- Generator: Sketch 42 (36781) - http://www.bohemiancoding.com/sketch -->
    <title>icons / base / default</title>
    <desc>Created with Sketch.</desc>
    <defs></defs>
    <g id="Smart-Portal-Elements" stroke="none" stroke-width="1" fill="none" fill-rule="evenodd">
        <g id="Large-Device-Desktops" transform="translate(-183.000000, -1755.000000)" fill="#556066">
            <g id="icons-/-base-/-default" transform="translate(178.000000, 1751.000000)">
                <g id="book" transform="translate(5.000000, 4.000000)">
                    <g id="Capa_1">
                        <g id="Group">
                            <path d="M13.5133593,4.15901133 L2.77457847,4.15901133 C1.77950713,4.15901133 0.966018158,3.42409887 0.966018158,2.51781668 C0.966018158,1.61483007 1.77587549,0.876622039 2.77457847,0.876622039 L13.5169909,0.876622039 C13.7857328,0.876622039 14,0.678887745 14,0.43831102 C14,0.194438723 13.7821012,2.54519498e-17 13.5169909,2.54519498e-17 L2.77457847,2.54519498e-17 C1.24565499,-2.08712495e-16 0,1.13038105 0,2.51781668 L0,13.4821833 C0,14.8696189 1.24565499,16 2.77457847,16 L13.5169909,16 C13.7857328,16 14,15.8022657 14,15.561689 L14,4.59732235 C13.9963684,4.35674562 13.7821012,4.15901133 13.5133593,4.15901133 Z M13.0303502,15.123378 L2.77457847,15.123378 C1.77950713,15.123378 0.966018158,14.3884655 0.966018158,13.4821833 L0.966018158,4.4292482 C1.45265888,4.80823893 2.0845655,5.03892894 2.77457847,5.03892894 L13.0303502,5.03892894 L13.0303502,15.123378 L13.0303502,15.123378 Z" id="Shape" fill-rule="nonzero"></path>
                            <path d="M4.96062176,12.7012496 C5.00725389,12.7170984 5.05388601,12.7266077 5.10051813,12.7266077 C5.27150259,12.7266077 5.43005181,12.6188357 5.48911917,12.4476684 L5.99274611,11.0117647 L7.93264249,11.0117647 C7.94818653,11.0117647 7.96683938,11.0117647 7.98238342,11.0085949 L8.48601036,12.4476684 C8.54507772,12.6188357 8.70673575,12.7266077 8.8746114,12.7266077 C8.92124352,12.7266077 8.96787565,12.7170984 9.01450777,12.7012496 C9.22901554,12.6220055 9.34093264,12.3811033 9.26321244,12.1623895 L7.37927461,6.77695824 L7.37927461,6.77695824 C7.3761658,6.76427918 7.36994819,6.75160012 7.36373057,6.73892106 C7.36062176,6.73258153 7.35751295,6.726242 7.35440415,6.71990247 C7.35129534,6.71356294 7.34818653,6.70722341 7.34507772,6.70088388 C7.34196891,6.69454435 7.3357513,6.68820482 7.33264249,6.67869552 C7.32953368,6.67552575 7.32642487,6.66918622 7.32331606,6.66601646 C7.32020725,6.65967693 7.31398964,6.6533374 7.30777202,6.64699787 C7.30466321,6.6438281 7.3015544,6.63748857 7.29533679,6.63431881 C7.29222798,6.62797927 7.28601036,6.62480951 7.27979275,6.61846998 C7.27357513,6.61213045 7.27046632,6.60896068 7.2642487,6.60262115 C7.2611399,6.59945139 7.25492228,6.59628162 7.25181347,6.58994209 C7.24559585,6.58360256 7.23937824,6.58043279 7.23316062,6.57409326 C7.23005181,6.5709235 7.2238342,6.56775373 7.22072539,6.56458397 C7.21450777,6.5614142 7.20829016,6.55507467 7.20207254,6.55190491 C7.19585492,6.54873514 7.18963731,6.54556538 7.18341969,6.54239561 C7.17720207,6.53922585 7.17098446,6.53605608 7.16476684,6.53288632 C7.15233161,6.52654678 7.13989637,6.52020725 7.12746114,6.51703749 L7.12746114,6.51703749 L7.12435233,6.51703749 C7.1119171,6.51386772 7.09948187,6.51069796 7.08704663,6.50752819 C7.08082902,6.50752819 7.07772021,6.50435843 7.07150259,6.50435843 C7.06217617,6.50118866 7.05595855,6.50118866 7.04663212,6.4980189 C7.04041451,6.4980189 7.03419689,6.4980189 7.02797927,6.49484913 C7.02176166,6.49484913 7.01243523,6.49167937 7.00621762,6.49167937 L6.98756477,6.49167937 L6.96580311,6.49167937 C6.95958549,6.49167937 6.95025907,6.49167937 6.94404145,6.49484913 C6.93782383,6.49484913 6.93160622,6.49484913 6.9253886,6.4980189 C6.91606218,6.4980189 6.90984456,6.50118866 6.90051813,6.50435843 C6.89430052,6.50435843 6.89119171,6.50752819 6.88497409,6.50752819 C6.87253886,6.51069796 6.86010363,6.51386772 6.8507772,6.51703749 L6.84766839,6.51703749 L6.84766839,6.51703749 C6.83523316,6.52020725 6.82279793,6.52654678 6.81036269,6.53288632 C6.80414508,6.53605608 6.79792746,6.53922585 6.79170984,6.54239561 C6.78549223,6.54556538 6.77927461,6.54873514 6.77305699,6.55190491 C6.76683938,6.55507467 6.76062176,6.5614142 6.75129534,6.56458397 C6.74818653,6.56775373 6.74196891,6.5709235 6.7388601,6.57409326 C6.73264249,6.58043279 6.72642487,6.58360256 6.72020725,6.58994209 C6.71709845,6.59311186 6.71088083,6.59628162 6.70777202,6.60262115 C6.7015544,6.60896068 6.6984456,6.61213045 6.69222798,6.61846998 C6.68601036,6.62480951 6.68290155,6.62797927 6.67668394,6.63431881 C6.67357513,6.63748857 6.67046632,6.6438281 6.6642487,6.64699787 C6.65803109,6.6533374 6.65492228,6.65967693 6.64870466,6.66601646 C6.64559585,6.66918622 6.64248705,6.67552575 6.63937824,6.67869552 C6.63626943,6.68503505 6.63005181,6.69137458 6.62694301,6.69771411 C6.6238342,6.70405364 6.62072539,6.71039317 6.61761658,6.7167327 C6.61450777,6.72307223 6.61139896,6.72941176 6.60829016,6.7357513 C6.60207254,6.74843036 6.59585492,6.76110942 6.59274611,6.77378848 L6.59274611,6.77378848 L4.70259067,12.1592198 C4.63419689,12.3811033 4.74611399,12.6220055 4.96062176,12.7012496 Z M6.99067358,8.17165498 L7.69015544,10.1686071 L6.2880829,10.1686071 L6.99067358,8.17165498 Z" id="Shape" fill-rule="nonzero"></path>
                            <rect id="Rectangle-8" x="3" y="2" width="11" height="1" rx="0.5"></rect>
                        </g>
                    </g>
                </g>
            </g>
        </g>
    </g>
</svg>