<svg xmlns="http://www.w3.org/2000/svg" width="24" height="24" viewBox="0 0 24 24">
  <g fill="#9AA5AB" transform="translate(0 4)">
    <path d="M8.04740625 8.51327811L4.39284375 8.51327811C4.12879688 8.51327811 3.91471875 8.72946746 3.91471875 8.99611834L3.91471875 11.9780355C3.91471875 12.2446864 4.12879688 12.4608757 4.39284375 12.4608757L7.83951563 12.4608757C7.843125 12.4608757 7.84664063 12.4608284 7.85025 12.4607811 8.65359375 12.4425562 9.61120313 12.0942485 9.61120313 10.5384615 9.61120313 8.94897041 8.6304375 8.5175858 8.04740625 8.51327811zM7.8339375 11.4951953L4.87096875 11.4951953 4.87096875 9.47895858 8.04379687 9.47895858C8.1871875 9.48085207 8.655 9.56288757 8.655 10.5384615 8.655 11.3337751 8.39025 11.4817515 7.8339375 11.4951953zM19.9210781 6.94665089C19.5379219 6.55772781 19.0104844 6.36052071 18.3533906 6.36052071 17.2251563 6.36052071 16.3501406 6.98684024 15.9526875 8.07895858 15.8987813 8.22702959 15.9199219 8.39242604 16.0094063 8.52179882 16.0987969 8.65121893 16.2451875 8.72828402 16.4014687 8.72828402L20.0482969 8.72828402C20.1911719 8.72828402 20.3265 8.66371598 20.4173906 8.55242604 20.5082344 8.44108876 20.5449375 8.29453254 20.5175625 8.15294675 20.4516094 7.81197633 20.2945781 7.32591716 19.9210781 6.94665089zM17.2367812 7.76265089C17.5146562 7.47252071 17.8880625 7.32615385 18.3534375 7.32615385 18.7467187 7.32615385 19.0461094 7.4275503 19.2430781 7.62759763 19.284375 7.66953846 19.3210781 7.71502959 19.3536562 7.76265089L17.2367812 7.76265089zM4.39284375 6.57462722L7.79582813 6.57462722C8.03826563 6.57462722 8.40473438 6.57462722 8.70773438 6.27692308 8.99582813 5.99384615 9.13007813 5.52577515 9.13007813 4.80383432 9.13007813 3.33197633 8.16810938 3.24790533 8.05842188 3.2431716 8.051625 3.24288757 8.04478125 3.24274556 8.0379375 3.24274556L4.39284375 3.24288757C4.12879688 3.24288757 3.91471875 3.45912426 3.91471875 3.72572781L3.91471875 6.09183432C3.91471875 6.35843787 4.12879688 6.57462722 4.39284375 6.57462722zM4.87096875 4.20847337L8.01295313 4.20833136C8.06845313 4.22684024 8.17382813 4.38925444 8.17382813 4.80378698 8.17382813 5.43592899 8.05453125 5.57136095 8.0409375 5.58471006 8.01628125 5.60894675 7.87823438 5.60894675 7.79573438 5.60894675L4.87092188 5.60894675 4.87092188 4.20847337 4.87096875 4.20847337z"/>
    <path d="M22.559625,5.29027219 C21.5634375,4.1447574 20.13,3.56388166 18.2991094,3.56388166 C15.1178906,3.56388166 13.6004531,5.28080473 12.887625,6.72118343 C12.7222969,7.0552426 12.5931094,7.38783432 12.4921875,7.70504142 C12.4035469,7.57907692 12.3079219,7.4612071 12.2054063,7.35185799 C12.1180313,7.25855621 12.0259688,7.17164497 11.9293594,7.09126627 C12.4002188,6.58404734 12.808875,5.79545562 12.808875,4.58655621 C12.808875,3.15209467 12.3144375,1.96113609 11.3790469,1.14243787 C10.5332812,0.402224852 9.38048437,0.0109822485 8.04534375,0.0109822485 L0.84975,0.0109822485 C0.3811875,0.0109349112 0,0.395928994 0,0.869112426 L0,14.8348402 C0,15.3080237 0.3811875,15.6929704 0.84975,15.6929704 L8.03592187,15.6929704 C8.04815625,15.6932071 8.06760937,15.6934911 8.09371875,15.6934911 C8.4384375,15.6934911 9.65465625,15.6462012 10.8318281,15.0379645 C11.5197188,14.6826982 12.3277969,14.0611598 12.8243906,12.9945089 C13.0527656,13.4466272 13.3347187,13.8549112 13.6686094,14.2161893 C14.7494531,15.3857515 16.3004531,15.9808757 18.2783906,15.9850414 C18.3132656,15.9866036 18.385875,15.9890651 18.4883437,15.9890651 C18.9866719,15.9890651 20.2733906,15.928 21.4539844,15.3621302 C23.0638594,14.5908639 23.8801406,13.2960473 23.8801406,11.5137515 C23.8801406,11.3444734 23.8313906,11.1864615 23.7472031,11.0533491 C23.8575,10.928426 23.9325469,10.7704615 23.9553281,10.5945562 C23.9723906,10.4630533 24.3504375,7.35020118 22.559625,5.29027219 Z M23.0175,10.376142 L16.3379531,10.376142 C16.2015,10.376142 16.0715625,10.4349822 15.9808125,10.5379408 C15.8900625,10.6408994 15.8472187,10.7780355 15.8630625,10.9148876 C15.9536719,11.699645 16.313625,12.3018698 16.9041094,12.6565207 C17.4568594,12.988497 18.0608437,13.0243314 18.2948906,13.0243314 C18.3425625,13.0243314 18.3735469,13.0227692 18.3835312,13.0222012 C19.2393281,13.0216805 19.8996094,12.8058698 20.2932187,12.3982485 C20.5988906,12.0817515 20.6792344,11.7857988 20.6985,11.6212071 L22.9229062,11.6212071 C22.891875,12.960284 22.2765,13.8992663 21.0442969,14.4896095 C20.0391562,14.9712663 18.9220312,15.0232899 18.4884375,15.0232899 C18.3906562,15.0232899 18.3292969,15.0206864 18.3127969,15.0198817 C18.30525,15.019503 18.29775,15.0193136 18.29025,15.0193136 C16.5825,15.0176095 15.2628281,14.5257278 14.3678437,13.5573018 C13.8195937,12.9639763 13.4390625,12.2073373 13.2368906,11.3082604 C13.18725,11.0874793 12.9929062,10.9323077 12.7708594,10.9323077 C12.7627031,10.9323077 12.7543594,10.9325444 12.7461094,10.9329231 C12.5139375,10.9449467 12.3239531,11.1238817 12.2959687,11.3570178 C12.1396875,12.6587929 11.5005937,13.6079527 10.3965,14.1782722 C9.40964062,14.6881893 8.38457812,14.727858 8.09390625,14.727858 C8.07440625,14.727858 8.061,14.7276686 8.05425,14.7274793 C8.05003125,14.7273846 8.0458125,14.7273373 8.04164062,14.7273373 L0.95625,14.7273373 L0.95625,0.976568047 L8.04534375,0.976568047 C9.14714062,0.976568047 10.083375,1.28620118 10.75275,1.87209467 C11.4722812,2.50186982 11.852625,3.44042604 11.852625,4.58646154 C11.852625,5.57424852 11.5207031,6.30011834 10.8660937,6.74371598 C10.7238281,6.84009467 10.6435781,7.0059645 10.6555781,7.17850888 C10.6675781,7.35100592 10.7700937,7.50395266 10.9242656,7.57926627 C11.1420937,7.68572781 11.3393906,7.83242604 11.5107187,8.01543195 C11.8197656,8.34532544 12.0477187,8.79597633 12.1880625,9.35498225 C12.2447812,9.5808284 12.4533281,9.73330178 12.6832031,9.71805917 C12.9134062,9.70262722 13.0997812,9.52336095 13.1264531,9.29202367 C13.1875781,8.76118343 13.3440469,7.95914793 13.743,7.15285207 C14.3352656,5.95611834 15.6064687,4.52960947 18.2990625,4.52960947 C19.84275,4.52960947 21.0344531,4.99995266 21.8410312,5.92747929 C23.2112812,7.50352663 23.0665312,9.87024852 23.0175,10.376142 Z M19.7631562,11.3417751 C19.752,11.3988166 19.7465156,11.4573254 19.747125,11.5166391 C19.7405156,11.5398817 19.7122969,11.6165207 19.6084687,11.724071 C19.4045156,11.9353846 18.9567656,12.056568 18.3800625,12.056568 C18.3635156,12.056568 18.3439219,12.0571834 18.3297656,12.0581302 C18.3245625,12.0583669 18.3125156,12.0586982 18.2947969,12.0586982 C18.2086875,12.0586982 17.7607031,12.0474793 17.3928281,11.8265562 C17.2002187,11.7108639 17.0555625,11.5504852 16.9568437,11.3417751 L19.7631562,11.3417751 L19.7631562,11.3417751 Z"/>
    <path d="M21.0293438,0.0255621302 L15.32325,0.0255621302 C14.8546875,0.0255621302 14.4734531,0.387502959 14.4734531,0.832378698 L14.4734531,2.31640237 C14.4734531,2.76127811 14.8546406,3.12326627 15.32325,3.12326627 L21.0293438,3.12326627 C21.4979531,3.12326627 21.8790938,2.76132544 21.8790938,2.3164497 L21.8790938,0.832378698 C21.8790938,0.387502959 21.4979531,0.0255621302 21.0293438,0.0255621302 Z M20.9228906,2.1575858 L15.4296563,2.1575858 L15.4296563,0.991242604 L20.9228906,0.991242604 L20.9228906,2.1575858 Z"/>
  </g>
</svg>
