<svg xmlns="http://www.w3.org/2000/svg" width="24" height="24" viewBox="0 0 24 24">
  <path fill="#FFF" d="M8.65234826,7.62831206 C9.48599502,6.97974468 10.2118856,5.93588652 10.2118856,4.26723404 L10.2118856,4.22451064 C10.2118856,3.16385816 9.86853234,2.24266667 9.19129353,1.48646809 C9.18806468,1.48283688 9.18472637,1.47926241 9.18138806,1.47574468 C8.26483085,0.510297872 6.89333333,0 5.21509453,0 L0.528437811,0 C0.256393035,0 0.0359004975,0.228595745 0.0359004975,0.510638298 L0.0359004975,15.451461 C0.0359004975,15.7335035 0.256393035,15.9620993 0.528437811,15.9620993 L5.47192537,15.9620993 C7.0800597,15.9620993 8.44340299,15.5527943 9.41457711,14.778383 C10.440204,13.9605674 10.9823234,12.7836596 10.9823234,11.3748085 L10.9823234,11.3320851 C10.9823234,9.65821277 10.1814577,8.39375887 8.65234826,7.62831206 Z M5.51143781,13.4254752 L2.56190547,13.4254752 L2.56190547,9.17475177 L5.23485075,9.17475177 C6.31487562,9.17475177 7.1688806,9.37622695 7.70459701,9.75744681 C8.18383582,10.0984965 8.4168607,10.5786667 8.4168607,11.2253617 L8.4168607,11.2680284 C8.4168607,13.2152624 6.3849801,13.4254752 5.51143781,13.4254752 Z M4.95711443,6.65940426 L2.56190547,6.65940426 L2.56190547,2.53668085 L5.07685572,2.53668085 C6.70983582,2.53668085 7.64636816,3.23744681 7.64636816,4.45929078 L7.64636816,4.50195745 C7.64631343,6.37912057 5.96145274,6.65940426 4.95711443,6.65940426 Z" transform="translate(7 4)"/>
</svg>
