<svg xmlns="http://www.w3.org/2000/svg" width="24" height="24" viewBox="0 0 24 24">
  <path fill="#FFF" fill-rule="evenodd" d="M19.3125,7.0625 C19.8750028,7.0625 20.2968736,7.27343539 20.578125,7.6953125 C20.8593764,8.11718961 21,8.46874859 21,8.75 L21,17.7675781 C21,18.2128929 20.8154315,18.6025374 20.4462891,18.9365234 C20.0771466,19.2705095 19.7109393,19.4375 19.3476562,19.4375 L4.56445312,19.4375 C4.20117006,19.4375 3.84961107,19.2734391 3.50976562,18.9453125 C3.16992018,18.6171859 3,18.2187523 3,17.75 L3,8.73242188 C3,8.18163787 3.21093539,7.76562641 3.6328125,7.484375 C4.05468961,7.20312359 4.40624859,7.0625 4.6875,7.0625 L7.27148438,7.0625 L8.625,4.8125 L15.375,4.8125 L16.7285156,7.0625 L19.3125,7.0625 Z M19.875,17.7675781 L19.875,8.75 C19.875,8.72656238 19.8310551,8.626954 19.7431641,8.45117188 C19.655273,8.27538975 19.5117197,8.1875 19.3125,8.1875 L16.0957031,8.1875 L15.7792969,7.64257812 L14.7773438,5.9375 L9.2578125,5.9375 L7.90429688,8.1875 L4.6875,8.1875 C4.64062477,8.1875 4.53515707,8.23437453 4.37109375,8.328125 C4.20703043,8.42187547 4.125,8.55663975 4.125,8.73242188 L4.125,17.75 C4.125,17.9023445 4.18359316,18.0341791 4.30078125,18.1455078 C4.41796934,18.2568365 4.5117184,18.3125 4.58203125,18.3125 L19.3476562,18.3125 C19.4296879,18.3007812 19.5380853,18.2333991 19.6728516,18.1103516 C19.8076179,17.9873041 19.875,17.8730474 19.875,17.7675781 Z M12,8.75 C12.5390652,8.75 13.0488257,8.85253804 13.5292969,9.05761719 C14.009768,9.26269634 14.4287092,9.54394353 14.7861328,9.90136719 C15.1435565,10.2587908 15.4248037,10.677732 15.6298828,11.1582031 C15.834962,11.6386743 15.9375,12.1484348 15.9375,12.6875 C15.9375,13.2265652 15.834962,13.7363257 15.6298828,14.2167969 C15.4248037,14.697268 15.1435565,15.1162092 14.7861328,15.4736328 C14.4287092,15.8310565 14.009768,16.1123037 13.5292969,16.3173828 C13.0488257,16.522462 12.5390652,16.625 12,16.625 C11.4609348,16.625 10.9511743,16.522462 10.4707031,16.3173828 C9.99023197,16.1123037 9.57129085,15.8310565 9.21386719,15.4736328 C8.85644353,15.1162092 8.57519634,14.697268 8.37011719,14.2167969 C8.16503804,13.7363257 8.0625,13.2265652 8.0625,12.6875 C8.0625,12.1484348 8.16503804,11.6386743 8.37011719,11.1582031 C8.57519634,10.677732 8.85644353,10.2587908 9.21386719,9.90136719 C9.57129085,9.54394353 9.99023197,9.26269634 10.4707031,9.05761719 C10.9511743,8.85253804 11.4609348,8.75 12,8.75 Z M12,15.5 C12.7734414,15.5 13.4355441,15.2246121 13.9863281,14.6738281 C14.5371121,14.1230441 14.8125,13.4609414 14.8125,12.6875 C14.8125,11.9140586 14.5371121,11.2519559 13.9863281,10.7011719 C13.4355441,10.1503879 12.7734414,9.875 12,9.875 C11.2265586,9.875 10.5644559,10.1503879 10.0136719,10.7011719 C9.46288787,11.2519559 9.1875,11.9140586 9.1875,12.6875 C9.1875,13.4609414 9.46288787,14.1230441 10.0136719,14.6738281 C10.5644559,15.2246121 11.2265586,15.5 12,15.5 Z"/>
</svg>
