<?xml version="1.0" encoding="utf-8"?>
<!-- Generator: Adobe Illustrator 19.0.1, SVG Export Plug-In . SVG Version: 6.00 Build 0)  -->
<svg version="1.1" id="Слой_1" xmlns="http://www.w3.org/2000/svg" xmlns:xlink="http://www.w3.org/1999/xlink" x="0px" y="0px"
	 viewBox="0 0 500 500" style="enable-background:new 0 0 500 500;" xml:space="preserve">
<path d="M149.9,368.8c-2.3,0-4.7-0.9-6.5-2.8L45.1,263.5L143.4,161c3.6-3.7,9.4-3.7,13,0c3.6,3.7,3.6,9.8,0,13.5l-85.4,89l85.4,89
	c3.6,3.7,3.6,9.8,0,13.5C154.6,367.9,152.3,368.8,149.9,368.8z"/>
<path d="M352.1,368.8c-2.3,0-4.7-0.9-6.5-2.8c-3.6-3.7-3.6-9.8,0-13.5l85.4-89l-85.4-89c-3.6-3.7-3.6-9.8,0-13.5
	c3.6-3.7,9.4-3.7,13,0l98.4,102.5L358.6,366C356.8,367.9,354.4,368.8,352.1,368.8z"/>
<path d="M194.5,393.2c-1.4,0-2.8-0.3-4.1-1c-4.5-2.3-6.4-8.1-4.2-12.8l114.1-240.3c2.3-4.7,7.7-6.7,12.3-4.3
	c4.5,2.3,6.4,8.1,4.2,12.8L202.7,387.9C201.1,391.3,197.9,393.2,194.5,393.2z"/>
</svg>
