<svg xmlns="http://www.w3.org/2000/svg" width="24" height="24" viewBox="0 0 24 24">
  <path fill="#556066" fill-rule="evenodd" d="M10.640625,14.609375 L10.296875,14.609375 C10.1822911,14.609375 10.070313,14.6067709 9.9609375,14.6015625 C9.85156195,14.5963541 9.72395906,14.5833334 9.578125,14.5625 C9.50520797,14.6458337 9.34635539,14.7864573 9.1015625,14.984375 C8.85676961,15.1822927 8.56771,15.3906239 8.234375,15.609375 C7.90104,15.8281261 7.54948102,16.0260408 7.1796875,16.203125 C6.80989398,16.3802092 6.46354328,16.4947914 6.140625,16.546875 L6.125,16.546875 L6.09375,16.5546875 C6.07291656,16.5598959 6.05208344,16.5625 6.03125,16.5625 C5.92708281,16.5625 5.84114617,16.526042 5.7734375,16.453125 C5.70572883,16.380208 5.671875,16.2916672 5.671875,16.1875 C5.671875,16.1562498 5.67447914,16.1302084 5.6796875,16.109375 C5.68489586,16.0885416 5.69270828,16.0677084 5.703125,16.046875 L5.6875,16.046875 C5.81250063,15.8385406 5.98697805,15.5182313 6.2109375,15.0859375 C6.43489695,14.6536437 6.546875,14.2552102 6.546875,13.890625 L6.546875,13.859375 C6.11978953,13.6406239 5.74479328,13.3697933 5.421875,13.046875 C5.09895672,12.7239567 4.83333437,12.3697936 4.625,11.984375 C4.41666563,11.5989564 4.26041719,11.1927105 4.15625,10.765625 C4.05208281,10.3385395 4,9.91666875 4,9.5 C4,8.82291328 4.16926914,8.18750297 4.5078125,7.59375 C4.84635586,6.99999703 5.31249703,6.48437719 5.90625,6.046875 C6.50000297,5.60937281 7.19270437,5.26302211 7.984375,5.0078125 C8.77604563,4.75260289 9.62499547,4.625 10.53125,4.625 C11.4270878,4.625 12.2682252,4.75260289 13.0546875,5.0078125 C13.8411498,5.26302211 14.5260387,5.60937281 15.109375,6.046875 C15.6927113,6.48437719 16.1536441,6.99999703 16.4921875,7.59375 C16.8307309,8.18750297 17,8.82291328 17,9.5 C17.0104167,10.2604205 16.8541683,10.955726 16.53125,11.5859375 C16.2083317,12.216149 15.7604195,12.7552061 15.1875,13.203125 C14.6145805,13.6510439 13.9375039,13.9973946 13.15625,14.2421875 C12.3749961,14.4869804 11.5364628,14.609375 10.640625,14.609375 Z M9.171875,13.53125 L9.71875,13.578125 C9.95833453,13.6093752 10.1770823,13.625 10.375,13.625 L10.671875,13.625 C11.4322955,13.625 12.1380176,13.5234385 12.7890625,13.3203125 C13.4401074,13.1171865 14.0026018,12.830731 14.4765625,12.4609375 C14.9505232,12.091144 15.3229153,11.6536484 15.59375,11.1484375 C15.8645847,10.6432266 16,10.093753 16,9.5 C16,8.95833063 15.8567723,8.45312734 15.5703125,7.984375 C15.2838527,7.51562266 14.8958358,7.10677258 14.40625,6.7578125 C13.9166642,6.40885242 13.338545,6.13281352 12.671875,5.9296875 C12.005205,5.72656148 11.2916705,5.625 10.53125,5.625 C9.77082953,5.625 9.05469086,5.72656148 8.3828125,5.9296875 C7.71093414,6.13281352 7.12239836,6.40885242 6.6171875,6.7578125 C6.11197664,7.10677258 5.71614727,7.51562266 5.4296875,7.984375 C5.14322773,8.45312734 5,8.95833063 5,9.5 C5,10.1458366 5.16145672,10.7968717 5.484375,11.453125 C5.80729328,12.1093783 6.31249656,12.6145816 7,12.96875 L7.546875,13.25 L7.5,13.859375 L7.46875,14.1328125 C7.44791656,14.3151051 7.34895922,14.6458309 7.171875,15.125 C7.45312641,14.9583325 7.73176945,14.763022 8.0078125,14.5390625 C8.28385555,14.315103 8.45833297,14.1562505 8.53125,14.0625 L9.171875,13.53125 Z M20,13.53125 C20,14.2604203 19.8229184,14.903643 19.46875,15.4609375 C19.1145816,16.018232 18.567712,16.4843731 17.828125,16.859375 L17.828125,16.890625 C17.828125,17.2135433 17.8906244,17.5885395 18.015625,18.015625 C18.1406256,18.4427105 18.2552078,18.7447908 18.359375,18.921875 C18.3697917,18.9427084 18.3776041,18.9635416 18.3828125,18.984375 C18.3880209,19.0052084 18.390625,19.0260416 18.390625,19.046875 C18.390625,19.1406255 18.3593753,19.2187497 18.296875,19.28125 C18.2343747,19.3437503 18.1562505,19.375 18.0625,19.375 L17.96875,19.375 C17.4166639,19.2812495 16.8593778,19.0000023 16.296875,18.53125 C15.7343722,18.0624977 15.3958339,17.7552091 15.28125,17.609375 C15.1562494,17.6197917 15.0468755,17.6276041 14.953125,17.6328125 C14.8593745,17.6380209 14.7604172,17.640625 14.65625,17.640625 L14.359375,17.640625 C13.8489558,17.640625 13.3671898,17.5963546 12.9140625,17.5078125 C12.4609352,17.4192704 12.0364603,17.2890634 11.640625,17.1171875 C11.2447897,16.9453116 10.8854183,16.7369804 10.5625,16.4921875 C10.2395817,16.2473946 9.95312625,15.9739598 9.703125,15.671875 C9.72395844,15.6510416 9.9973932,15.640625 10.5234375,15.640625 C11.0494818,15.640625 11.2552089,15.6458333 11.140625,15.65625 C11.5677105,15.989585 12.0416641,16.2369784 12.5625,16.3984375 C13.0833359,16.5598966 13.6822883,16.640625 14.359375,16.640625 L14.6640625,16.640625 C14.8671885,16.640625 15.0208328,16.6302084 15.125,16.609375 L15.65625,16.53125 L15.9453125,16.921875 C16.1380218,17.182293 16.4791642,17.4895816 16.96875,17.84375 C16.9270831,17.6874992 16.8958334,17.3802106 16.875,16.921875 L16.84375,16.234375 L17.328125,16 C17.921878,15.6979152 18.348957,15.3463562 18.609375,14.9453125 C18.869793,14.5442688 19,14.0729194 19,13.53125 C19,13.0937478 18.9244799,12.7135433 18.7734375,12.390625 C18.6223951,12.0677067 18.3333355,11.7552098 17.90625,11.453125 C17.9583336,11.2864575 18.0078123,11.1093759 18.0546875,10.921875 C18.1015627,10.7343741 18.1354166,10.5520842 18.15625,10.375 C18.8125033,10.7604186 19.2838527,11.2135391 19.5703125,11.734375 C19.8567723,12.2552109 20,12.8541633 20,13.53125 Z"/>
</svg>
