<?xml version="1.0" encoding="utf-8"?>
<!-- Generator: Adobe Illustrator 19.0.1, SVG Export Plug-In . SVG Version: 6.00 Build 0)  -->
<svg version="1.1" id="Capa_1" xmlns="http://www.w3.org/2000/svg" xmlns:xlink="http://www.w3.org/1999/xlink" x="0px" y="0px"
	 viewBox="56 -56 612 612" style="enable-background:new 56 -56 612 612;" xml:space="preserve">
<style type="text/css">
	.st0{fill:#F992A7;}
</style>
<path class="st0" d="M609.3,464.6H114.5c-12.4,0-22.5,9.8-22.5,21.9c0,12.1,10.1,21.9,22.5,21.9h494.8c12.4,0,22.5-9.8,22.5-21.9
	C631.8,474.4,621.7,464.6,609.3,464.6z"/>
<path class="st0" d="M659.1,117.1c-6.5-4.7-14.9-5.8-22.4-2.7L486.1,176L382.4-4.6c-7.9-13.9-31.4-13.9-39.3,0L239.5,176L88.8,114.4
	c-7.4-3.1-15.9-2-22.3,2.7c-6.4,4.7-9.7,12.5-8.7,20.2L92.2,397c1.4,10.9,11,19.1,22.3,19.1h496.6c11.3,0,20.9-8.2,22.3-19.1
	l34.4-259.7C668.8,129.6,665.5,121.9,659.1,117.1z"/>
</svg>
