<svg xmlns="http://www.w3.org/2000/svg" width="24" height="24" viewBox="0 0 24 24">
  <path fill="#F35E5E" d="M13.26,11 L2,11 C1.86396159,10.9945541 1.73158501,11.0448184 1.63344548,11.1391833 C1.53530595,11.2335482 1.47989104,11.3638527 1.48,11.5 C1.48,11.78 1.71,12 2,12 L13.27,12 C13.4043323,12.0026872 13.5340935,11.9511975 13.6300357,11.8571364 C13.725978,11.7630754 13.7800269,11.6343592 13.78,11.5 C13.78,11.2238576 13.5561424,11 13.28,11 L13.26,11 Z M14.4,3.08 C14.2516868,2.97347992 14.0589851,2.95080913 13.89,3.02 L10.45,4.42 L8.1,0.32 C7.92,-1.59317004e-14 7.39,-1.59317004e-14 7.2,0.32 L4.85,4.43 L1.4,3.02 C1.23411917,2.95258037 1.04522026,2.97524824 0.9,3.08 C0.755680729,3.18638459 0.679370343,3.36189848 0.7,3.54 L1.48,9.46 C1.5105117,9.71248253 1.72568716,9.90183694 1.98,9.9 L13.3,9.9 C13.5581088,9.90701838 13.7791109,9.7163499 13.81,9.46 L14.6,3.54 C14.6206297,3.36189848 14.5443193,3.18638459 14.4,3.08 L14.4,3.08 Z" transform="translate(5 6)"/>
</svg>
