<svg xmlns="http://www.w3.org/2000/svg" width="24" height="24" viewBox="0 0 24 24">
  <path fill="#9AA5AB" fill-rule="evenodd" d="M16,4 L20,8 L20,17 C20,17.2812514 19.9036468,17.5182282 19.7109375,17.7109375 C19.5182282,17.9036468 19.2812514,18 19,18 L15.5,18 L15.5,17 L19,17 L19,9 L15,9 L15,5 L9.5,5 C9.5,4.71874859 9.5963532,4.4817718 9.7890625,4.2890625 C9.9817718,4.0963532 10.2187486,4 10.5,4 L16,4 Z M16,8 L18.578125,8 L16,5.40625 L16,8 Z M5,6 L10.5,6 L14.5,10 L14.5,19 C14.5,19.2812514 14.4036468,19.5182282 14.2109375,19.7109375 C14.0182282,19.9036468 13.7812514,20 13.5,20 L5,20 C4.71874859,20 4.4817718,19.9036468 4.2890625,19.7109375 C4.0963532,19.5182282 4,19.2812514 4,19 L4,7 C4,6.71874859 4.0963532,6.4817718 4.2890625,6.2890625 C4.4817718,6.0963532 4.71874859,6 5,6 Z M13.5,19 L13.5,11 L9.5,11 L9.5,7 L5,7 L5,19 L13.5,19 Z M10.5,10 L13.078125,10 L10.5,7.40625 L10.5,10 Z"/>
</svg>
