<svg xmlns="http://www.w3.org/2000/svg" width="24" height="24" viewBox="0 0 24 24">
  <g fill="#1F8CEB" transform="translate(6 4)">
    <path d="M11.9979063,3.23840625 C11.9968438,3.14228125 11.9596563,3.04809375 11.889,2.97740625 L9.02134375,0.10971875 C9.02121875,0.10959375 9.021125,0.1095625 9.021,0.10946875 C8.95328125,0.0418125 8.85971875,0 8.7564375,0 L0.7899375,0 C0.35503125,0 0.00125,0.35375 0.00125,0.78865625 L0.00125,15.2113125 C0.00125,15.6461875 0.355,15.9999688 0.78990625,15.9999688 L11.2100313,15.9999688 C11.6449063,15.9999688 11.9986875,15.6462188 11.9986875,15.2113125 L11.9986875,3.24228125 C11.99875,3.24090625 11.9980313,3.23975 11.9979063,3.23840625 Z M9.1310625,1.27909375 L10.719625,2.86765625 L9.1705,2.86765625 C9.14878125,2.86765625 9.1310625,2.8499375 9.1310625,2.82821875 L9.1310625,1.27909375 Z M11.2494688,15.2113438 C11.2494688,15.2330625 11.2317813,15.25075 11.2100625,15.25075 L0.7899375,15.25075 C0.76821875,15.25075 0.75053125,15.2330625 0.75053125,15.2113438 L0.75053125,0.78865625 C0.75053125,0.7669375 0.76821875,0.74925 0.7899375,0.74925 L8.3818125,0.74925 L8.3818125,2.82821875 C8.3818125,3.26309375 8.735625,3.6169375 9.17053125,3.6169375 L11.2495,3.6169375 L11.2495,15.2113438 L11.2494688,15.2113438 Z"/>
    <path d="M9.31525 5.1254375L2.68475 5.1254375C2.477875 5.1254375 2.310125 5.29315625 2.310125 5.5000625 2.310125 5.7069375 2.477875 5.8746875 2.68475 5.8746875L9.31521875 5.8746875C9.52209375 5.8746875 9.68984375 5.7069375 9.68984375 5.5000625 9.689875 5.29315625 9.52209375 5.1254375 9.31525 5.1254375zM9.31525 7.38603125L2.68475 7.38603125C2.477875 7.38603125 2.310125 7.55378125 2.310125 7.76065625 2.310125 7.96753125 2.477875 8.13528125 2.68475 8.13528125L9.31521875 8.13528125C9.52209375 8.13528125 9.68984375 7.96753125 9.68984375 7.76065625 9.689875 7.55378125 9.52209375 7.38603125 9.31525 7.38603125zM9.31525 9.64659375L2.68475 9.64659375C2.477875 9.64659375 2.310125 9.81434375 2.310125 10.0212188 2.310125 10.228125 2.477875 10.3958438 2.68475 10.3958438L9.31521875 10.3958438C9.52209375 10.3958438 9.68984375 10.228125 9.68984375 10.0212188 9.689875 9.814375 9.52209375 9.64659375 9.31525 9.64659375zM6 11.9072187L2.68475 11.9072187C2.477875 11.9072187 2.310125 12.0749687 2.310125 12.2818437 2.310125 12.48875 2.477875 12.6564687 2.68475 12.6564687L6 12.6564687C6.206875 12.6564687 6.374625 12.48875 6.374625 12.2818437 6.374625 12.0749375 6.206875 11.9072187 6 11.9072187z"/>
  </g>
</svg>
