<svg xmlns="http://www.w3.org/2000/svg" width="24" height="24" viewBox="0 0 24 24">
  <path fill="#9AA5AB" d="M15.2214637,5.97564569 L18.9845835,3.21838695 L13.6332279,0.00395337995 L9.82677014,2.53941259 L6.02027505,0.00399067599 L0,3.18657343 L3.81205697,6.12072727 L0.637078585,9.04253613 L3.75871513,10.8633287 L3.75871513,12.129641 C3.75871513,12.2251189 3.82243418,12.3205967 3.91799411,12.3842611 L9.23220825,15.8511515 C9.25874853,15.8892308 9.29282908,15.9219767 9.33306876,15.9487552 C9.39678782,15.9805688 9.42862868,15.9805688 9.49234774,15.9805688 C9.53116896,15.9805688 9.55815717,15.9804569 9.58772102,15.9588625 C9.61388802,15.9471515 9.63643418,15.9320839 9.65158939,15.9169417 L15.066664,12.4160746 C15.162224,12.3842611 15.225943,12.2569324 15.225943,12.1614545 L15.225943,10.6485035 L18.3475796,8.66062471 L15.2214637,5.97564569 Z M9.48107466,8.91255944 L4.94746562,6.11923543 L9.80336542,3.28906294 L14.0514519,5.96975291 L9.48107466,8.91255944 Z M12.6139096,11.5568112 L10.0337917,9.32900699 L14.6525088,6.36919347 L17.2644676,8.62884848 L12.6139096,11.5568112 Z M13.6332279,0.76781352 L17.8378644,3.28205128 L14.727053,5.55099301 L14.7162279,5.54170629 L14.6347033,5.59418182 L10.3995324,2.94157576 L10.4160314,2.93195338 L10.4000923,2.92136131 L13.6332279,0.76781352 Z M5.95655599,0.76781352 L9.20559332,2.93199068 L4.33203733,5.732662 L1.14671906,3.3138648 L5.95655599,0.76781352 Z M4.36391552,6.49648485 L8.94955992,9.30868065 L6.43439293,11.652289 L4.23651473,10.3792634 C4.21979175,10.3681119 4.20187426,10.3596457 4.18350884,10.3524103 L1.72007859,8.91524476 L4.36391552,6.49648485 Z M4.39575639,11.2385268 L6.30695481,12.3524476 C6.33091945,12.3703869 6.35600393,12.3838508 6.38157367,12.3932121 L6.52995285,12.4797389 L7.49439882,11.5779953 L9.17378978,10.0291282 L9.17378978,15.0894545 L4.39579371,11.9704988 L4.39579371,11.2385268 L4.39575639,11.2385268 Z M12.7413104,12.2569697 L14.5887898,11.0794219 L14.5887898,12.0023869 L9.81079371,15.0894918 L9.81079371,9.99731469 L12.3590707,12.2251189 C12.3930766,12.2590956 12.4352574,12.2807646 12.4810963,12.2919907 L12.5501906,12.3524103 L12.6469077,12.2908345 C12.6793084,12.283338 12.711224,12.272 12.7413104,12.2569697 Z" transform="translate(3 4)"/>
</svg>
