<?xml version="1.0" encoding="utf-8"?>
<!-- Generator: Adobe Illustrator 19.0.1, SVG Export Plug-In . SVG Version: 6.00 Build 0)  -->
<svg version="1.1" id="Слой_1" xmlns="http://www.w3.org/2000/svg" xmlns:xlink="http://www.w3.org/1999/xlink" x="0px" y="0px"
	 viewBox="0 0 500 500" style="enable-background:new 0 0 500 500;" xml:space="preserve">
<path d="M247.7,322.4c-1.8,0-3.6-0.4-5.2-1.3L138.1,265c-0.4-0.2-0.8-0.5-1.1-0.7l-82.7-44.2c-3.6-1.9-5.9-5.8-5.9-9.9
	c0-4.2,2.3-8,5.9-9.9L242.5,99.7c3.2-1.7,7.1-1.7,10.3,0l188.2,100.6c3.6,1.9,5.9,5.7,5.9,9.9c0,4.1-2.3,8-5.9,9.9l-82.8,44.3
	c-0.3,0.2-0.6,0.4-0.9,0.6l-4,2.2l-100.5,53.9C251.3,321.9,249.5,322.4,247.7,322.4z M149.7,245.9l3.9,2.2l94.1,50.5l98.1-52.7
	c0.4-0.3,0.8-0.5,1.1-0.7l65.2-34.9l-164.5-87.9L83.2,210.2l65.2,34.9C148.9,245.3,149.3,245.6,149.7,245.9z"/>
<path d="M247.7,412c-1.8,0-3.6-0.4-5.2-1.3l-110.6-59.3c-3.7-1.9-6-5.8-6-10v-89.8c0-3.9,2-7.6,5.4-9.6c3.3-2,7.5-2.1,10.9-0.3
	l6.2,3.4c0.4,0.2,0.9,0.5,1.2,0.8l3.9,2.2l94.1,50.5l98.1-52.7c0.4-0.3,0.8-0.5,1.1-0.7l6.2-3.4c3.4-1.9,7.6-1.8,10.9,0.3
	c3.3,2,5.4,5.7,5.4,9.6v89.8c0,4.2-2.3,8-6,10l-10.1,5.4l-100.5,53.9C251.3,411.5,249.5,412,247.7,412z M148.1,334.6l5.5,3
	l94.1,50.5l99.6-53.5v-64.2l-94.5,50.6c-3.2,1.7-7.1,1.7-10.4,0l-94.4-50.6V334.6z"/>
<path d="M424.8,371.5c-2.8,0-5.7-1.1-7.8-3.3l-15.7-15.8c-4.3-4.4-4.3-11.5,0-15.8l15.7-15.8c4.3-4.4,11.3-4.4,15.7,0l15.7,15.8
	c4.3,4.4,4.3,11.5,0,15.8l-15.7,15.8C430.5,370.4,427.7,371.5,424.8,371.5z"/>
<path d="M424.8,333.4c-6.1,0-11.1-5-11.1-11.2v-112c0-6.2,4.9-11.2,11.1-11.2s11.1,5,11.1,11.2v112
	C435.9,328.4,430.9,333.4,424.8,333.4z"/>
</svg>
