<svg xmlns="http://www.w3.org/2000/svg" width="24" height="24" viewBox="0 0 24 24">
  <path fill="#556066" fill-rule="evenodd" d="M16.203125,13.484375 C16.3281256,13.5468753 16.4166664,13.6406244 16.46875,13.765625 C16.5208336,13.8906256 16.5156253,14.0156244 16.453125,14.140625 C16.4427083,14.1718752 16.3541675,14.3385402 16.1875,14.640625 C16.0208325,14.9427098 15.7578143,15.2682274 15.3984375,15.6171875 C15.0390607,15.9661476 14.5781278,16.2864569 14.015625,16.578125 C13.4531222,16.8697931 12.7708373,17.015625 11.96875,17.015625 C11.9583333,17.015625 11.9479167,17.0182291 11.9375,17.0234375 C11.9270833,17.0286459 11.9166667,17.03125 11.90625,17.03125 C11.1458295,17.03125 10.4921902,16.8854181 9.9453125,16.59375 C9.39843477,16.3020819 8.94791844,15.9817726 8.59375,15.6328125 C8.23958156,15.2838524 7.97656336,14.9557307 7.8046875,14.6484375 C7.63281164,14.3411443 7.54166672,14.1770834 7.53125,14.15625 C7.46874969,14.0208327 7.46093727,13.8906256 7.5078125,13.765625 C7.55468773,13.6406244 7.64583266,13.5468753 7.78125,13.484375 C7.90625063,13.4322914 8.03124937,13.4296873 8.15625,13.4765625 C8.28125063,13.5234377 8.37499969,13.6093744 8.4375,13.734375 C8.44791672,13.7552084 8.5234368,13.8880196 8.6640625,14.1328125 C8.8046882,14.3776054 9.01562359,14.6380195 9.296875,14.9140625 C9.57812641,15.1901055 9.93489367,15.4453113 10.3671875,15.6796875 C10.7994813,15.9140637 11.3177053,16.03125 11.921875,16.03125 L11.9375,16.0234375 C11.9479167,16.0182291 11.9583333,16.015625 11.96875,16.015625 C12.6041698,16.015625 13.1484352,15.8958345 13.6015625,15.65625 C14.0546898,15.4166655 14.4244777,15.1562514 14.7109375,14.875 C14.9973973,14.5937486 15.2083327,14.3359387 15.34375,14.1015625 C15.4791673,13.8671863 15.546875,13.7447917 15.546875,13.734375 C15.5989586,13.6093744 15.6901035,13.5234377 15.8203125,13.4765625 C15.9505215,13.4296873 16.0781244,13.4322914 16.203125,13.484375 Z M12,4 C13.1041722,4 14.1432243,4.20833125 15.1171875,4.625 C16.0911507,5.04166875 16.9401005,5.61197555 17.6640625,6.3359375 C18.3880245,7.05989945 18.9583313,7.9088493 19.375,8.8828125 C19.7916687,9.8567757 20,10.8958278 20,12 C20,13.1041722 19.7916687,14.1432243 19.375,15.1171875 C18.9583313,16.0911507 18.3880245,16.9401005 17.6640625,17.6640625 C16.9401005,18.3880245 16.0911507,18.9583313 15.1171875,19.375 C14.1432243,19.7916687 13.1041722,20 12,20 C10.8958278,20 9.8567757,19.7916687 8.8828125,19.375 C7.9088493,18.9583313 7.05989945,18.3880245 6.3359375,17.6640625 C5.61197555,16.9401005 5.04166875,16.0911507 4.625,15.1171875 C4.20833125,14.1432243 4,13.1041722 4,12 C4,10.8958278 4.20833125,9.8567757 4.625,8.8828125 C5.04166875,7.9088493 5.61197555,7.05989945 6.3359375,6.3359375 C7.05989945,5.61197555 7.9088493,5.04166875 8.8828125,4.625 C9.8567757,4.20833125 10.8958278,4 12,4 Z M12,19 C12.9687548,19 13.8775999,18.815106 14.7265625,18.4453125 C15.5755251,18.075519 16.315101,17.575524 16.9453125,16.9453125 C17.575524,16.315101 18.075519,15.5755251 18.4453125,14.7265625 C18.815106,13.8775999 19,12.9687548 19,12 C19,11.0312452 18.815106,10.1224001 18.4453125,9.2734375 C18.075519,8.42447492 17.575524,7.68489898 16.9453125,7.0546875 C16.315101,6.42447602 15.5755251,5.92448102 14.7265625,5.5546875 C13.8775999,5.18489398 12.9687548,5 12,5 C11.0312452,5 10.1224001,5.18489398 9.2734375,5.5546875 C8.42447492,5.92448102 7.68489898,6.42447602 7.0546875,7.0546875 C6.42447602,7.68489898 5.92448102,8.42447492 5.5546875,9.2734375 C5.18489398,10.1224001 5,11.0312452 5,12 C5,12.9687548 5.18489398,13.8775999 5.5546875,14.7265625 C5.92448102,15.5755251 6.42447602,16.315101 7.0546875,16.9453125 C7.68489898,17.575524 8.42447492,18.075519 9.2734375,18.4453125 C10.1224001,18.815106 11.0312452,19 12,19 Z M9.5,11.5 C9.21874859,11.5 8.9817718,11.4010427 8.7890625,11.203125 C8.5963532,11.0052073 8.5,10.7708347 8.5,10.5 C8.5,10.2291653 8.5963532,9.99479266 8.7890625,9.796875 C8.9817718,9.59895734 9.21874859,9.5 9.5,9.5 C9.77083469,9.5 10.0026032,9.59895734 10.1953125,9.796875 C10.3880218,9.99479266 10.484375,10.2291653 10.484375,10.5 C10.484375,10.7708347 10.3880218,11.0052073 10.1953125,11.203125 C10.0026032,11.4010427 9.77083469,11.5 9.5,11.5 Z M14.5,11.5 C14.2187486,11.5 13.9817718,11.4010427 13.7890625,11.203125 C13.5963532,11.0052073 13.5,10.7708347 13.5,10.5 C13.5,10.2291653 13.5963532,9.99479266 13.7890625,9.796875 C13.9817718,9.59895734 14.2187486,9.5 14.5,9.5 C14.7708347,9.5 15.0026032,9.59895734 15.1953125,9.796875 C15.3880218,9.99479266 15.484375,10.2291653 15.484375,10.5 C15.484375,10.7708347 15.3880218,11.0052073 15.1953125,11.203125 C15.0026032,11.4010427 14.7708347,11.5 14.5,11.5 Z"/>
</svg>
