<svg xmlns="http://www.w3.org/2000/svg" width="24" height="24" viewBox="0 0 24 24">
  <path fill="#9AA5AB" d="M9.8501963,5.20617544 L12.0965,5.20617544 C12.5777407,5.20617544 12.9693296,4.82573099 12.9693296,4.35808187 L12.9693296,0.850853801 C12.9693296,0.383204678 12.5777889,0.00276023392 12.0965,0.00276023392 L9.01188889,0.00276023392 C8.98232593,0.00154385965 8.93095185,0 8.85897037,0 C8.27695556,0 6.25304815,0.111578947 4.64735556,1.5468538 C2.89471481,3.11377778 3.06241481,4.98811696 3.13617778,5.45024561 L3.13617778,7.73515789 L0.9035,7.73515789 C0.422259259,7.73515789 0.0306703704,8.11560234 0.0306703704,8.58325146 L0.0306703704,12.3553684 C0.0306703704,12.8230643 0.422211111,13.2035556 0.9035,13.2035556 L3.0069963,13.2035556 L3.0069963,23.1051696 C3.0069963,23.5727719 3.39853704,23.9532632 3.87982593,23.9532632 L8.27902593,23.9532632 C8.76026667,23.9532632 9.15185556,23.5727719 9.15185556,23.1051696 L9.15185556,13.2524444 L11.6434741,13.2524444 C12.0871111,13.2524444 12.4598741,12.9294971 12.5105741,12.5012865 L12.9636,8.68037427 C12.9920556,8.44032749 12.9135259,8.19920468 12.7480407,8.0188538 C12.5825556,7.83859649 12.345137,7.73520468 12.0965963,7.73520468 L9.15204815,7.73520468 L9.15204815,5.81721637 C9.15195185,5.42091228 9.26322222,5.20617544 9.8501963,5.20617544 Z M8.66093704,8.68954386 L11.9738667,8.68954386 L11.5460222,12.298152 L8.66079259,12.298152 C8.38962222,12.298152 8.16972963,12.5117661 8.16972963,12.7752982 L8.16972963,22.998924 L3.98907407,22.998924 L3.98907407,12.7263626 C3.98907407,12.4628304 3.76918148,12.2492164 3.49801111,12.2492164 L1.01274815,12.2492164 L1.01274815,8.68945029 L3.62724074,8.68945029 C3.89841111,8.68945029 4.1183037,8.47583626 4.1183037,8.21230409 L4.1183037,5.41146199 C4.1183037,5.38409357 4.1158963,5.35672515 4.11108148,5.32973099 C4.05932222,5.04084211 3.87428889,3.53487719 5.31237778,2.24916959 C6.65643333,1.0477193 8.36684815,0.954339181 8.85901852,0.954339181 C8.92801481,0.954339181 8.96908519,0.956116959 8.9765963,0.956491228 C8.98468519,0.956865497 8.99277407,0.957052632 9.00086296,0.957052632 L11.9873,0.957052632 L11.9873,4.25192982 L9.85024444,4.25192982 C8.79801481,4.25192982 8.16982593,4.83709942 8.16982593,5.81721637 L8.16982593,8.21235088 C8.16982593,8.47592982 8.38976667,8.68954386 8.66093704,8.68954386 Z" transform="translate(6)"/>
</svg>
