<?xml version="1.0" encoding="utf-8"?>
<!-- Generator: Adobe Illustrator 19.0.1, SVG Export Plug-In . SVG Version: 6.00 Build 0)  -->
<svg version="1.1" id="Capa_1" xmlns="http://www.w3.org/2000/svg" xmlns:xlink="http://www.w3.org/1999/xlink" x="0px" y="0px"
	 viewBox="56 -56 612 612" style="enable-background:new 56 -56 612 612;" xml:space="preserve">
<style type="text/css">
	.st0{fill:#D8E2E9;}
</style>
<path class="st0" d="M566-56H158C101.7-56,56-10.3,56,46v408c0,56.3,45.7,102,102,102h223.1V326.5h-76.5v-95.6h76.5v-57.4
	c0-78.8,44.5-133.9,114.7-133.9c33.7,0,57.4,0,76.5,0v95.6h-38.3c-31.7,0-57.4,25.7-57.4,57.4v38.3h95.6l-19.1,95.6h-76.5V556H566
	c56.3,0,102-45.7,102-102V46C668-10.3,622.3-56,566-56z"/>
</svg>
