<svg xmlns="http://www.w3.org/2000/svg" width="24" height="24" viewBox="0 0 24 24">
  <path fill="#556066" d="M15.9536752,0.282842675 C15.87363,0.110151472 15.7027422,0 15.5150435,0 L0.484925989,0 C0.297227327,0 0.126404086,0.110151472 0.046294323,0.282842675 C-0.0337507836,0.455533878 -0.00866394888,0.659659352 0.110757143,0.806966396 L5.88855259,7.9345229 L5.88855259,14.5067845 C5.88855259,14.677437 5.97525735,14.8359236 6.11776091,14.9258861 C6.19586632,14.9751419 6.28451078,15 6.37347852,15 C6.44699329,15 6.52076669,14.9829676 6.58878563,14.9487056 L9.83507376,13.3122164 C10.0000132,13.2290931 10.1043693,13.0581775 10.1046279,12.8709529 L10.1109643,7.93472018 L15.889083,0.806900634 C16.0085688,0.659659352 16.0337203,0.455468116 15.9536752,0.282842675 Z M9.2521928,7.44360902 C9.18074704,7.5317302 9.14156503,7.64240777 9.14143572,7.75670225 L9.13522866,12.5641071 L6.8584691,13.7118525 L6.8584691,7.75735987 C6.8584691,7.6428681 6.81935175,7.53192749 6.74771202,7.44360902 L1.51322758,0.98636533 L14.4866772,0.98636533 L9.2521928,7.44360902 Z" transform="translate(4 5)"/>
</svg>
