<svg xmlns="http://www.w3.org/2000/svg" width="24" height="24" viewBox="0 0 24 24">
  <path fill="#9AA5AB" fill-rule="evenodd" d="M16.484375,10 C16.484375,10.3020848 16.4531253,10.6510397 16.390625,11.046875 C16.3281247,11.4427103 16.2239591,11.8463521 16.078125,12.2578125 C15.9322909,12.6692729 15.7421887,13.0651023 15.5078125,13.4453125 C15.2734363,13.8255227 14.9791684,14.1510403 14.625,14.421875 L14.9375,14.65625 L14.5,15.46875 L14.21875,15.34375 C14.0624992,15.270833 13.9322922,15.1640632 13.828125,15.0234375 C13.7239578,14.8828118 13.6614584,14.7239592 13.640625,14.546875 C13.6197916,14.3697908 13.6432288,14.2031258 13.7109375,14.046875 C13.7786462,13.8906242 13.8802077,13.7552089 14.015625,13.640625 C14.5468777,13.2239563 14.924478,12.6328163 15.1484375,11.8671875 C15.372397,11.1015587 15.484375,10.4791691 15.484375,10 L15.484375,7.5 C15.484375,7.22916531 15.3828135,6.94791813 15.1796875,6.65625 C14.9765615,6.36458188 14.708335,6.09635539 14.375,5.8515625 C14.041665,5.60676961 13.6666687,5.40364664 13.25,5.2421875 C12.8333313,5.08072836 12.4114605,5 11.984375,5 C11.5677063,5 11.1510437,5.08072836 10.734375,5.2421875 C10.3177063,5.40364664 9.94271,5.60937375 9.609375,5.859375 C9.27604,6.10937625 9.00520937,6.38020687 8.796875,6.671875 C8.58854063,6.96354313 8.484375,7.23958203 8.484375,7.5 L8.484375,10 C8.484375,10.4895858 8.60937375,11.1145795 8.859375,11.875 C9.10937625,12.6354205 9.49478906,13.2239563 10.015625,13.640625 C10.1510423,13.7447922 10.2499997,13.8776034 10.3125,14.0390625 C10.3750003,14.2005216 10.3958334,14.3697908 10.375,14.546875 C10.3541666,14.7135425 10.2916672,14.8671868 10.1875,15.0078125 C10.0833328,15.1484382 9.95312578,15.255208 9.796875,15.328125 L5.40625,17.40625 C5.34374969,17.4270834 5.25781305,17.4791662 5.1484375,17.5625 C5.03906195,17.6458338 4.984375,17.7864573 4.984375,17.984375 L4.984375,19 L14.484375,19 L14.484375,20 L4.984375,20 C4.71354031,20 4.47916766,19.9010427 4.28125,19.703125 C4.08333234,19.5052073 3.984375,19.2708347 3.984375,19 L3.984375,17.5 C3.984375,17.2187486 4.15104,16.9817718 4.484375,16.7890625 L4.984375,16.5 L9.375,14.421875 C9.03124828,14.1406236 8.73958453,13.8020853 8.5,13.40625 C8.26041547,13.0104147 8.06510492,12.6067729 7.9140625,12.1953125 C7.76302008,11.7838521 7.65364617,11.3828145 7.5859375,10.9921875 C7.51822883,10.6015605 7.484375,10.2708347 7.484375,10 L7.484375,7.5 C7.484375,7.08333125 7.61458203,6.66666875 7.875,6.25 C8.13541797,5.83333125 8.47916453,5.458335 8.90625,5.125 C9.33333547,4.791665 9.81510148,4.52083437 10.3515625,4.3125 C10.8880235,4.10416563 11.4322889,4 11.984375,4 C12.5364611,4 13.0807265,4.10416563 13.6171875,4.3125 C14.1536485,4.52083437 14.6354145,4.791665 15.0625,5.125 C15.4895855,5.458335 15.833332,5.83333125 16.09375,6.25 C16.354168,6.66666875 16.484375,7.08333125 16.484375,7.5 L16.484375,10 Z M18.453125,17.734375 L19.859375,19.140625 C19.9531255,19.2447922 20,19.3645827 20,19.5 C20,19.6354173 19.9531255,19.7552078 19.859375,19.859375 C19.7656245,19.9531255 19.6484382,20 19.5078125,20 C19.3671868,20 19.2500005,19.9531255 19.15625,19.859375 L17.734375,18.4375 L16.328125,19.859375 C16.2343745,19.9531255 16.1171882,20 15.9765625,20 C15.8359368,20 15.7187505,19.9531255 15.625,19.859375 C15.5208328,19.7552078 15.46875,19.6354173 15.46875,19.5 C15.46875,19.3645827 15.5208328,19.2447922 15.625,19.140625 L17.03125,17.734375 L15.625,16.3125 C15.5208328,16.2187495 15.46875,16.1015632 15.46875,15.9609375 C15.46875,15.8203118 15.5208328,15.7031255 15.625,15.609375 C15.7187505,15.5156245 15.8359368,15.46875 15.9765625,15.46875 C16.1171882,15.46875 16.2343745,15.5156245 16.328125,15.609375 L17.734375,17.03125 L19.15625,15.609375 C19.2500005,15.5156245 19.3671868,15.46875 19.5078125,15.46875 C19.6484382,15.46875 19.7656245,15.5156245 19.859375,15.609375 C19.9531255,15.7031255 20,15.8203118 20,15.9609375 C20,16.1015632 19.9531255,16.2187495 19.859375,16.3125 L18.453125,17.734375 Z"/>
</svg>
