<svg xmlns="http://www.w3.org/2000/svg" width="24" height="24" viewBox="0 0 24 24">
  <path fill="#F35E5E" fill-rule="evenodd" d="M12,4 C12.8958378,4 13.7369752,4.18228984 14.5234375,4.546875 C15.3098998,4.91146016 15.9973929,5.40885102 16.5859375,6.0390625 C17.1744821,6.66927398 17.6406233,7.40624578 17.984375,8.25 C18.3281267,9.09375422 18.5,9.99478688 18.5,10.953125 L18.5,19.5 C18.5,19.6041672 18.4687503,19.6979162 18.40625,19.78125 C18.3437497,19.8645838 18.2656255,19.9270831 18.171875,19.96875 C18.0781245,20.0104169 17.9791672,20.0182293 17.875,19.9921875 C17.7708328,19.9661457 17.6875003,19.9114588 17.625,19.828125 L15.78125,17.765625 L14.28125,19.796875 C14.2395831,19.8593753 14.182292,19.908854 14.109375,19.9453125 C14.036458,19.981771 13.9583337,20 13.875,20 C13.802083,20 13.729167,19.981771 13.65625,19.9453125 C13.583333,19.908854 13.5260419,19.8593753 13.484375,19.796875 L12.015625,17.8125 L10.546875,19.796875 C10.4947914,19.8593753 10.4348962,19.908854 10.3671875,19.9453125 C10.2994788,19.981771 10.2239588,20 10.140625,20 C10.0572913,20 9.98177117,19.981771 9.9140625,19.9453125 C9.84635383,19.908854 9.78645859,19.8593753 9.734375,19.796875 L8.265625,17.75 L6.375,19.84375 C6.32291641,19.8958336 6.26562531,19.9348957 6.203125,19.9609375 C6.14062469,19.9869793 6.07291703,20 6,20 C5.96874984,20 5.9401043,19.9973959 5.9140625,19.9921875 C5.8880207,19.9869791 5.85937516,19.9791667 5.828125,19.96875 C5.73437453,19.9270831 5.65625031,19.8645838 5.59375,19.78125 C5.53124969,19.6979162 5.5,19.6041672 5.5,19.5 L5.5,10.953125 C5.5,9.99478688 5.67187328,9.09375422 6.015625,8.25 C6.35937672,7.40624578 6.82551789,6.66927398 7.4140625,6.0390625 C8.00260711,5.40885102 8.69010023,4.91146016 9.4765625,4.546875 C10.2630248,4.18228984 11.1041622,4 12,4 Z M17.5,18.1875 L17.5,10.953125 C17.5,10.1406209 17.3541681,9.37239945 17.0625,8.6484375 C16.7708319,7.92447555 16.3776066,7.29166938 15.8828125,6.75 C15.3880184,6.20833062 14.807295,5.78125156 14.140625,5.46875 C13.473955,5.15624844 12.7604205,5 12,5 C11.2395795,5 10.526045,5.15624844 9.859375,5.46875 C9.192705,5.78125156 8.61198164,6.20833062 8.1171875,6.75 C7.62239336,7.29166938 7.22916813,7.92447555 6.9375,8.6484375 C6.64583187,9.37239945 6.5,10.1406209 6.5,10.953125 L6.5,18.203125 L7.9375,16.625 C7.97916687,16.5729164 8.03385383,16.5338543 8.1015625,16.5078125 C8.16927117,16.4817707 8.23437469,16.46875 8.296875,16.46875 L8.328125,16.46875 C8.40104203,16.46875 8.47135383,16.486979 8.5390625,16.5234375 C8.60677117,16.559896 8.66145812,16.6093747 8.703125,16.671875 L10.140625,18.65625 L11.625,16.671875 C11.6666669,16.6093747 11.723958,16.559896 11.796875,16.5234375 C11.869792,16.486979 11.9479163,16.46875 12.03125,16.46875 C12.104167,16.46875 12.177083,16.486979 12.25,16.5234375 C12.322917,16.559896 12.3802081,16.6093747 12.421875,16.671875 L13.875,18.65625 L15.34375,16.671875 C15.3854169,16.6093747 15.4401038,16.559896 15.5078125,16.5234375 C15.5755212,16.486979 15.645833,16.46875 15.71875,16.46875 C15.791667,16.46875 15.8619788,16.4817707 15.9296875,16.5078125 C15.9973962,16.5338543 16.0572914,16.5781247 16.109375,16.640625 L17.5,18.1875 Z M14.5,9.5 C14.7708347,9.5 15.0052073,9.59895734 15.203125,9.796875 C15.4010427,9.99479266 15.5,10.2291653 15.5,10.5 C15.5,10.7708347 15.4010427,11.0052073 15.203125,11.203125 C15.0052073,11.4010427 14.7708347,11.5 14.5,11.5 C14.2291653,11.5 13.9947927,11.4010427 13.796875,11.203125 C13.5989573,11.0052073 13.5,10.7708347 13.5,10.5 C13.5,10.2291653 13.5989573,9.99479266 13.796875,9.796875 C13.9947927,9.59895734 14.2291653,9.5 14.5,9.5 Z M9.5,9.5 C9.77083469,9.5 10.0052073,9.59895734 10.203125,9.796875 C10.4010427,9.99479266 10.5,10.2291653 10.5,10.5 C10.5,10.7708347 10.4010427,11.0052073 10.203125,11.203125 C10.0052073,11.4010427 9.77083469,11.5 9.5,11.5 C9.22916531,11.5 8.99479266,11.4010427 8.796875,11.203125 C8.59895734,11.0052073 8.5,10.7708347 8.5,10.5 C8.5,10.2291653 8.59895734,9.99479266 8.796875,9.796875 C8.99479266,9.59895734 9.22916531,9.5 9.5,9.5 Z"/>
</svg>
