<?xml version="1.0" encoding="utf-8"?>
<!-- Generator: Adobe Illustrator 19.0.1, SVG Export Plug-In . SVG Version: 6.00 Build 0)  -->
<svg version="1.1" id="Capa_1" xmlns="http://www.w3.org/2000/svg" xmlns:xlink="http://www.w3.org/1999/xlink" x="0px" y="0px"
	 viewBox="56 -56 612 612" style="enable-background:new 56 -56 612 612;" xml:space="preserve">
<style type="text/css">
	.st0{fill:#7BBAFC;}
</style>
<path class="st0" d="M655.2,157.3c-3-0.6-74.8-14.8-143.4-14.8c-41.7,0-80.2,11.8-105.1,21.7c-14.3,5.7-29.1,8.6-44,8.6h-2.4
	c-14.9,0-29.7-2.9-44-8.6c-24.9-9.9-63.3-21.7-105.1-21.7c-68.6,0-140.4,14.2-143.4,14.8c-6.9,1.4-11.8,7.2-11.8,14v56
	c0,5.4,3.1,10.1,7.7,12.5c0.9,0.9,2.8,3.1,6,7.9c1.3,1.9,2.8,9.4,4,14.9c3.9,18.4,9.7,46.3,33.3,71c36.4,38.1,85.8,38.1,138.1,38.1
	c49.1,0,84.7-32.7,102.9-94.4c2.9-9.8,4.9-21.1,5.9-33.8c0.3-3.8,3.5-6.6,7.4-6.6h0.4c3.9,0,7.1,2.8,7.4,6.6
	c1.1,12.7,3,24.1,5.9,33.8c18.2,61.8,53.7,94.4,102.9,94.4c52.3,0,101.8,0,138.1-38.1c23.7-24.8,29.5-52.6,33.3-71
	c1.1-5.5,2.7-13,4-14.9c3.2-4.7,5.1-7,6-7.9c4.6-2.4,7.7-7.1,7.7-12.5v-56C667,164.5,662.1,158.7,655.2,157.3z"/>
</svg>
