<svg xmlns="http://www.w3.org/2000/svg" width="24" height="24" viewBox="0 0 24 24">
  <path fill="#9AA5AB" d="M17.9391579,10.6211327 L11.8493684,0.176849558 C11.7884561,0.0847079646 11.6971228,0.0232566372 11.5753333,0.0232566372 L6.09452632,0.0232566372 C5.97273684,0.0232566372 5.88136842,0.0847079646 5.82049123,0.146123894 L0.0351578947,9.9760354 C0.00470175439,10.068177 -0.025754386,10.1910796 0.0351578947,10.2832212 L2.73245614,15.7255221 C2.7377193,15.7670088 2.75192982,15.807469 2.77557895,15.8432566 C2.79982456,15.8799292 2.83382456,15.9114336 2.87161404,15.9364248 C2.92119298,15.9762478 2.98031579,15.9968496 3.04964912,15.9968496 L14.9247719,15.9968496 C15.0465614,15.9968496 15.1379298,15.9353982 15.198807,15.8432566 L17.9392281,10.9283186 C18.0000702,10.8361416 18.0000702,10.7132743 17.9391579,10.6211327 Z M17.1475088,10.4675398 L12.0625263,10.4675398 L8.93810526,4.83256637 C8.93217544,4.79500885 8.91817544,4.75702655 8.89582456,4.72318584 L6.62470175,0.637628319 L11.3926316,0.637628319 L17.1475088,10.4675398 Z M11.3505614,10.4675398 L6.08607018,10.4675398 L8.61957895,5.53727434 L11.3505614,10.4675398 Z M6.08480702,0.961238938 L7.32157895,3.1940177 L8.25638596,4.90750442 L5.33326316,10.5813097 C5.32249123,10.5938761 5.31217544,10.6070088 5.30284211,10.6211327 L3.04691228,15.0083894 L0.644140351,10.160354 L6.08480702,0.961238938 Z M14.7420351,15.3824779 L3.56042105,15.3824779 L5.77035088,11.0818761 L11.8798246,11.0818761 L17.1475088,11.0818761 L14.7420351,15.3824779 Z" transform="translate(3 4)"/>
</svg>
