<svg xmlns="http://www.w3.org/2000/svg" width="48" height="48" viewBox="0 0 48 48">
  <path fill="#F35E5E" d="M45.6156016,19.8903828 C45.5375703,19.4794297 45.1783516,19.1820859 44.7600938,19.1820859 L24.4644062,19.1820859 C23.9835,19.1820859 23.5936875,19.5718984 23.5936875,20.0528047 L23.5936875,28.4116016 C23.5936875,28.8925078 23.9835,29.2823203 24.4644062,29.2823203 L34.4303203,29.2823203 C33.4203828,31.2716875 31.8466094,32.9518516 29.9039062,34.0912109 C28.1225078,35.1368984 26.0809766,35.6895625 24,35.6895625 C19.1516641,35.6895625 14.7518359,32.6405859 13.0512188,28.101625 C12.5596562,26.7942578 12.3104375,25.4142734 12.3104375,23.9999141 C12.3104375,22.6993359 12.5227891,21.4210156 12.9412188,20.2009609 C14.5629453,15.4813594 19.0072031,12.3103516 24.0000859,12.3103516 C26.1938984,12.3103516 28.3311641,12.9213672 30.1803672,14.0773125 C30.4969609,14.2752266 30.9045625,14.2492734 31.1933984,14.0126875 L38.0383203,8.40878906 C38.2395,8.24404688 38.3565469,7.99800781 38.3574922,7.73813281 C38.3584375,7.47808594 38.2430234,7.23135938 38.0429609,7.06524219 C34.109,3.79892969 29.1217891,2 24,2 C11.8691484,2 2,11.8691484 2,24 C2,27.6390234 2.9068125,31.2444453 4.62246875,34.4264531 C8.47169531,41.5652812 15.8967813,46 24,46 C29.0706563,46 34.0191094,44.2334688 37.9338203,41.0260234 C41.7943047,37.8629219 44.4881875,33.4471953 45.51875,28.5928437 C45.8380078,27.0933203 46,25.5479922 46,23.9999141 C46,22.6169219 45.8706641,21.2342734 45.6156016,19.8903828 Z M23.8015178,4 C28.1994644,4 32.4903786,5.44002867 36,8.0751142 L30.4187175,12.6829962 C28.4046025,11.5430864 26.1303166,10.9434604 23.8015178,10.9434604 C18.4339534,10.9434604 13.6156773,14.1343864 11.4468637,19 L6,14.5031113 C9.5084947,8.23898224 16.1729273,4 23.8015178,4 Z M4,24.3454217 C4,21.3720681 4.60282921,18.546329 5.68450834,16 L10.9028292,20.5622946 C10.5668775,21.7874865 10.3960437,23.0570401 10.3960437,24.3454217 C10.3960437,25.7579474 10.5993214,27.1415004 11,28.466936 L5.81444508,33 C4.62609546,30.3110429 4,27.3413861 4,24.3454217 Z M24.305027,44 C17.1599504,44 10.5937058,40.2906118 7,34.2735597 L12.3279914,30 C13.3059445,31.9979652 14.7836705,33.7148025 16.6540569,35.0079906 C18.9006118,36.5612323 21.5462879,37.3822922 24.304942,37.3822922 C26.466232,37.3822922 28.5903728,36.8660998 30.4867722,35.8879415 L36,40.3104365 C32.6095528,42.697316 28.5034927,44 24.305027,44 Z M43.5551998,28.1389791 C42.6379882,32.3425221 40.2947411,36.1800907 36.9359173,39 L31.5071117,34.675473 C33.6744233,33.1628792 35.3512897,31.0478003 36.2885195,28.6140994 C36.3891281,28.352905 36.3516803,28.0602261 36.1884287,27.8310198 C36.0250908,27.6018135 35.7565713,27.4650453 35.4699319,27.4650453 L25,27.4650453 L25,21 L43.766426,21 C43.9215668,21.9890294 44,22.9970335 44,24.0056252 C44,25.3993339 43.8503815,26.7898522 43.5551998,28.1389791 Z"/>
</svg>
