<svg xmlns="http://www.w3.org/2000/svg" width="24" height="24" viewBox="0 0 24 24">
  <path fill="#556066" fill-rule="evenodd" d="M17,8.08535285 L17,4.72222222 L15,5.66666667 L15,11 L9,14 L3,11 L3,5.66666667 L0,4.25 L9,0 L17.4705882,4 L18,4 L18,8.08535285 C18.5825962,8.29127106 19,8.84689059 19,9.5 C19,10.3284271 18.3284271,11 17.5,11 C16.6715729,11 16,10.3284271 16,9.5 C16,8.84689059 16.4174038,8.29127106 17,8.08535285 Z M14,6.13888889 L9,8.5 L4,6.13888889 L4,10.6666667 L9,13 L14,10.6666667 L14,6.13888889 Z M8.91176471,1 L2,4.26388889 L8.91176471,7.52777778 L15.8235294,4.26388889 L8.91176471,1 Z" transform="translate(3 5)"/>
</svg>
