<svg xmlns="http://www.w3.org/2000/svg" width="24" height="24" viewBox="0 0 24 24">
  <path fill="#E4E5E9" d="M7.99987055,14.3157895 L1.26494029,7.48793092 C-0.424157079,5.77552745 -0.419809617,2.99476543 1.26696883,1.28471288 C2.95718653,-0.428826375 5.69940853,-0.426963366 7.38576004,1.28265635 L7.99987055,1.90524034 L8.61398107,1.28265635 C10.3030784,-0.429747115 13.0459938,-0.425339667 14.7327723,1.28471288 C16.42299,2.99825214 16.4211523,5.7783112 14.7348008,7.48793092 L7.99987055,14.3157895 Z M8.00009681,13 L14,7 C15.4755576,5.50408275 15.4789405,3.49934685 14,2 C12.5240689,0.50370402 10.4779602,0.501646968 9,2 L7.99988673,3 L7,2 C5.52444243,0.504082749 3.47894049,0.500653151 2,2 C0.524068858,3.49629598 0.522039803,5.50164697 2,7 L8.00009681,13 Z" transform="translate(4 5)"/>
</svg>
