<?xml version="1.0" encoding="utf-8"?>
<!-- Generator: Adobe Illustrator 19.0.1, SVG Export Plug-In . SVG Version: 6.00 Build 0)  -->
<svg version="1.1" id="Capa_1" xmlns="http://www.w3.org/2000/svg" xmlns:xlink="http://www.w3.org/1999/xlink" x="0px" y="0px"
	 viewBox="-112 236.4 369.5 369.5" style="enable-background:new -112 236.4 369.5 369.5;" xml:space="preserve">
<style type="text/css">
	.st0{fill:#F15F5E;stroke:#F35E5E;stroke-miterlimit:10;}
</style>
<g>
	<g>
		<path class="st0" d="M72.9,585.1c-3.4,0-6.6-1.4-8.9-3.9L-78.7,427.4c0,0-0.1-0.1-0.1-0.1c-17.3-19.2-26.9-44.6-26.9-71.6
			c0-27,9.5-52.4,26.9-71.6l2.2-2.4c17.6-19.5,41.2-30.3,66.3-30.3s48.7,10.8,66.3,30.3l16.9,18.7l16.9-18.7
			c17.6-19.5,41.2-30.3,66.3-30.3s48.7,10.8,66.3,30.3l2.2,2.4c17.3,19.2,26.9,44.6,26.9,71.6c0,27-9.5,52.4-26.9,71.6
			c0,0-0.1,0.1-0.1,0.1L81.8,581.2C79.5,583.7,76.3,585.1,72.9,585.1z"/>
	</g>
</g>
</svg>
