<svg xmlns="http://www.w3.org/2000/svg" width="24" height="24" viewBox="0 0 24 24">
  <g fill="#556066" fill-rule="evenodd" transform="translate(4 4)">
    <path d="M8.36658223 3.88825335C7.84228108 3.68757581 7.23094154 3.88825335 6.79411804 4.28946437 6.35729454 4.69038726 6.0952381 5.2919877 6.0952381 5.99399893 6.0952381 6.29479915 6.27000515 6.49540466 6.53206159 6.49540466 6.79411804 6.49540466 6.96888509 6.29479915 6.96888509 5.99399893 6.96888509 5.69319871 7.05617449 5.2919877 7.31816818 5.09167031 7.58022463 4.89099277 7.84228108 4.79058197 8.19181518 4.89099277 8.62863868 4.99118748 8.89069513 5.3923985 8.97798452 5.79339342 9.06546218 6.29479915 8.97798452 6.69601017 8.62863868 6.99681038 7.92982149 7.59833879 7.58022463 8.50102756 7.58022463 9.40335618 7.58022463 9.7041564 7.75499168 9.9047619 8.01704813 9.9047619 8.27910458 9.9047619 8.45387163 9.7041564 8.36658223 9.40335618 8.36658223 8.80175575 8.71592807 8.19993922 9.15275157 7.79901633 9.76434212 7.19741589 10.0263986 6.39520995 9.85156877 5.59278791 9.67680171 4.69038726 9.06546218 4.08885886 8.36658223 3.88825335zM7.61262447 11.395038C7.51844726 11.4889451 7.51844726 11.676962 7.51844726 11.7708692 7.51844726 11.8647089 7.51844726 11.9588861 7.61262447 12.0527257 7.70646414 12.1466329 7.89454852 12.2408101 7.98838819 12.2408101 8.08229536 12.2408101 8.27031224 12.1466329 8.27031224 12.0527257 8.36421941 12.0527257 8.45832911 11.8647089 8.45832911 11.7708692 8.45832911 11.5828523 8.36421941 11.4889451 8.27031224 11.395038 8.08229536 11.2070211 7.80037131 11.2070211 7.61262447 11.395038z"/>
    <path d="M7.98838819,0.0232236287 C3.571173,0.0232236287 0,3.59439662 0,8.01161181 C0,12.428827 3.571173,16 7.98838819,16 C12.4056034,16 15.9767764,12.428827 15.9767764,8.01161181 C15.9767764,3.59439662 12.4056034,0.0232236287 7.98838819,0.0232236287 Z M7.98838819,15.0601181 C4.13529114,15.0601181 0.939881857,11.8647089 0.939881857,8.01161181 C0.939881857,4.15851477 4.13529114,0.963105485 7.98838819,0.963105485 C11.8414852,0.963105485 15.0368945,4.15851477 15.0368945,8.01161181 C15.0368945,11.8647089 11.8414852,15.0601181 7.98838819,15.0601181 Z"/>
  </g>
</svg>
