<svg xmlns="http://www.w3.org/2000/svg" width="24" height="24" viewBox="0 0 24 24">
  <path fill="#556066" fill-rule="evenodd" d="M19.890625,12.015625 C19.9843755,12.1197922 20.0286459,12.2395827 20.0234375,12.375 C20.0182291,12.5104173 19.9687505,12.6302078 19.875,12.734375 C19.8229164,12.7760419 19.7682295,12.8098957 19.7109375,12.8359375 C19.6536455,12.8619793 19.5937503,12.875 19.53125,12.875 C19.458333,12.875 19.3906253,12.8619793 19.328125,12.8359375 C19.2656247,12.8098957 19.2135419,12.7708336 19.171875,12.71875 L18.5,12.015625 L18.5,19.5 C18.5,19.6354173 18.4505213,19.7526037 18.3515625,19.8515625 C18.2526037,19.9505213 18.1354173,20 18,20 L14.5,20 C14.3645827,20 14.2473963,19.9505213 14.1484375,19.8515625 C14.0494787,19.7526037 14,19.6354173 14,19.5 L14,14.5 L10.015625,14.5 L10,19.5 C10,19.6354173 9.95052133,19.7526037 9.8515625,19.8515625 C9.75260367,19.9505213 9.63541734,20 9.5,20 L6.015625,20 C5.86979094,20 5.75000047,19.9505213 5.65625,19.8515625 C5.56249953,19.7526037 5.515625,19.6354173 5.515625,19.5 L5.515625,12.015625 L4.84375,12.71875 C4.73958281,12.8125005 4.61979234,12.8619791 4.484375,12.8671875 C4.34895766,12.8723959 4.22916719,12.8281255 4.125,12.734375 C4.03124953,12.6302078 3.98177086,12.5104173 3.9765625,12.375 C3.97135414,12.2395827 4.01562453,12.1197922 4.109375,12.015625 L11.65625,4.15625 C11.7083336,4.10416641 11.7656247,4.0651043 11.828125,4.0390625 C11.8906253,4.0130207 11.9531247,4 12.015625,4 C12.088542,4 12.1562497,4.0130207 12.21875,4.0390625 C12.2812503,4.0651043 12.3333331,4.10416641 12.375,4.15625 L19.890625,12.015625 Z M17.5,11.046875 C17.5,11.0260416 17.5052083,11.0052084 17.515625,10.984375 L12.015625,5.234375 L6.5,10.984375 C6.5,11.0052084 6.50260414,11.0260416 6.5078125,11.046875 C6.51302086,11.0677084 6.515625,11.0885416 6.515625,11.109375 L6.515625,19 L9,19 L9.015625,14 C9.015625,13.8645827 9.06510367,13.7473963 9.1640625,13.6484375 C9.26302133,13.5494787 9.38020766,13.5 9.515625,13.5 L14.5,13.5 C14.6354173,13.5 14.7526037,13.5494787 14.8515625,13.6484375 C14.9505213,13.7473963 15,13.8645827 15,14 L15,19 L17.5,19 L17.5,11.046875 Z"/>
</svg>
