<svg xmlns="http://www.w3.org/2000/svg" width="24" height="24" viewBox="0 0 24 24">
  <path fill="#9AA5AB" fill-rule="evenodd" d="M13,15.5 C13.1354173,15.5 13.2526037,15.5494787 13.3515625,15.6484375 C13.4505213,15.7473963 13.5,15.8645827 13.5,16 C13.5,16.1354173 13.4505213,16.2526037 13.3515625,16.3515625 C13.2526037,16.4505213 13.1354173,16.5 13,16.5 L11,16.5 C10.8645827,16.5 10.7473963,16.4505213 10.6484375,16.3515625 C10.5494787,16.2526037 10.5,16.1354173 10.5,16 C10.5,15.8645827 10.5494787,15.7473963 10.6484375,15.6484375 C10.7473963,15.5494787 10.8645827,15.5 11,15.5 L11.5,15.5 L11.5,11.5 L11,11.5 C10.8645827,11.5 10.7473963,11.4505213 10.6484375,11.3515625 C10.5494787,11.2526037 10.5,11.1354173 10.5,11 C10.5,10.8645827 10.5494787,10.7473963 10.6484375,10.6484375 C10.7473963,10.5494787 10.8645827,10.5 11,10.5 L12,10.5 C12.1354173,10.5 12.2526037,10.5494787 12.3515625,10.6484375 C12.4505213,10.7473963 12.5,10.8645827 12.5,11 L12.5,15.5 L13,15.5 Z M12,9.5 C11.7187486,9.5 11.4817718,9.4036468 11.2890625,9.2109375 C11.0963532,9.0182282 11,8.78125141 11,8.5 C11,8.21874859 11.0963532,7.9817718 11.2890625,7.7890625 C11.4817718,7.5963532 11.7187486,7.5 12,7.5 C12.2812514,7.5 12.5182282,7.5963532 12.7109375,7.7890625 C12.9036468,7.9817718 13,8.21874859 13,8.5 C13,8.78125141 12.9036468,9.0182282 12.7109375,9.2109375 C12.5182282,9.4036468 12.2812514,9.5 12,9.5 Z M12,4 C13.1041722,4 14.1432243,4.20833125 15.1171875,4.625 C16.0911507,5.04166875 16.9401005,5.61197555 17.6640625,6.3359375 C18.3880245,7.05989945 18.9583313,7.9088493 19.375,8.8828125 C19.7916687,9.8567757 20,10.8958278 20,12 C20,13.1041722 19.7916687,14.1432243 19.375,15.1171875 C18.9583313,16.0911507 18.3880245,16.9401005 17.6640625,17.6640625 C16.9401005,18.3880245 16.0911507,18.9583313 15.1171875,19.375 C14.1432243,19.7916687 13.1041722,20 12,20 C10.8958278,20 9.8567757,19.7916687 8.8828125,19.375 C7.9088493,18.9583313 7.05989945,18.3880245 6.3359375,17.6640625 C5.61197555,16.9401005 5.04166875,16.0911507 4.625,15.1171875 C4.20833125,14.1432243 4,13.1041722 4,12 C4,10.8958278 4.20833125,9.8567757 4.625,8.8828125 C5.04166875,7.9088493 5.61197555,7.05989945 6.3359375,6.3359375 C7.05989945,5.61197555 7.9088493,5.04166875 8.8828125,4.625 C9.8567757,4.20833125 10.8958278,4 12,4 Z M12,19.015625 C12.9687548,19.015625 13.8775999,18.830731 14.7265625,18.4609375 C15.5755251,18.091144 16.315101,17.5885448 16.9453125,16.953125 C17.575524,16.3177052 18.075519,15.5755251 18.4453125,14.7265625 C18.815106,13.8775999 19,12.9687548 19,12 C19,11.0312452 18.815106,10.1224001 18.4453125,9.2734375 C18.075519,8.42447492 17.575524,7.68489898 16.9453125,7.0546875 C16.315101,6.42447602 15.5755251,5.92448102 14.7265625,5.5546875 C13.8775999,5.18489398 12.9687548,5 12,5 C11.0312452,5 10.1224001,5.18489398 9.2734375,5.5546875 C8.42447492,5.92448102 7.68489898,6.42447602 7.0546875,7.0546875 C6.42447602,7.68489898 5.92448102,8.42447492 5.5546875,9.2734375 C5.18489398,10.1224001 5,11.0312452 5,12 C5,12.9687548 5.18489398,13.8775999 5.5546875,14.7265625 C5.92448102,15.5755251 6.42447602,16.3177052 7.0546875,16.953125 C7.68489898,17.5885448 8.42447492,18.091144 9.2734375,18.4609375 C10.1224001,18.830731 11.0312452,19.015625 12,19.015625 Z"/>
</svg>
