<svg xmlns="http://www.w3.org/2000/svg" width="24" height="24" viewBox="0 0 24 24">
  <g fill="#9AA5AB">
    <path d="M16.84275,0 L7.15729687,0 C3.22729687,0 0.03,3.19725 0.03,7.12729688 L0.03,16.87275 C0.03,20.80275 3.22729687,24 7.15729687,24 L16.84275,24 C20.7727031,24 23.97,20.80275 23.97,16.87275 L23.97,7.12729688 C23.9699531,3.19725 20.7727031,0 16.84275,0 Z M23.0137969,16.8727031 C23.0137969,20.2755 20.2455,23.0437969 16.84275,23.0437969 L7.15729687,23.0437969 C3.7545,23.0437969 0.986203125,20.2755 0.986203125,16.87275 L0.986203125,7.12729688 C0.986203125,3.7245 3.7545,0.956203125 7.15729687,0.956203125 L16.84275,0.956203125 C20.2455,0.956203125 23.0137969,3.7245 23.0137969,7.12729688 L23.0137969,16.8727031 Z"/>
    <g transform="translate(5.813 5.813)">
      <path d="M6.1875,0.00834375 C2.78034375,0.00834375 0.008390625,2.78029687 0.008390625,6.1875 C0.008390625,9.59470312 2.78029687,12.3666094 6.1875,12.3666094 C9.59470312,12.3666094 12.3666094,9.59470312 12.3666094,6.1875 C12.3666094,2.78029687 9.59465625,0.00834375 6.1875,0.00834375 Z M6.1875,11.4104062 C3.30759375,11.4104062 0.96459375,9.06740625 0.96459375,6.1875 C0.96459375,3.30754687 3.30759375,0.964546875 6.1875,0.964546875 C9.06745312,0.964546875 11.4104062,3.30754687 11.4104062,6.1875 C11.4104062,9.06740625 9.06740625,11.4104062 6.1875,11.4104062 Z"/>
      <path d="M6.1875,2.67379687 C4.2500625,2.67379687 2.67379688,4.2500625 2.67379688,6.1875 C2.67379688,8.1249375 4.2500625,9.70120312 6.1875,9.70120312 C8.12498438,9.70120312 9.70120313,8.1249375 9.70120313,6.1875 C9.70120313,4.2500625 8.1249375,2.67379687 6.1875,2.67379687 Z M6.1875,8.74504688 C4.77726563,8.74504688 3.62995313,7.59773438 3.62995313,6.1875 C3.62995313,4.77726563 4.77726563,3.62995313 6.1875,3.62995313 C7.59773438,3.62995313 8.74504688,4.77721875 8.74504688,6.1875 C8.74504688,7.59773438 7.59773438,8.74504688 6.1875,8.74504688 Z"/>
    </g>
    <path d="M17.8352344,4.68014063 C17.0166094,4.68014063 16.3505625,5.34614063 16.3505625,6.1648125 C16.3505625,6.98348438 17.0165625,7.6494375 17.8352344,7.6494375 C18.6538125,7.6494375 19.3198594,6.98348438 19.3198594,6.1648125 C19.3198594,5.34614063 18.6538125,4.68014063 17.8352344,4.68014063 Z M17.8352344,6.69323438 C17.5438594,6.69323438 17.3067656,6.4561875 17.3067656,6.1648125 C17.3067656,5.87339063 17.5438594,5.63634375 17.8352344,5.63634375 C18.1266094,5.63634375 18.3636563,5.8734375 18.3636563,6.1648125 C18.3637031,6.4561875 18.1266563,6.69323438 17.8352344,6.69323438 Z"/>
  </g>
</svg>
