<?xml version="1.0" encoding="utf-8"?>
<!-- Generator: Adobe Illustrator 19.0.1, SVG Export Plug-In . SVG Version: 6.00 Build 0)  -->
<svg version="1.1" id="Capa_1" xmlns="http://www.w3.org/2000/svg" xmlns:xlink="http://www.w3.org/1999/xlink" x="0px" y="0px"
	 viewBox="56 -56 612 612" style="enable-background:new 56 -56 612 612;" xml:space="preserve">
<style type="text/css">
	.st0{fill:#D8E2E9;}
</style>
<path class="st0" d="M485.7-56H238.3C137.8-56,56,25.8,56,126.3v247.4C56,474.2,137.8,556,238.3,556h247.4
	C586.2,556,668,474.2,668,373.7V126.3C668,25.8,586.2-56,485.7-56z M606.4,373.7c0,66.7-54.1,120.8-120.8,120.8H238.3
	c-66.7,0-120.8-54.1-120.8-120.8V126.3c0-66.7,54.1-120.8,120.8-120.8h247.4c66.7,0,120.8,54.1,120.8,120.8V373.7L606.4,373.7z"/>
<path class="st0" d="M362,91.7c-87.3,0-158.3,71-158.3,158.3c0,87.3,71,158.3,158.3,158.3s158.3-71,158.3-158.3
	C520.3,162.7,449.3,91.7,362,91.7z M362,346.7c-53.4,0-96.7-43.3-96.7-96.7s43.3-96.7,96.7-96.7c53.4,0,96.7,43.3,96.7,96.7
	C458.7,303.4,415.4,346.7,362,346.7z"/>
<path class="st0" d="M520.6,55c20.9,0,37.9,17,37.9,37.9c0,20.9-17,37.9-37.9,37.9c-20.9,0-37.9-17-37.9-37.9
	C482.7,72,499.6,55,520.6,55z"/>
</svg>
