<svg xmlns="http://www.w3.org/2000/svg" width="24" height="24" viewBox="0 0 24 24">
  <path fill="#FFF" d="M10.5654471,0 L3.77352885,0 C3.55448077,0 3.37689423,0.175009772 3.37689423,0.390879479 C3.37689423,0.606749186 3.55448077,0.781758958 3.77352885,0.781758958 L6.67996154,0.781758958 L3.58478365,15.1661238 L0.396634615,15.1661238 C0.177586538,15.1661238 0,15.3411336 0,15.5570033 C0,15.772873 0.177586538,15.9478827 0.396634615,15.9478827 L3.90494712,15.9478827 C3.90542308,15.9478827 3.90595192,15.9479349 3.90642788,15.9479349 C3.90674519,15.9479349 3.90700962,15.9478827 3.90732692,15.9478827 L7.1885,15.9478827 C7.40754808,15.9478827 7.58513462,15.772873 7.58513462,15.5570033 C7.58513462,15.3411336 7.40754808,15.1661238 7.1885,15.1661238 L4.39561058,15.1661238 L7.49078846,0.781758958 L10.5653942,0.781758958 C10.7844423,0.781758958 10.9620288,0.606749186 10.9620288,0.390879479 C10.9620288,0.175009772 10.7844952,0 10.5654471,0 Z" transform="translate(7 4)"/>
</svg>
