<svg xmlns="http://www.w3.org/2000/svg" width="24" height="24" viewBox="0 0 24 24">
  <path fill="#E86D31" d="M9.35849094,17.62 L5.65849094,17.62 C5.31849094,17.62 5.04849094,17.89 5.04849094,18.23 L5.04849094,18.87 C5.04849094,19.39 5.41849094,19.81 5.89849094,19.88 L6.04849094,20.46 C6.12849094,20.78 6.40849094,21 6.73849094,21 L8.27849094,21 C8.59849094,21 8.87849094,20.78 8.96849094,20.46 L9.11849094,19.88 C9.61152899,19.8052306 9.97412812,19.3786434 9.96849094,18.88 L9.96849094,18.24 C9.96853498,17.901451 9.69699592,17.6254605 9.35849094,17.62 L9.35849094,17.62 Z M7.46849094,4.22 C6.04514553,4.23835515 4.68803797,4.82423371 3.69853745,5.84753121 C2.70903693,6.87082872 2.1690503,8.24684073 2.19849094,9.67 C2.20913175,11.039604 2.73790646,12.3543951 3.67849094,13.35 C4.37849094,14.09 4.83849094,15.05 4.98849094,16.05 C5.05849094,16.48 5.42849094,16.8 5.85849094,16.8 L9.15849094,16.8 C9.58849094,16.8 9.95849094,16.48 10.0284909,16.04 C10.1784909,15.04 10.6284909,14.1 11.3284909,13.36 C12.2901867,12.3489331 12.8240253,11.0053797 12.8184909,9.61 C12.8184909,6.62 10.4184909,4.2 7.46849094,4.21 L7.46849094,4.22 Z M7.50849094,6.95 C6.80300881,6.95528443 6.1285229,7.24061439 5.63342257,7.74321624 C5.13832225,8.24581809 4.86316662,8.92451817 4.86849094,9.63 C4.86849094,9.96137085 4.59986179,10.23 4.26849094,10.23 C3.93712009,10.23 3.66849094,9.96137085 3.66849094,9.63 C3.66849094,7.48 5.39849094,5.73 7.50849094,5.73 C7.83849094,5.73 8.10849094,6.01 8.10849094,6.35 C8.10849094,6.68137085 7.83986179,6.95 7.50849094,6.95 L7.50849094,6.95 Z M7.00849094,2.47 C7.00849094,2.62 7.06849094,2.76 7.15849094,2.85 C7.23849094,2.95 7.35849094,3.01 7.49849094,3.01 C7.76849094,3.01 7.99849094,2.77 7.99849094,2.46 L7.99849094,0.54 C7.99849094,0.24 7.77849094,0 7.50849094,0 C7.23849094,0 7.01849094,0.24 7.00849094,0.55 L7.00849094,2.47 Z M0.728490936,3.14 C0.548490936,2.96 0.268490936,2.94 0.108490936,3.11 C-0.0515090637,3.26 -0.0315090637,3.53 0.148490936,3.71 L1.27849094,4.84 C1.45849094,5.01 1.72849094,5.03 1.88849094,4.87 C1.9638262,4.78927745 2.00032562,4.6797792 1.98849094,4.57 C1.98849094,4.47 1.94849094,4.35 1.85849094,4.27 L0.728490936,3.14 Z M14.8684909,3.71 C15.0484909,3.54 15.0684909,3.26 14.8984909,3.11 C14.7384909,2.94 14.4684909,2.96 14.2884909,3.14 L13.1384909,4.27 C12.9584909,4.45 12.9384909,4.72 13.1084909,4.88 C13.1905105,4.95312478 13.2990004,4.98928807 13.4084909,4.98 C13.5237308,4.97374228 13.6332576,4.92781167 13.7184909,4.85 L14.8684909,3.71 Z" transform="translate(5 2)"/>
</svg>
