<?xml version="1.0" encoding="utf-8"?>
<!-- Generator: Adobe Illustrator 19.0.1, SVG Export Plug-In . SVG Version: 6.00 Build 0)  -->
<svg version="1.1" id="Capa_1" xmlns="http://www.w3.org/2000/svg" xmlns:xlink="http://www.w3.org/1999/xlink" x="0px" y="0px"
	 viewBox="56 -56 612 612" style="enable-background:new 56 -56 612 612;" xml:space="preserve">
<style type="text/css">
	.st0{fill:#F76B64;}
</style>
<path class="st0" d="M426.2,475.5v18.6c0,14.8-10.7,27.2-24.7,29.3l-4.5,16.9c-2.5,9.2-10.6,15.6-20,15.6h-44.9
	c-9.4,0-17.6-6.4-20-15.6l-4.4-16.9c-14.1-2.2-24.8-14.4-24.8-29.4v-18.6c0-10,7.9-18,17.7-18h107.9
	C418.3,457.5,426.2,465.5,426.2,475.5z M509.3,224.2c0,42.4-16.5,80.9-43.4,109.1c-20.4,21.5-33.6,49-38,78.3
	c-1.9,12.6-12.7,21.9-25.3,21.9h-96c-12.5,0-23.4-9.2-25.2-21.8c-4.5-29.3-17.8-57.1-38.3-78.5c-26.4-27.8-42.8-65.7-43.2-107.3
	C198.9,138.4,267.4,67.6,353.5,67C439.5,66.3,509.3,137,509.3,224.2z M372,129c0-9.7-7.8-17.7-17.5-17.7
	c-61.5,0-111.7,50.8-111.7,113.5c0,9.7,7.8,17.7,17.5,17.7c9.6,0,17.5-7.9,17.5-17.7c0-43.1,34.5-78,76.8-78
	C364.3,146.7,372,138.8,372,129z"/>
<path class="st0" d="M340.1,16c0,4.3,1.6,8.3,4.1,11.2c2.5,2.8,6.1,4.7,10,4.6c7.9,0,14.3-7.2,14.3-16l0.2-55.9
	c0-8.8-6.3-15.9-14.2-15.9c-7.9,0-14.3,7.2-14.3,16L340.1,16z"/>
<path class="st0" d="M189.8,68.4c2.6,2.5,4,5.9,4.1,9c0.2,3.1-0.9,6.3-3.2,8.6c-4.7,4.6-12.6,4.2-17.8-1l-33-32.8
	c-5.2-5.2-5.7-13.1-1-17.7s12.6-4.2,17.8,1L189.8,68.4z"/>
<path class="st0" d="M535.6,85.3c-2.6,2.6-5.9,4-9.1,4.1c-3.2,0.2-6.4-0.9-8.7-3.2c-4.7-4.7-4.3-12.6,1-17.8l33.3-33
	c5.3-5.2,13.3-5.7,18-1c4.7,4.7,4.3,12.6-1,17.8L535.6,85.3z"/>
</svg>
