<svg xmlns="http://www.w3.org/2000/svg" width="24" height="24" viewBox="0 0 24 24">
  <path fill="#556066" fill-rule="evenodd" d="M16.5,10 C17.0520861,10 17.5234355,10.1953105 17.9140625,10.5859375 C18.3046895,10.9765645 18.5,11.4479139 18.5,12 L18.5,18 C18.5,18.5520861 18.3046895,19.0234355 17.9140625,19.4140625 C17.5234355,19.8046895 17.0520861,20 16.5,20 L7.5,20 C6.94791391,20 6.47656445,19.8046895 6.0859375,19.4140625 C5.69531055,19.0234355 5.5,18.5520861 5.5,18 L5.5,12 C5.5,11.4479139 5.69531055,10.9765645 6.0859375,10.5859375 C6.47656445,10.1953105 6.94791391,10 7.5,10 L8,10 L8,8.09375 C8,7.53124719 8.0963532,7.0000025 8.2890625,6.5 C8.4817718,5.9999975 8.75260242,5.56510602 9.1015625,5.1953125 C9.45052258,4.82551898 9.86978922,4.53385523 10.359375,4.3203125 C10.8489608,4.10676977 11.390622,4 11.984375,4 C12.5677113,4 13.1067684,4.10676977 13.6015625,4.3203125 C14.0963566,4.53385523 14.5208316,4.82291484 14.875,5.1875 C15.2291684,5.55208516 15.5052073,5.9843725 15.703125,6.484375 C15.9010427,6.9843775 16,7.52083047 16,8.09375 L16,10 L16.5,10 Z M9,8.09375 L9,10 L15,10 L15,8.09375 C15,7.22916234 14.721357,6.49739883 14.1640625,5.8984375 C13.606768,5.29947617 12.8802128,5 11.984375,5 C11.0781205,5 10.3541694,5.30208031 9.8125,5.90625 C9.27083063,6.51041969 9,7.23957906 9,8.09375 Z M17.5,18 L17.5,12 C17.5,11.7291653 17.4010427,11.4947927 17.203125,11.296875 C17.0052073,11.0989573 16.7708347,11 16.5,11 L7.5,11 C7.22916531,11 6.99479266,11.0989573 6.796875,11.296875 C6.59895734,11.4947927 6.5,11.7291653 6.5,12 L6.5,18 C6.5,18.2708347 6.59895734,18.5052073 6.796875,18.703125 C6.99479266,18.9010427 7.22916531,19 7.5,19 L16.5,19 C16.7708347,19 17.0052073,18.9010427 17.203125,18.703125 C17.4010427,18.5052073 17.5,18.2708347 17.5,18 Z M12,13 C12.2812514,13 12.5182282,13.0963532 12.7109375,13.2890625 C12.9036468,13.4817718 13,13.7187486 13,14 C13,14.1875009 12.9531255,14.3567701 12.859375,14.5078125 C12.7656245,14.6588549 12.6458341,14.7760413 12.5,14.859375 L12.5,16.5 C12.5,16.6354173 12.4505213,16.7526037 12.3515625,16.8515625 C12.2526037,16.9505213 12.1354173,17 12,17 C11.8645827,17 11.7473963,16.9505213 11.6484375,16.8515625 C11.5494787,16.7526037 11.5,16.6354173 11.5,16.5 L11.5,14.859375 C11.3541659,14.7760413 11.2343755,14.6588549 11.140625,14.5078125 C11.0468745,14.3567701 11,14.1875009 11,14 C11,13.7187486 11.0963532,13.4817718 11.2890625,13.2890625 C11.4817718,13.0963532 11.7187486,13 12,13 Z"/>
</svg>
