<svg xmlns="http://www.w3.org/2000/svg" width="24" height="24" viewBox="0 0 24 24">
  <path fill="#C4C7CC" d="M5.5,15 C4.11928813,15 3,13.8807119 3,12.5 C3,11.1192881 4.11928813,10 5.5,10 C6.88071187,10 8,11.1192881 8,12.5 C8,13.8807119 6.88071187,15 5.5,15 Z M5.5,14 C6.32842712,14 7,13.3284271 7,12.5 C7,11.6715729 6.32842712,11 5.5,11 C4.67157288,11 4,11.6715729 4,12.5 C4,13.3284271 4.67157288,14 5.5,14 Z M12.5,15 C11.1192881,15 10,13.8807119 10,12.5 C10,11.1192881 11.1192881,10 12.5,10 C13.8807119,10 15,11.1192881 15,12.5 C15,13.8807119 13.8807119,15 12.5,15 Z M12.5,14 C13.3284271,14 14,13.3284271 14,12.5 C14,11.6715729 13.3284271,11 12.5,11 C11.6715729,11 11,11.6715729 11,12.5 C11,13.3284271 11.6715729,14 12.5,14 Z M19.5,15 C18.1192881,15 17,13.8807119 17,12.5 C17,11.1192881 18.1192881,10 19.5,10 C20.8807119,10 22,11.1192881 22,12.5 C22,13.8807119 20.8807119,15 19.5,15 Z M19.5,14 C20.3284271,14 21,13.3284271 21,12.5 C21,11.6715729 20.3284271,11 19.5,11 C18.6715729,11 18,11.6715729 18,12.5 C18,13.3284271 18.6715729,14 19.5,14 Z"/>
</svg>
