<svg xmlns="http://www.w3.org/2000/svg" width="24" height="24" viewBox="0 0 24 24">
  <path fill="#556066" fill-rule="evenodd" d="M18.15625,15.125 C18.4270847,15.458335 18.6406242,15.755207 18.796875,16.015625 C18.9531258,16.276043 18.9687506,16.536457 18.84375,16.796875 C18.7187494,17.057293 18.5156264,17.2083331 18.234375,17.25 C17.9531236,17.2916669 17.7343758,17.3125 17.578125,17.3125 L14.65625,17.3125 C14.65625,18.052087 14.3958359,18.6822891 13.875,19.203125 C13.3541641,19.7239609 12.723962,19.984375 11.984375,19.984375 C11.244788,19.984375 10.6145859,19.7239609 10.09375,19.203125 C9.57291406,18.6822891 9.3125,18.052087 9.3125,17.3125 L6.453125,17.3125 C6.21354047,17.3125 5.96614711,17.2838545 5.7109375,17.2265625 C5.45572789,17.1692705 5.27083391,17.0260428 5.15625,16.796875 C5.03124937,16.536457 5.04166594,16.2682305 5.1875,15.9921875 C5.33333406,15.7161445 5.53124875,15.41146 5.78125,15.078125 C6.06250141,14.7135398 6.36979,14.2994815 6.703125,13.8359375 C7.03646,13.3723935 7.203125,12.8906275 7.203125,12.390625 L7.203125,9.125 C7.203125,8.41666312 7.32551961,7.75260727 7.5703125,7.1328125 C7.81510539,6.51301773 8.15103953,5.97135648 8.578125,5.5078125 C9.00521047,5.04426852 9.51041375,4.67968883 10.09375,4.4140625 C10.6770863,4.14843617 11.30208,4.015625 11.96875,4.015625 C12.6458367,4.015625 13.2760387,4.14843617 13.859375,4.4140625 C14.4427112,4.67968883 14.9505187,5.04426852 15.3828125,5.5078125 C15.8151063,5.97135648 16.1536446,6.51301773 16.3984375,7.1328125 C16.6432304,7.75260727 16.765625,8.41666312 16.765625,9.125 L16.765625,12.390625 C16.765625,12.9010442 16.9244776,13.3958309 17.2421875,13.875 C17.5598974,14.3541691 17.8645819,14.7708316 18.15625,15.125 Z M11.984375,18.9375 C12.4322939,18.9375 12.8151026,18.7786474 13.1328125,18.4609375 C13.4505224,18.1432276 13.609375,17.7604189 13.609375,17.3125 L10.359375,17.3125 C10.359375,17.7604189 10.5182276,18.1432276 10.8359375,18.4609375 C11.1536474,18.7786474 11.5364561,18.9375 11.984375,18.9375 Z M17.6875,16.25 C17.6354164,16.177083 17.5781253,16.1015629 17.515625,16.0234375 C17.4531247,15.9453121 17.3906253,15.869792 17.328125,15.796875 C16.9843733,15.3802063 16.627606,14.8828154 16.2578125,14.3046875 C15.888019,13.7265596 15.703125,13.0885452 15.703125,12.390625 L15.703125,9.125 C15.703125,8.56249719 15.6067718,8.03646078 15.4140625,7.546875 C15.2213532,7.05728922 14.958335,6.63021016 14.625,6.265625 C14.291665,5.90103984 13.8984398,5.61198023 13.4453125,5.3984375 C12.9921852,5.18489477 12.5000027,5.078125 11.96875,5.078125 C11.4479141,5.078125 10.9609398,5.18489477 10.5078125,5.3984375 C10.0546852,5.61198023 9.66146,5.90103984 9.328125,6.265625 C8.99479,6.63021016 8.73437594,7.05728922 8.546875,7.546875 C8.35937406,8.03646078 8.265625,8.56249719 8.265625,9.125 L8.265625,12.390625 C8.265625,13.0677117 8.07031445,13.6901013 7.6796875,14.2578125 C7.28906055,14.8255237 6.94270984,15.312498 6.640625,15.71875 C6.57812469,15.8020838 6.51302117,15.8906245 6.4453125,15.984375 C6.37760383,16.0781255 6.31770859,16.1666662 6.265625,16.25 L17.6875,16.25 Z"/>
</svg>
