<?xml version="1.0" encoding="utf-8"?>
<!-- Generator: Adobe Illustrator 19.0.1, SVG Export Plug-In . SVG Version: 6.00 Build 0)  -->
<svg version="1.1" id="Capa_1" xmlns="http://www.w3.org/2000/svg" xmlns:xlink="http://www.w3.org/1999/xlink" x="0px" y="0px"
	 viewBox="56 -56 612 612" style="enable-background:new 56 -56 612 612;" xml:space="preserve">
<style type="text/css">
	.st0{display:none;}
	.st1{display:inline;}
</style>
<g class="st0">
	<g class="st1">
		<path d="M286.7,125.2c-2.4,2.6-4,4.3-5.1,5.5C283.8,128.4,286.7,125.2,286.7,125.2z"/>
		<path d="M393,144.9c8,9.8,11.9,21.3,11.9,34.6c0,9.5-2.7,18.7-8.2,27.5c-3,5-6.9,9.8-11.8,14.5l-16.3,16.1
			c-15.6,15.4-25.7,29-30.4,40.9c-4.6,11.9-6.9,27.5-6.9,47h36.3c0-17.1,1.9-30,5.8-38.8c3.9-8.8,12.3-19.4,25.4-32.1
			c17.9-17.4,29.8-30.6,35.7-39.5s8.9-20.6,8.9-35.1c0-23.8-8-43.3-24.1-58.6C403.2,106,381.8,98.4,355,98.4
			c-28.9,0-51.7,8.9-68.3,26.8s-24.9,41.4-24.9,70.8h36.3c0.7-17.7,3.5-31.2,8.3-40.6c8.7-16.8,24.4-25.3,47.1-25.3
			C371.9,130.2,385,135.1,393,144.9z"/>
		<path d="M668,250C668,81,531-56,362-56C193-56,56,81,56,250c0,169,137,306,306,306C531,556,668,419,668,250z M83.8,250
			C83.8,96.4,208.4-28.2,362-28.2S640.2,96.4,640.2,250S515.6,528.2,362,528.2S83.8,403.6,83.8,250z"/>
		<rect x="330.5" y="359.2" width="40.6" height="42.4"/>
	</g>
</g>
<path d="M355.1,556c-57.3,0-103.8-47.5-103.8-105.9c0-4.2,0.1-7.7,0.6-11.3l2.4-14.6H456l2.4,14.6c0.6,3.6,0.6,7.1,0.6,11.3
	C459.1,508.5,412.5,556,355.1,556z M286.1,459c4.3,35,33.7,62.2,69.2,62.2c35.5,0,64.9-27.2,69.2-62.2H286.1z"/>
<path d="M593.6,388.8c-45,0-81.7-36.8-81.7-82.3V197.4c0-41.4-16.2-80.8-45.7-110.8C438.4,59.2,401.6,42.9,363,41.1
	c-41.4-2.2-81.1,13.7-112.2,43.9c-33,32.1-51.8,76.6-51.8,122.2v99.3c0,45.3-36.7,82.3-81.7,82.3l-0.9-34.7h0.9
	c26.3,0,47.7-21.2,47.7-47.4v-99.3c0-55.1,22.7-108.8,62.4-147.4c37.9-37,87-56,137.3-53.4c46.9,2.2,91.6,22,125.5,55.5
	c36.1,36.7,56,84.8,56,135.6v109.1c0,26.1,21.4,47.4,47.7,47.4v34.7H593.6z"/>
<path d="M421.5,45.1c-9.4,0-17.1-7.7-17.1-17.4c0-27-21.5-49-48.1-49c-26.4,0-48,22-48,49c0,9.7-7.6,17.4-17.1,17.4
	c-9.4,0-17.1-7.7-17.1-17.4c0-46.2,36.8-83.7,82.1-83.7s82.1,37.6,82.1,83.7C438.6,37.2,431,45.1,421.5,45.1z"/>
<path d="M610.7,459H99.3V354.7h511.3V459z M133.5,424.3h443.2v-34.7H133.5V424.3z"/>
</svg>
