<svg xmlns="http://www.w3.org/2000/svg" xmlns:xlink="http://www.w3.org/1999/xlink" width="24" height="24" viewBox="0 0 24 24">
  <defs>
    <path id="ordered-list-a" d="M0,0.5 C0,0.223857625 0.229750633,0 0.501230836,0 L10.4987692,0 C10.7755913,0 11,0.231933594 11,0.5 C11,0.776142375 10.7702494,1 10.4987692,1 L0.501230836,1 C0.224408689,1 0,0.768066406 0,0.5 Z M0,5.5 C0,5.22385763 0.229750633,5 0.501230836,5 L10.4987692,5 C10.7755913,5 11,5.23193359 11,5.5 C11,5.77614237 10.7702494,6 10.4987692,6 L0.501230836,6 C0.224408689,6 0,5.76806641 0,5.5 Z M0,10.5 C0,10.2238576 0.229750633,10 0.501230836,10 L10.4987692,10 C10.7755913,10 11,10.2319336 11,10.5 C11,10.7761424 10.7702494,11 10.4987692,11 L0.501230836,11 C0.224408689,11 0,10.7680664 0,10.5 Z"/>
    <mask id="ordered-list-b" width="11" height="11" x="0" y="0" fill="#fff">
      <use xlink:href="#ordered-list-a"/>
    </mask>
  </defs>
  <g fill="#FFF" fill-rule="evenodd">
    <use stroke="#FFF" stroke-width="2" mask="url(#ordered-list-b)" transform="translate(9 7)" xlink:href="#ordered-list-a"/>
    <polygon points="5.76 9 5.76 3.664 4.768 3.664 3.088 5.352 3.736 6.032 4.624 5.128 4.624 9"/>
    <path d="M7.392,16 L7.392,15 L5.216,15 C6.6,13.992 7.352,13.2 7.352,12.288 C7.352,11.224 6.448,10.584 5.312,10.584 C4.568,10.584 3.776,10.856 3.256,11.456 L3.904,12.208 C4.264,11.832 4.728,11.592 5.336,11.592 C5.776,11.592 6.2,11.824 6.2,12.288 C6.2,12.944 5.56,13.496 3.376,15.112 L3.376,16 L7.392,16 Z"/>
  </g>
</svg>
