<?xml version="1.0" encoding="utf-8"?>
<!-- Generator: Adobe Illustrator 19.0.1, SVG Export Plug-In . SVG Version: 6.00 Build 0)  -->
<svg version="1.1" id="Слой_1" xmlns="http://www.w3.org/2000/svg" xmlns:xlink="http://www.w3.org/1999/xlink" x="0px" y="0px"
	 viewBox="-41 164.9 512 512" style="enable-background:new -41 164.9 512 512;" xml:space="preserve">
<style type="text/css">
	.st0{fill:none;stroke:#000000;stroke-width:19;stroke-miterlimit:10;}
</style>
<g>
	<g>
		<path d="M401.1,665.9v-490H145.7L28.9,291.6v374.3H401.1z M381.3,645H49.8V306.2h100.1c6.3,0,10.4-5.2,10.4-10.4v-99h221
			L381.3,645L381.3,645z M139.4,211.3v75.1H64.3L139.4,211.3z"/>
		<rect x="106.1" y="573.3" width="220" height="20.9"/>
		<rect x="106.1" y="509.6" width="220" height="20.9"/>
	</g>
</g>
<circle cx="311.9" cy="367.3" r="17.1"/>
<circle cx="123.2" cy="367.3" r="17.1"/>
<path class="st0" d="M274,402.6L274,402.6c0,26.6-21.7,48.3-48.3,48.3h-15.4c-26.6,0-48.3-21.7-48.3-48.3v0"/>
</svg>
