<?xml version="1.0" encoding="utf-8"?>
<!-- Generator: Adobe Illustrator 19.0.1, SVG Export Plug-In . SVG Version: 6.00 Build 0)  -->
<svg version="1.1" id="Слой_1" xmlns="http://www.w3.org/2000/svg" xmlns:xlink="http://www.w3.org/1999/xlink" x="0px" y="0px"
	 viewBox="0 0 500 500" style="enable-background:new 0 0 500 500;" xml:space="preserve">
<path d="M175.2,236.2c-3.2,1.4-5.2,4.5-5.2,7.8v17.4c0,4.9,3.9,8.7,8.9,8.7h17.9c10.9,0,20.7,3.8,28.4,9.9
	c5.2-3.5,10.9-6.3,16.8-8.4c-11.4-11.7-27.5-19-45.2-19h-8.9v-3.5c13-7.8,21.3-21.8,21.3-36.9V195c0-24-20.2-43.6-44.7-43.6h-6.8
	c-24.7,0-44.7,19.5-44.7,43.6v17.4c0,15.2,8.2,29.1,21.3,36.9v3.5h-8.9c-34.5,0-62.5,27.3-62.5,61c0,4.9,3.9,8.7,8.9,8.7h119.7
	c2.1-6.1,5-12,8.6-17.4H81.6c4.1-19.9,22.2-34.8,43.8-34.8h17.9c4.8,0,8.9-3.8,8.9-8.7v-17.4c0-3.3-2.1-6.4-5.4-7.8
	c-9.6-4.4-15.9-13.6-15.9-23.9V195c0-14.5,12-26.1,26.8-26.1h6.8c14.6,0,26.8,11.7,26.8,26.1v17.4
	C191.3,222.7,185.1,231.9,175.2,236.2z"/>
<path d="M371,266.7H355v-10.3c18.2-10.3,29.7-29.3,29.7-49.8v-24.4c0-31.7-26.4-57.5-59-57.5h-9.3c-32.5,0-59,25.8-59,57.5v24.4
	c0,20.6,11.4,39.5,29.7,49.8v10.3H271c-10.2,0-20,1.7-28.9,5.1c-5.9,2.1-11.6,4.9-16.8,8.4c-10.2,6.3-18.8,14.8-25.2,24.9
	c-3.6,5.4-6.4,11.3-8.6,17.4c-2.9,8.2-4.5,16.9-4.5,26.1c0,4.9,3.9,8.7,8.9,8.7h250.1c4.8,0,8.9-3.8,8.9-8.7
	C455,303.5,417.3,266.7,371,266.7z M205.4,339.9c0.9-6.1,2.7-12,5.2-17.4c2.9-6.4,7-12.4,11.8-17.4c4.1-4.4,8.8-8.2,13.9-11.3
	c5-3.1,10.5-5.4,16.4-7.1c5.7-1.6,11.8-2.4,18.2-2.4h25c4.8,0,8.9-3.8,8.9-8.7V251c0-3.3-2.1-6.4-5.4-7.8
	c-14.8-6.6-24.3-20.9-24.3-36.6v-24.4c0-22.1,18.4-40.1,41.1-40.1h9.3c22.7,0,41.1,17.9,41.1,40.1v24.4c0,15.7-9.6,30-24.5,36.6
	c-3.2,1.4-5.2,4.5-5.2,7.8v24.4c0,4.9,3.9,8.7,8.9,8.7h25c33.4,0,61.1,24.4,65.4,55.7H205.4z"/>
</svg>
