<svg xmlns="http://www.w3.org/2000/svg" width="24" height="24" viewBox="0 0 24 24">
  <g fill="#43C9AE" transform="translate(4 4)">
    <path d="M7.93513514,15.7362162 C7.84,15.7362162 7.64540541,15.6410811 7.54594595,15.6410811 L0.185945946,8.33297297 C-0.00864864865,8.1427027 -0.00864864865,7.85297297 0.185945946,7.65837838 C1.34918919,6.50378378 3.18702703,6.21837838 4.64,6.88864865 L8.51891892,3.04432432 L8.51891892,3.04432432 C8.22918919,2.75459459 8.03459459,2.27459459 8.03459459,1.88972973 C8.03459459,1.50486486 8.22918919,1.02486486 8.51891892,0.735135135 L8.71351351,0.544864865 C9.39243243,-0.12972973 10.4562162,-0.12972973 11.04,0.544864865 L15.4940541,4.96864865 C15.7837838,5.25837838 15.9783784,5.73837838 15.9783784,6.12324324 C15.9783784,6.50810811 15.7837838,6.89297297 15.4940541,7.1827027 L15.2994595,7.37297297 C14.6205405,8.04756757 13.5567568,8.04756757 12.972973,7.37297297 L12.972973,7.37297297 L9.09837838,11.2172973 C9.7772973,12.6572973 9.48756757,14.4864865 8.32432432,15.6410811 C8.12972973,15.7362162 8.03459459,15.7362162 7.93513514,15.7362162 Z"/>
    <path d="M4.54486486,11.987027 L1.34918919,15.1610811 C1.25405405,15.2562162 1.12432432,15.3037838 0.964324324,15.3037838 C0.76972973,15.3037838 0.67027027,15.2562162 0.570810811,15.1610811 C0.376216216,14.9708108 0.376216216,14.6810811 0.570810811,14.4864865 L3.76648649,11.3124324 L4.54486486,11.987027 Z"/>
  </g>
</svg>
