<?xml version="1.0" encoding="utf-8"?>
<!-- Generator: Adobe Illustrator 19.0.1, SVG Export Plug-In . SVG Version: 6.00 Build 0)  -->
<svg version="1.1" id="Capa_1" xmlns="http://www.w3.org/2000/svg" xmlns:xlink="http://www.w3.org/1999/xlink" x="0px" y="0px"
	 viewBox="-112 236.4 369.5 369.5" style="enable-background:new -112 236.4 369.5 369.5;" xml:space="preserve">
<style type="text/css">
	.st0{fill:#43C9AE;}
</style>
<g>
	<g>
		<g>
			<g>
				<path class="st0" d="M70.5,602.9c-2.2,0-6.7-2.2-9-2.2l-170.2-169c-4.5-4.4-4.5-11.1,0-15.6c26.9-26.7,69.4-33.3,103-17.8
					L84,309.4l0,0c-6.7-6.7-11.2-17.8-11.2-26.7c0-8.9,4.5-20,11.2-26.7l4.5-4.4c15.7-15.6,40.3-15.6,53.8,0l103,102.3
					c6.7,6.7,11.2,17.8,11.2,26.7s-4.5,17.8-11.2,24.5l-4.5,4.4c-15.7,15.6-40.3,15.6-53.8,0l0,0l-89.6,88.9
					c15.7,33.3,9,75.6-17.9,102.3C75,602.9,72.8,602.9,70.5,602.9z"/>
			</g>
			<g>
				<path class="st0" d="M-7.9,516.2l-73.9,73.4c-2.2,2.2-5.2,3.3-8.9,3.3c-4.5,0-6.8-1.1-9.1-3.3c-4.5-4.4-4.5-11.1,0-15.6
					l73.9-73.4L-7.9,516.2z"/>
			</g>
		</g>
	</g>
</g>
</svg>
