<svg xmlns="http://www.w3.org/2000/svg" width="24" height="24" viewBox="0 0 24 24">
  <path fill="#FFF" d="M3.06926316,0 C1.37410526,0 0,1.42460606 0,3.18181818 C0,4.93924242 1.37410526,6.36363636 3.06926316,6.36363636 C6.13831579,6.36363636 4.09221053,12.5151515 0,12.5151515 L0,14 C7.30315789,14 10.1654737,0 3.06926316,0 Z M11.9113684,0 C10.2162105,0 8.84210526,1.42460606 8.84210526,3.18181818 C8.84210526,4.93924242 10.2162105,6.36363636 11.9113684,6.36363636 C14.9804211,6.36363636 12.9343158,12.5151515 8.84210526,12.5151515 L8.84210526,14 C16.1452632,14 19.0075789,0 11.9113684,0 Z" transform="translate(4 5)"/>
</svg>
