<svg xmlns="http://www.w3.org/2000/svg" width="24" height="24" viewBox="0 0 24 24">
  <path fill="#FFF" fill-rule="evenodd" d="M19,5.59375 L5,5.59375 C4.71874859,5.59375 4.4817718,5.6901032 4.2890625,5.8828125 C4.0963532,6.0755218 4,6.31249859 4,6.59375 L4,15.59375 C4,15.8645847 4.0963532,16.0989573 4.2890625,16.296875 C4.4817718,16.4947927 4.71874859,16.59375 5,16.59375 L7.5,16.59375 C7.65625078,16.59375 7.77864539,16.5208341 7.8671875,16.375 C7.95572961,16.2291659 8,16.1354169 8,16.09375 C8,16.0416664 7.95833375,15.9427091 7.875,15.796875 C7.79166625,15.6510409 7.6666675,15.578125 7.5,15.578125 L5.609375,15.578125 C5.4427075,15.578125 5.29947977,15.5208339 5.1796875,15.40625 C5.05989523,15.2916661 5,15.1510425 5,14.984375 L5,7.21875 C5,7.0520825 5.05989523,6.90885477 5.1796875,6.7890625 C5.29947977,6.66927023 5.4427075,6.609375 5.609375,6.609375 L18.390625,6.59375 C18.5572925,6.59375 18.7005202,6.65364523 18.8203125,6.7734375 C18.9401048,6.89322977 19,7.0364575 19,7.203125 L19,14.984375 C19,15.1510425 18.9401048,15.2916661 18.8203125,15.40625 C18.7005202,15.5208339 18.5572925,15.578125 18.390625,15.578125 L12.09375,15.578125 L13.28125,14.5 C13.354167,14.4374997 13.3984374,14.3567713 13.4140625,14.2578125 C13.4296876,14.1588537 13.401042,14.072917 13.328125,14 L13.25,13.875 C13.177083,13.802083 13.0885422,13.765625 12.984375,13.765625 C12.8802078,13.765625 12.791667,13.802083 12.71875,13.875 L10.6875,15.734375 L10.546875,15.859375 C10.5156248,15.8906252 10.4895834,15.9296873 10.46875,15.9765625 C10.4479166,16.0234377 10.4375,16.0677081 10.4375,16.109375 C10.4375,16.1614586 10.4479166,16.2083331 10.46875,16.25 C10.4895834,16.2916669 10.5156248,16.3333331 10.546875,16.375 L10.6875,16.5 L12.6875,18.296875 C12.760417,18.369792 12.8489578,18.40625 12.953125,18.40625 C13.0572922,18.40625 13.145833,18.369792 13.21875,18.296875 L13.296875,18.171875 C13.369792,18.1093747 13.3984376,18.0286463 13.3828125,17.9296875 C13.3671874,17.8307287 13.322917,17.744792 13.25,17.671875 L12.046875,16.59375 L19,16.59375 C19.2812514,16.59375 19.5182282,16.4947927 19.7109375,16.296875 C19.9036468,16.0989573 20,15.8645847 20,15.59375 L20,6.59375 C20,6.31249859 19.9036468,6.0755218 19.7109375,5.8828125 C19.5182282,5.6901032 19.2812514,5.59375 19,5.59375 Z"/>
</svg>
