<svg xmlns="http://www.w3.org/2000/svg" width="24" height="24" viewBox="0 0 24 24">
  <path fill="#9AA5AB" fill-rule="evenodd" d="M19.46875,18.71875 L19.453125,18.71875 C19.3281244,18.71875 19.2265629,18.6744796 19.1484375,18.5859375 C19.0703121,18.4973954 19.0260417,18.3906256 19.015625,18.265625 C19.015625,18.2239581 18.9505215,17.9557316 18.8203125,17.4609375 C18.6901035,16.9661434 18.3723984,16.4322945 17.8671875,15.859375 C17.3619766,15.2864555 16.60938,14.7656273 15.609375,14.296875 C14.60937,13.8281227 13.2343837,13.59375 11.484375,13.59375 L11.484375,16.46875 C11.484375,16.5625005 11.4583336,16.6510412 11.40625,16.734375 C11.3541664,16.8177088 11.2864587,16.8802081 11.203125,16.921875 C11.1093745,16.9635419 11.0156255,16.9791667 10.921875,16.96875 C10.8281245,16.9583333 10.744792,16.9218753 10.671875,16.859375 L4.1875,11.484375 C4.12499969,11.4322914 4.07812516,11.3723962 4.046875,11.3046875 C4.01562484,11.2369788 4,11.166667 4,11.09375 C4,11.020833 4.01562484,10.9505212 4.046875,10.8828125 C4.07812516,10.8151038 4.12499969,10.7552086 4.1875,10.703125 L10.671875,5.390625 C10.744792,5.32812469 10.8281245,5.29166672 10.921875,5.28125 C11.0156255,5.27083328 11.1093745,5.28645812 11.203125,5.328125 C11.2864587,5.36979188 11.3541664,5.42968711 11.40625,5.5078125 C11.4583336,5.58593789 11.484375,5.67708281 11.484375,5.78125 L11.484375,8.578125 C12.2135453,8.59895844 12.8984343,8.67447852 13.5390625,8.8046875 C14.1796907,8.93489648 14.778643,9.11458219 15.3359375,9.34375 C15.893232,9.57291781 16.4036435,9.85156086 16.8671875,10.1796875 C17.3307315,10.5078141 17.7447898,10.8854145 18.109375,11.3125 C18.703128,12.0104202 19.1328112,12.7578085 19.3984375,13.5546875 C19.6640638,14.3515665 19.8385412,15.0937466 19.921875,15.78125 C20.0052088,16.4687534 20.028646,17.0494768 19.9921875,17.5234375 C19.955729,17.9973982 19.9375,18.2552081 19.9375,18.296875 C19.9166666,18.4218756 19.8645838,18.5234371 19.78125,18.6015625 C19.6979162,18.6796879 19.5937506,18.71875 19.46875,18.71875 Z M10.984375,12.59375 C12.2343813,12.59375 13.304683,12.6901032 14.1953125,12.8828125 C15.085942,13.0755218 15.8411427,13.3229152 16.4609375,13.625 C17.0807323,13.9270848 17.5885397,14.2682273 17.984375,14.6484375 C18.3802103,15.0286477 18.7135403,15.4062481 18.984375,15.78125 C18.911458,15.1770803 18.7473971,14.5364617 18.4921875,13.859375 C18.2369779,13.1822883 17.8541692,12.5520863 17.34375,11.96875 C17.010415,11.5729147 16.6250022,11.226564 16.1875,10.9296875 C15.7499978,10.632811 15.2630235,10.3828135 14.7265625,10.1796875 C14.1901015,9.97656148 13.6093781,9.82552133 12.984375,9.7265625 C12.3593719,9.62760367 11.6927119,9.578125 10.984375,9.578125 C10.8489577,9.578125 10.7317713,9.52864633 10.6328125,9.4296875 C10.5338537,9.33072867 10.484375,9.21354234 10.484375,9.078125 L10.484375,6.828125 L5.28125,11.09375 L10.484375,15.40625 L10.484375,13.09375 C10.484375,13.020833 10.4973957,12.9557295 10.5234375,12.8984375 C10.5494793,12.8411455 10.5833331,12.7864586 10.625,12.734375 C10.6770836,12.6927081 10.7343747,12.6588543 10.796875,12.6328125 C10.8593753,12.6067707 10.9218747,12.59375 10.984375,12.59375 Z"/>
</svg>
