<?xml version="1.0" encoding="UTF-8"?>
<svg width="22px" height="12px" viewBox="0 0 22 12" version="1.1" xmlns="http://www.w3.org/2000/svg" xmlns:xlink="http://www.w3.org/1999/xlink">
    <!-- Generator: Sketch 42 (36781) - http://www.bohemiancoding.com/sketch -->
    <title>icons / scripts / default</title>
    <desc>Created with Sketch.</desc>
    <defs>
        <path d="M21.0117762,12.0001944 L15.880475,17.1314956 C15.6816333,17.3303373 15.6873298,17.6440983 15.8843651,17.8411336 C16.0898082,18.0465767 16.3991162,18.0399106 16.5940031,17.8450238 L21.9285883,12.5104385 C21.9966654,12.4855377 22.0606887,12.4454711 22.1156349,12.390525 C22.2300088,12.276151 22.2786426,12.1295856 22.2656582,11.9884934 C22.2711099,11.8524991 22.22044,11.714669 22.1156349,11.6098639 C22.0589257,11.5531547 21.9943026,11.5126071 21.9263566,11.4877186 L16.5940031,6.15536512 C16.3951614,5.95652343 16.0814005,5.9622199 15.8843651,6.15925525 C15.678922,6.36469834 15.6855881,6.67400634 15.880475,6.86889323 L21.0117762,12.0001944 Z M2.98822378,11.9998056 L8.11952499,6.86850435 C8.31836668,6.66966266 8.31267022,6.35590171 8.11563487,6.15886637 C7.91019177,5.95342327 7.60088377,5.96008935 7.40599688,6.15497624 L2.07141167,11.4895615 C2.00333459,11.5144623 1.93931126,11.5545289 1.88436513,11.609475 C1.76999116,11.723849 1.72135735,11.8704144 1.73434184,12.0115066 C1.72889013,12.1475009 1.77956002,12.285331 1.88436513,12.3901361 C1.9410743,12.4468453 2.00569741,12.4873929 2.07364341,12.5122814 L7.40599688,17.8446349 C7.60483857,18.0434766 7.91859952,18.0377801 8.11563487,17.8407448 C8.32107796,17.6353017 8.31441188,17.3259937 8.11952499,17.1311068 L2.98822378,11.9998056 Z M12.9763291,6.48329839 C13.0478497,6.21638006 13.3298592,6.06002883 13.5887915,6.12940952 C13.8555245,6.20088043 14.0124847,6.48001661 13.942255,6.74211744 L11.0954252,17.3666306 C11.0239047,17.6335489 10.7418952,17.7899001 10.4829629,17.7205194 C10.2162299,17.6490485 10.0592697,17.3699124 10.1294994,17.1078115 L12.9763291,6.48329839 Z" id="path-1"></path>
        <mask id="mask-2" maskContentUnits="userSpaceOnUse" maskUnits="objectBoundingBox" x="0" y="0" width="20.535411" height="11.9864085" fill="white">
            <use xlink:href="#path-1"></use>
        </mask>
    </defs>
    <g id="Smart-Portal-Elements" stroke="none" stroke-width="1" fill="none" fill-rule="evenodd">
        <g id="Large-Device-Desktops" transform="translate(-323.000000, -1757.000000)" stroke="#556066" stroke-width="2">
            <g id="icons-/-scripts-/-default" transform="translate(322.000000, 1751.000000)">
                <use id="Combined-Shape" mask="url(#mask-2)" xlink:href="#path-1"></use>
            </g>
        </g>
    </g>
</svg>