<svg xmlns="http://www.w3.org/2000/svg" width="24" height="24" viewBox="0 0 24 24">
  <path fill="#556066" d="M14.4196509,4.20980766 C14.5140101,4.23868926 14.5845793,4.2948162 14.631778,4.37815044 C14.6790148,4.46152273 14.6880122,4.55033649 14.6590754,4.64447754 L10.5988856,18.6702771 C10.5699488,18.764266 10.5136764,18.8347006 10.4301828,18.8819994 C10.3467273,18.929108 10.2614419,18.9382405 10.1743646,18.9090925 L9.49951532,18.7243112 C9.40504177,18.6953916 9.33439629,18.6392646 9.28723576,18.5559304 C9.24007523,18.4727484 9.2310015,18.3839346 9.25997644,18.2897555 L13.3200519,4.26418421 C13.3490268,4.17004315 13.4054136,4.09938028 13.4889072,4.05230975 C13.5721339,4.00527728 13.6577243,3.99618281 13.744611,4.02510246 L14.4196509,4.20980766 Z M8.33510395,6.94773702 C8.33510395,7.04187808 8.29888527,7.12525037 8.22621917,7.19762559 L3.9484504,11.4671165 L8.22618105,15.7369119 C8.29873277,15.8092871 8.33506582,15.8926213 8.33506582,15.9866482 C8.33506582,16.0809034 8.29873277,16.1642757 8.22618105,16.236651 L7.68187153,16.7795792 C7.60935793,16.8519925 7.52597873,16.8881801 7.43150517,16.8881801 C7.33703161,16.8881801 7.25365241,16.8521067 7.1811388,16.7795792 L2.10888478,11.716967 C2.03633305,11.6445918 2,11.5612576 2,11.4671165 C2,11.3729755 2.03621868,11.2896412 2.10888478,11.217228 L7.18117693,6.15461575 C7.25369053,6.08224053 7.33722224,6.04590072 7.43154329,6.04590072 C7.52586435,6.04590072 7.60935793,6.08220248 7.68190966,6.15461575 L8.22621917,6.69784845 C8.2987709,6.77022367 8.33510395,6.85359596 8.33510395,6.94773702 Z M21.8102433,11.2171138 C21.8827951,11.289489 21.9190519,11.3728233 21.9190519,11.4670024 C21.9190519,11.5611434 21.8827951,11.6446299 21.8102433,11.7170051 L16.7378368,16.7795792 C16.6653232,16.8519925 16.5818296,16.8881801 16.4876229,16.8881801 C16.3931875,16.8881801 16.3099227,16.8521067 16.2371422,16.7795792 L15.6930614,16.236651 C15.6205097,16.1642757 15.5843673,16.0809415 15.5843673,15.9866482 C15.5843673,15.8926594 15.6205478,15.8092871 15.6930614,15.7369119 L19.9709065,11.4670785 L15.6930614,7.19747338 C15.6205097,7.12509816 15.5843673,7.04184002 15.5843673,6.94758481 C15.5843673,6.8533296 15.6205478,6.77010951 15.6930614,6.69769625 L16.2371422,6.15450159 C16.3099227,6.08212638 16.3931494,6.04578656 16.4876229,6.04578656 C16.5817915,6.04578656 16.6653232,6.08212638 16.7378368,6.15450159 L21.8102433,11.2171138 Z"/>
</svg>
