<?xml version="1.0" encoding="utf-8"?>
<!-- Generator: Adobe Illustrator 19.0.1, SVG Export Plug-In . SVG Version: 6.00 Build 0)  -->
<svg version="1.1" id="Capa_1" xmlns="http://www.w3.org/2000/svg" xmlns:xlink="http://www.w3.org/1999/xlink" x="0px" y="0px"
	 viewBox="56 -56 612 612" style="enable-background:new 56 -56 612 612;" xml:space="preserve">
<path d="M322.3,474.6C176.5,474.6,58,355.7,58,209.3C58,63.1,176.5-56,322.3-56S586.7,62.9,586.7,209.3S468.1,474.6,322.3,474.6z
	 M322.3-14.9C198.9-14.9,98.7,85.7,98.7,209.5S199.1,434,322.3,434S546,333.3,546,209.5S445.6-14.9,322.3-14.9z"/>
<path d="M647.6,556c-5.3,0-10.3-1.9-14.4-6l-153-153.4c-8-8-8-20.8,0-28.8c8-8,20.8-8,28.8,0l153,153.6c8,8,8,20.8,0,28.8
	C658.1,554.1,652.9,556,647.6,556z"/>
</svg>
