<svg xmlns="http://www.w3.org/2000/svg" width="24" height="24" viewBox="0 0 24 24">
  <path fill="#556066" fill-rule="evenodd" d="M11.4385089,10.7312601 L15.3039528,14.596704 C15.5005911,14.7933423 15.4959632,15.1167839 15.3063735,15.3063735 C15.1110722,15.5016749 14.7880291,15.4952779 14.596704,15.3039528 L10.7312601,11.4385089 C9.59426447,12.4135407 8.11657706,13.0026102 6.5013051,13.0026102 C2.91073344,13.0026102 0,10.0918768 0,6.5013051 C0,2.91073344 2.91073344,0 6.5013051,0 C10.0918768,0 13.0026102,2.91073344 13.0026102,6.5013051 C13.0026102,8.11657706 12.4135407,9.59426447 11.4385089,10.7312601 Z M6.5,12 C9.53756612,12 12,9.53756612 12,6.5 C12,3.46243388 9.53756612,1 6.5,1 C3.46243388,1 1,3.46243388 1,6.5 C1,9.53756612 3.46243388,12 6.5,12 Z" transform="translate(4 5)"/>
</svg>
