<svg xmlns="http://www.w3.org/2000/svg" width="24" height="24" viewBox="0 0 24 24">
  <g fill="#9AA5AB">
    <path d="M17.0951621,11.2817344 C16.5441107,10.9275469 15.8738182,10.6244063 15.10283,10.3804688 C14.9895652,10.3447031 14.8652964,10.3069219 14.7230988,10.2650156 C14.0827826,10.0760625 13.3808063,9.9001875 12.6365692,9.74217188 C11.9425613,9.5836875 11.4402688,9.46209375 11.1429723,9.38053125 C10.8761265,9.30773438 10.6089486,9.20526563 10.3479368,9.07565625 C10.131747,8.96873438 9.96493281,8.84559375 9.85228458,8.70970313 C9.7767747,8.61853125 9.74309881,8.517375 9.74309881,8.38167188 C9.74309881,8.23565625 9.79095652,8.01051563 10.2042213,7.74276563 C10.5986561,7.48715625 11.1487115,7.35754688 11.8389249,7.35754688 C12.7581818,7.35754688 13.1825929,7.53159375 13.3769644,7.67770313 C13.6997312,7.92014063 13.9852174,8.27189063 14.2255494,8.72310938 C14.2286324,8.72896875 14.2319526,8.73478125 14.2352727,8.74054688 C14.5005534,9.19190625 14.7396996,9.5030625 14.9872885,9.71929688 C15.2989565,9.99220313 15.7246957,10.1305313 16.2525534,10.1305313 C16.8278893,10.1305313 17.3378656,9.91903125 17.727415,9.51876563 C18.1100395,9.12557813 18.3122846,8.64932813 18.3122846,8.14153125 C18.3122846,7.65914063 18.1775336,7.167 17.9116364,6.67870313 C17.6544664,6.2064375 17.252585,5.75732813 16.7171383,5.34389063 C16.1919368,4.93842188 15.5308933,4.611375 14.7521265,4.37165625 C13.9874466,4.136625 13.0781976,4.01746875 12.0495178,4.01746875 C10.7669407,4.01746875 9.62793676,4.19601563 8.66418972,4.54828125 C7.65509881,4.91714063 6.86632411,5.4615 6.31973123,6.16603125 C5.7593834,6.888 5.4752253,7.72378125 5.4752253,8.65017188 C5.4752253,9.62025 5.74951779,10.4513438 6.29056126,11.1204375 C6.80395257,11.7555469 7.49990514,12.2609531 8.35906719,12.6227344 C8.36494862,12.6252656 8.37101976,12.6277969 8.37704348,12.6301875 C9.1716996,12.9628594 10.1633834,13.2561563 11.3268617,13.5023906 C12.1481265,13.6723125 12.8099289,13.8340313 13.293913,13.9831406 C13.701581,14.1087188 14.0325059,14.2872188 14.2772016,14.5133438 C14.4643162,14.6866406 14.547747,14.8960313 14.547747,15.1924219 C14.547747,15.4494844 14.4794941,15.7905938 13.9471779,16.1497969 C13.4700711,16.4718281 12.8186561,16.6350938 12.0110988,16.6350938 C11.4239526,16.6350938 10.9578024,16.55625 10.6252648,16.400625 C10.3015968,16.2494531 10.0525375,16.061625 9.88482213,15.8421563 C9.68404743,15.5796563 9.49143083,15.2408906 9.31408696,14.8395 C9.11013439,14.365875 8.84926482,13.993875 8.53816601,13.7333906 C8.18428458,13.4378906 7.75427668,13.2880313 7.26004743,13.2880313 C6.67366008,13.2880313 6.17705929,13.4732813 5.78428458,13.8384844 C5.38529644,14.2089844 5.17437154,14.6832656 5.17437154,15.21 C5.17437154,15.9445781 5.43960474,16.6950938 5.96271937,17.4406875 C6.46762055,18.1602188 7.13146245,18.7427813 7.93901976,19.1738906 C9.03993676,19.7510156 10.4371542,20.0436563 12.0918261,20.0436563 C13.4679842,20.0436563 14.6833518,19.8310313 15.704253,19.4117344 C16.7606324,18.9777188 17.5806166,18.36 18.1415336,17.5755938 C18.1415336,17.5755469 18.141581,17.5755 18.141581,17.5755 C18.7094704,16.780875 18.9973755,15.8743125 18.9973755,14.8809844 C18.9973755,14.0516719 18.8265296,13.3307813 18.4893913,12.7381875 C18.1555731,12.1525313 17.6866719,11.6624063 17.0951621,11.2817344 Z M17.3511937,17.0240625 C16.8971858,17.6589844 16.2180711,18.165375 15.3327273,18.5290781 C14.430166,18.8998125 13.3397312,19.0878281 12.0916838,19.0878281 C10.5967115,19.0878281 9.35207905,18.8326875 8.39549407,18.3312187 C7.72619763,17.9738437 7.17509881,17.4909844 6.75770751,16.8960937 C6.34904348,16.3135781 6.14181818,15.7463437 6.14181818,15.2102344 C6.14181818,14.9467031 6.24156522,14.7260156 6.44698814,14.5352812 C6.6575336,14.3395312 6.92343083,14.2444219 7.26,14.2444219 C7.52295652,14.2444219 7.73682213,14.3162344 7.91312253,14.4635625 C8.1075415,14.6264062 8.27933597,14.878875 8.42547036,15.2182031 C8.63501976,15.6925312 8.86629249,16.0964531 9.11274308,16.4187187 C9.37546245,16.7625937 9.7452332,17.0474531 10.211336,17.2651875 C10.6739289,17.4817031 11.2794308,17.5914844 12.0109091,17.5914844 C13.0167273,17.5914844 13.851747,17.3722031 14.492585,16.9396406 C15.171083,16.4818125 15.5150988,15.894 15.5150988,15.1926094 C15.5150988,14.6332969 15.3211067,14.1700781 14.9381976,13.8154687 C14.5858814,13.4898281 14.1294545,13.2391875 13.5816285,13.0704844 C13.0682846,12.9122812 12.3763162,12.7427812 11.5270672,12.5670937 C10.4233043,12.3335156 9.488917,12.0579375 8.7498498,11.7480937 C8.74757312,11.7471562 8.74524901,11.7462187 8.74297233,11.7452812 C8.74240316,11.7450469 8.74188142,11.7448594 8.74131225,11.744625 C8.02951779,11.4454219 7.45920949,11.0346562 7.04613439,10.5237187 C6.64558103,10.0283437 6.44243478,9.39801562 6.44243478,8.65026562 C6.44243478,7.93921875 6.65933597,7.2991875 7.08720949,6.74798437 C7.52105929,6.18876562 8.1644585,5.75039062 8.99952569,5.44514062 C9.85541502,5.13234375 10.8815336,4.97371875 12.0492332,4.97371875 C12.9803004,4.97371875 13.7929802,5.07839062 14.4643636,5.2846875 C15.1309091,5.48990625 15.6884585,5.76332812 16.1212174,6.09745312 C16.5504664,6.42885937 16.8661186,6.77690625 17.0593992,7.13189062 C17.2486008,7.479375 17.3445059,7.81903125 17.3445059,8.14157812 C17.3445059,8.40473437 17.241581,8.63840625 17.0298024,8.856 C16.8212964,9.07021875 16.5669249,9.17442187 16.2522688,9.17442187 C16.0567115,9.17442187 15.7898656,9.14475 15.6281265,9.00323437 C15.4660553,8.86167187 15.2805059,8.61454687 15.0765534,8.26865625 C14.7708142,7.69725 14.3959209,7.24232812 13.9623083,6.91664062 C13.5011858,6.57 12.8064664,6.4014375 11.8385929,6.4014375 C10.956664,6.4014375 10.2281739,6.58373437 9.67337549,6.94321875 C9.07745455,7.329375 8.7752253,7.81335937 8.7752253,8.38176562 C8.7752253,8.73857812 8.88559684,9.05273437 9.10339921,9.31560937 C9.30298814,9.55640625 9.576,9.76345312 9.91394466,9.93051562 C10.2306403,10.0878281 10.5573913,10.2128906 10.8845217,10.3021406 C11.1952885,10.3873594 11.712664,10.51275 12.4222292,10.6747031 C12.4246482,10.6752656 12.4271146,10.6757812 12.4295336,10.6763437 C13.1504822,10.8293437 13.8288854,10.9992187 14.4461502,11.1813281 C14.5824664,11.2215 14.7008063,11.2574531 14.8078103,11.29125 C15.4966008,11.509125 16.088585,11.7756094 16.5671146,12.0831562 C17.0263399,12.3787969 17.3893281,12.7570781 17.6456917,13.2073125 C17.9003478,13.654875 18.0294545,14.218125 18.0294545,14.8813125 C18.0296917,15.6730781 17.8014545,16.3940625 17.3511937,17.0240625 Z"/>
    <path d="M23.3412332,14.3856563 C23.4941502,13.6419375 23.5716522,12.8809687 23.5716522,12.1209844 C23.5716522,9.09867188 22.3807115,6.25715625 20.2181976,4.11998438 C18.0557312,1.98285938 15.1805217,0.805828125 12.1222292,0.805828125 C11.5287273,0.805828125 10.9320474,0.851578125 10.3458972,0.941953125 C9.29264822,0.325078125 8.09288538,0 6.86371542,0 C3.09049802,0 0.0207747036,3.03370312 0.0207747036,6.76260938 C0.0207747036,7.90415625 0.31370751,9.02765625 0.869407115,10.0237969 C0.738972332,10.7118281 0.672948617,11.4164063 0.672948617,12.1209375 C0.672948617,15.14325 1.86388933,17.9846719 4.02640316,20.1218906 C6.188917,22.2591094 9.06403162,23.4360938 12.1222767,23.4360938 C12.7681897,23.4360938 13.4167589,23.382 14.052664,23.2753125 C15.0035099,23.7499219 16.0658656,24 17.1363794,24 C20.9095968,24 23.9793202,20.9662969 23.9792253,17.2373438 C23.9791779,16.2406875 23.7645534,15.2821875 23.3412332,14.3856563 Z M17.1363794,23.0438437 C16.1679368,23.0438437 15.2076522,22.8056719 14.3591146,22.3550156 C14.2883953,22.3174219 14.2096126,22.2980625 14.130166,22.2980625 C14.1008063,22.2980625 14.0713992,22.3006875 14.0421818,22.3059844 C13.4113992,22.4212969 12.7654862,22.4797969 12.1222292,22.4797969 C6.34254545,22.4797969 1.64044269,17.8327969 1.64044269,12.1208437 C1.64044269,11.4195469 1.71177866,10.7184375 1.85255336,10.0370625 C1.8764585,9.921375 1.8561581,9.80104687 1.79568379,9.69923437 C1.26744664,8.81095312 0.988268775,7.79545312 0.988268775,6.7625625 C0.988268775,3.56090625 3.62395257,0.95615625 6.86366798,0.95615625 C7.97236364,0.95615625 9.05312253,1.26417187 9.98912253,1.84701562 C10.0902925,1.91001562 10.2114308,1.93364062 10.329249,1.91367187 C10.9191937,1.81307812 11.522419,1.76207812 12.1222292,1.76207812 C17.9020079,1.76207812 22.6041581,6.40907812 22.6041581,12.1210312 C22.6041581,12.8679844 22.5224348,13.6159687 22.3613123,14.3442187 C22.3377866,14.4504844 22.3516364,14.5614844 22.4006324,14.6589844 C22.8060237,15.4655156 23.0116364,16.3330781 23.0117312,17.2373437 C23.0117787,20.4390469 20.3760949,23.0438437 17.1363794,23.0438437 Z"/>
  </g>
</svg>
