<svg xmlns="http://www.w3.org/2000/svg" width="24" height="24" viewBox="0 0 24 24">
  <path fill="#1F8CEB" fill-rule="evenodd" d="M19.5,15.015625 C19.5,15.0572919 19.5026041,15.096354 19.5078125,15.1328125 C19.5130209,15.169271 19.515625,15.2083331 19.515625,15.25 C19.515625,15.8750031 19.2447944,16.4062478 18.703125,16.84375 C18.1614556,17.2812522 17.5104205,17.5 16.75,17.5 C15.9895795,17.5 15.3385444,17.2812522 14.796875,16.84375 C14.2552056,16.4062478 13.984375,15.8750031 13.984375,15.25 C13.984375,14.6249969 14.2552056,14.0937522 14.796875,13.65625 C15.3385444,13.2187478 15.9895795,13 16.75,13 C17.083335,13 17.398436,13.0442704 17.6953125,13.1328125 C17.992189,13.2213546 18.2604155,13.3437492 18.5,13.5 L18.5,5.171875 L10,7.375 L10,17.5625 C10,17.5937502 10.0026041,17.6249998 10.0078125,17.65625 C10.0130209,17.6875002 10.015625,17.7187498 10.015625,17.75 C10.015625,18.3750031 9.74479438,18.9062478 9.203125,19.34375 C8.66145563,19.7812522 8.01042047,20 7.25,20 C6.48957953,20 5.83854437,19.7812522 5.296875,19.34375 C4.75520563,18.9062478 4.484375,18.3750031 4.484375,17.75 C4.484375,17.1249969 4.75520563,16.5937522 5.296875,16.15625 C5.83854437,15.7187478 6.48957953,15.5 7.25,15.5 C7.583335,15.5 7.89843602,15.5442704 8.1953125,15.6328125 C8.49218898,15.7213546 8.76041547,15.8437492 9,16 L9,7.0625 C9,7.02083312 9.00520828,6.97916688 9.015625,6.9375 C9.02604172,6.89583312 9.04166656,6.85937516 9.0625,6.828125 C9.08333344,6.74479125 9.12499969,6.67447945 9.1875,6.6171875 C9.25000031,6.55989555 9.32291625,6.52083344 9.40625,6.5 L18.75,4.0625 C18.7812502,4.04166656 18.8177081,4.02604172 18.859375,4.015625 C18.9010419,4.00520828 18.9479164,4 19,4 C19.1250006,4 19.2317704,4.03906211 19.3203125,4.1171875 C19.4088546,4.19531289 19.4635416,4.29166609 19.484375,4.40625 C19.4947917,4.43750016 19.5,4.4661457 19.5,4.4921875 L19.5,15.015625 Z M7.265625,19 C7.78646094,19 8.21093586,18.8645847 8.5390625,18.59375 C8.86718914,18.3229153 9.03125,18.0416681 9.03125,17.75 C9.03125,17.7395833 9.02864586,17.7317709 9.0234375,17.7265625 C9.01822914,17.7213541 9.015625,17.7135417 9.015625,17.703125 C9.015625,17.6822916 9.01302086,17.6588543 9.0078125,17.6328125 C9.00260414,17.6067707 9,17.5833334 9,17.5625 L9,17.546875 C8.92708297,17.286457 8.73437656,17.0468761 8.421875,16.828125 C8.10937344,16.6093739 7.72396063,16.5 7.265625,16.5 C6.74478906,16.5 6.32031414,16.6354153 5.9921875,16.90625 C5.66406086,17.1770847 5.5,17.4583319 5.5,17.75 C5.5,18.0416681 5.66406086,18.3229153 5.9921875,18.59375 C6.32031414,18.8645847 6.74478906,19 7.265625,19 Z M16.75,16.5 C17.2604192,16.5 17.6796859,16.3645847 18.0078125,16.09375 C18.3359391,15.8229153 18.5,15.5416681 18.5,15.25 C18.5,14.9583319 18.3359391,14.6770847 18.0078125,14.40625 C17.6796859,14.1354153 17.2604192,14 16.75,14 C16.2291641,14 15.8072933,14.1354153 15.484375,14.40625 C15.1614567,14.6770847 15,14.9583319 15,15.25 C15,15.5416681 15.1614567,15.8229153 15.484375,16.09375 C15.8072933,16.3645847 16.2291641,16.5 16.75,16.5 Z"/>
</svg>
