<?xml version="1.0" encoding="utf-8"?>
<!-- Generator: Adobe Illustrator 19.0.1, SVG Export Plug-In . SVG Version: 6.00 Build 0)  -->
<svg version="1.1" id="Capa_1" xmlns="http://www.w3.org/2000/svg" xmlns:xlink="http://www.w3.org/1999/xlink" x="0px" y="0px"
	 viewBox="-112 236.4 369.5 369.5" style="enable-background:new -112 236.4 369.5 369.5;" xml:space="preserve">
<style type="text/css">
	.st0{fill:#E9A93F;}
</style>
<g>
	<path class="st0" d="M165.4,599.3c-4.4,0-11.8-3-17.8-4.4l-69.6-34.1c-3-3-7.4-3-10.4,0l-69.6,34.1c-14.8,7.4-34.1,3-44.4-10.4
		c-7.4-7.4-10.4-19.3-7.4-29.6l10.4-77c0-4.4,0-7.4-3-10.4l-54.8-54.8c-10.4-10.4-11.8-25.2-10.4-37c4.4-11.8,14.8-22.2,29.6-25.2
		l77-11.8c4.4,0,7.4-3,10.4-7.4l34.1-69.6c7.4-11.8,19.3-19.3,32.6-19.3s26.7,7.4,32.6,19.3l34.1,69.6c3,3,4.4,4.4,10.4,7.4l77,11.8
		c14.8,3,25.2,11.8,29.6,25.2c4.4,13.3,0,26.7-10.4,37l-54.8,54.8c-3,3-4.4,7.4-3,10.4l11.8,77c3,10.4-3,22.2-7.4,29.6
		C184.7,594.9,175.8,599.3,165.4,599.3z"/>
</g>
</svg>
