<?xml version="1.0" encoding="utf-8"?>
<!-- Generator: Adobe Illustrator 19.0.1, SVG Export Plug-In . SVG Version: 6.00 Build 0)  -->
<svg version="1.1" id="Capa_1" xmlns="http://www.w3.org/2000/svg" xmlns:xlink="http://www.w3.org/1999/xlink" x="0px" y="0px"
	 viewBox="56 -56 612 612" style="enable-background:new 56 -56 612 612;" xml:space="preserve">
<style type="text/css">
	.st0{fill:#FEBC80;}
</style>
<path class="st0" d="M654.7,223c12-11.4,16.3-28.2,11.1-43.8c-5.2-15.6-18.8-26.8-35.4-29.1l-148.2-21c-6.3-0.9-11.8-4.7-14.6-10.3
	L401.4-12.2C393.9-26.9,378.8-36,362-36c-16.8,0-31.9,9.1-39.4,23.8l-66.3,130.9c-2.8,5.6-8.3,9.4-14.6,10.3L93.6,150
	c-16.7,2.4-30.2,13.5-35.4,29.1c-5.2,15.6-0.9,32.4,11.1,43.8l107.2,101.9c4.6,4.3,6.7,10.6,5.6,16.7l-25.3,143.8
	c-2.2,12.7,1.2,25,9.6,34.7c13.1,15.1,35.9,19.7,54.1,10.4L353,462.6c5.5-2.8,12.5-2.8,18,0l132.5,67.9c6.4,3.3,13.3,5,20.4,5
	c13,0,25.2-5.6,33.7-15.4c8.4-9.7,11.8-22,9.6-34.7l-25.3-143.8c-1.1-6.1,1-12.4,5.6-16.7L654.7,223z"/>
</svg>
