<?xml version="1.0" encoding="utf-8"?>
<!-- Generator: Adobe Illustrator 19.0.1, SVG Export Plug-In . SVG Version: 6.00 Build 0)  -->
<svg version="1.1" id="图层_1" xmlns="http://www.w3.org/2000/svg" xmlns:xlink="http://www.w3.org/1999/xlink" x="0px" y="0px"
	 viewBox="-277 400.9 40 40" style="enable-background:new -277 400.9 40 40;" xml:space="preserve">
<style type="text/css">
	.st0{fill:#E9A93F;}
</style>
<g>
	<path class="st0" d="M-251.2,432.6c-0.3,0-0.8-0.2-1.2-0.3l-4.7-2.3c-0.2-0.2-0.5-0.2-0.7,0l-4.7,2.3c-1,0.5-2.3,0.2-3-0.7
		c-0.5-0.5-0.7-1.3-0.5-2l0.7-5.2c0-0.3,0-0.5-0.2-0.7l-3.7-3.7c-0.7-0.7-0.8-1.7-0.7-2.5c0.3-0.8,1-1.5,2-1.7l5.2-0.8
		c0.3,0,0.5-0.2,0.7-0.5l2.3-4.7c0.5-0.8,1.3-1.3,2.2-1.3s1.8,0.5,2.2,1.3l2.3,4.7c0.2,0.2,0.3,0.3,0.7,0.5l5.2,0.8
		c1,0.2,1.7,0.8,2,1.7s0,1.8-0.7,2.5l-3.7,3.7c-0.2,0.2-0.3,0.5-0.2,0.7l0.8,5.2c0.2,0.7-0.2,1.5-0.5,2
		C-249.9,432.3-250.5,432.6-251.2,432.6z"/>
</g>
</svg>
