<svg xmlns="http://www.w3.org/2000/svg" width="24" height="24" viewBox="0 0 24 24">
  <path fill="#E9A93F" d="M14.6744467,6.81177009 C14.9742147,6.50117227 15.0741373,6.0620512 14.9442379,5.65506094 C14.813816,5.24437077 14.4764365,4.94925377 14.0749108,4.89463177 L10.4477184,4.33769773 C10.2939484,4.31750281 10.1593625,4.21732453 10.0879968,4.06994098 L8.46924976,0.64265459 C8.2884851,0.246350157 7.91154557,-0.00356214976 7.5,3.83912234e-05 C7.09031711,3.83912234e-05 6.72060328,0.246374601 6.5407425,0.64265459 L4.90201094,4.05923071 C4.83260992,4.20377605 4.70235579,4.3035001 4.55228164,4.32698746 L0.915096958,4.8839215 C0.515406333,4.93747285 0.175669302,5.23736041 0.0557621145,5.64435067 C-0.0741373386,6.05134093 0.0257853176,6.50117227 0.325553286,6.80105982 L2.95351914,9.47862732 C3.0534418,9.58573002 3.11339539,9.74638407 3.0834186,9.90703812 L2.46389813,13.6877634 C2.40770275,14.0146677 2.49630343,14.3510098 2.7037125,14.5981364 C3.023465,14.9944164 3.58303188,15.1122293 4.02269156,14.8658931 L7.27017789,13.0879883 C7.40885505,13.0151569 7.57116041,13.0151569 7.70983758,13.0879883 L10.9573239,14.8658931 C11.4046257,15.1178966 11.9548941,15.0070303 12.2862952,14.5981364 C12.4901389,14.3491089 12.5749922,14.0129875 12.5161173,13.6877634 L11.8965969,9.90703812 C11.8754237,9.74834444 11.9276084,9.58853153 12.0364886,9.47862732 L14.6744467,6.81177009 Z" transform="translate(5 4)"/>
</svg>
