<svg xmlns="http://www.w3.org/2000/svg" width="24" height="24" viewBox="0 0 24 24">
  <path fill="#E9A93F" d="M11.8784725,15.36 C11.6651392,15.36 11.3451392,15.2533333 11.1318058,15.1466667 L8.14513918,13.6533333 C8.03847251,13.5466667 7.82513918,13.5466667 7.71847251,13.6533333 L4.73180584,15.1466667 C4.09180584,15.4666667 3.23847251,15.2533333 2.81180584,14.72 C2.49180584,14.4 2.38513918,13.8666667 2.49180584,13.44 L2.91847251,10.1333333 C2.91847251,9.92 2.91847251,9.81333333 2.81180584,9.70666667 L0.465139176,7.36 C0.0384725093,6.93333333 -0.0681941573,6.29333333 0.0384725093,5.76 C0.251805843,5.22666667 0.678472509,4.8 1.31847251,4.69333333 L4.62513918,4.16 C4.83847251,4.16 4.94513918,4.05333333 5.05180584,3.84 L6.54513918,0.853333333 C6.86513918,0.32 7.39847251,1.50990331e-14 7.93180584,1.50990331e-14 C8.46513918,1.50990331e-14 9.10513918,0.32 9.31847251,0.853333333 L10.8118058,3.84 C10.9184725,3.94666667 11.0251392,4.05333333 11.2384725,4.16 L14.5451392,4.69333333 C15.1851392,4.8 15.6118058,5.22666667 15.8251392,5.76 C16.0384725,6.29333333 15.8251392,6.93333333 15.3984725,7.36 L13.0518058,9.70666667 C12.9451392,9.81333333 12.8384725,10.0266667 12.9451392,10.1333333 L13.4784725,13.44 C13.5851392,13.8666667 13.3718058,14.4 13.1584725,14.72 C12.7318058,15.1466667 12.3051392,15.36 11.8784725,15.36 Z" transform="translate(4 4)"/>
</svg>
