<svg xmlns="http://www.w3.org/2000/svg" width="24" height="24" viewBox="0 0 24 24">
  <path fill="#556066" fill-rule="evenodd" d="M12,5.203125 L10.171875,9 L9.84375,9.671875 L4.96875,10.390625 L8.5,13.921875 L8.390625,14.625 L7.671875,18.84375 L12,16.53125 L16.328125,18.84375 L15.609375,14.625 L15.5,13.921875 L19.03125,10.390625 L14.140625,9.671875 L12,5.203125 Z M12,4.25 C12.2291678,4.25 12.4374991,4.30729109 12.625,4.421875 C12.8125009,4.53645891 12.9531245,4.69270734 13.046875,4.890625 L14.859375,8.65625 L19.03125,9.265625 C19.2395844,9.29687516 19.4270825,9.38020766 19.59375,9.515625 C19.7604175,9.65104234 19.880208,9.82291563 19.953125,10.03125 C20.0156253,10.2291677 20.0234377,10.4296865 19.9765625,10.6328125 C19.9296873,10.8359385 19.8281258,11.0156242 19.671875,11.171875 L16.625,14.21875 L17.328125,18.453125 C17.3697919,18.6614594 17.3463546,18.8645823 17.2578125,19.0625 C17.1692704,19.2604177 17.0364592,19.4218744 16.859375,19.546875 C16.7552078,19.619792 16.6458339,19.6718748 16.53125,19.703125 C16.4166661,19.7343752 16.3020839,19.75 16.1875,19.75 C16.0937495,19.75 16.0000005,19.7395834 15.90625,19.71875 C15.8124995,19.6979166 15.7187505,19.6614586 15.625,19.609375 L12,17.65625 L8.359375,19.609375 C8.27604125,19.6614586 8.18750047,19.6979166 8.09375,19.71875 C7.99999953,19.7395834 7.90625047,19.75 7.8125,19.75 C7.68749937,19.75 7.57031305,19.7343752 7.4609375,19.703125 C7.35156195,19.6718748 7.24479219,19.619792 7.140625,19.546875 C6.96354078,19.4218744 6.83072961,19.2604177 6.7421875,19.0625 C6.65364539,18.8645823 6.63020812,18.6614594 6.671875,18.453125 L7.375,14.21875 L4.328125,11.171875 C4.17187422,11.0156242 4.07031273,10.8359385 4.0234375,10.6328125 C3.97656227,10.4296865 3.98437469,10.2291677 4.046875,10.03125 C4.11979203,9.83333234 4.2395825,9.6640632 4.40625,9.5234375 C4.5729175,9.3828118 4.76041563,9.29687516 4.96875,9.265625 L9.140625,8.65625 L10.953125,4.890625 C11.0468755,4.69270734 11.1874991,4.53645891 11.375,4.421875 C11.5625009,4.30729109 11.7708322,4.25 12,4.25 Z"/>
</svg>
