<svg xmlns="http://www.w3.org/2000/svg" width="24" height="24" viewBox="0 0 24 24">
  <path fill="#1EBFE9" d="M15.69,0.39 C14.4534627,0.152933496 13.1988569,0.0224544892 11.94,0 C10.84,0 9.84,0.3 9.18,0.57 C8.81412129,0.715716318 8.4238278,0.790381159 8.03,0.79 L7.97,0.79 C7.57,0.79 7.19,0.72 6.82,0.57 C5.94629521,0.212144958 5.01396143,0.0188975926 4.07,0 C2.80445419,0.0213083182 1.54310795,0.151792412 0.3,0.39 C0.129103661,0.426718919 0.00529959709,0.575283795 4.21884749e-17,0.75 L4.21884749e-17,2.22 C4.21884749e-17,2.36 0.08,2.48 0.2,2.55 L0.36,2.75 C0.39,2.8 0.43,3 0.46,3.15 C0.56,3.63 0.72,4.35 1.34,5 C2.29,6 3.58,6 4.95,6 C6.24,6 7.17,5.15 7.65,3.53 C7.72,3.27 7.77,2.97 7.8,2.64 C7.81,2.54 7.9,2.47 8,2.47 C8.1,2.47 8.19,2.54 8.2,2.64 C8.23,2.97 8.28,3.27 8.35,3.53 C8.83,5.15 9.76,6 11.05,6 C12.42,6 13.71,6 14.66,5 C15.28,4.36 15.44,3.63 15.54,3.14 C15.57,3 15.61,2.8 15.64,2.75 L15.8,2.55 C15.92,2.48 16,2.36 16,2.22 L16,0.75 C15.9936609,0.572234922 15.8648551,0.422654023 15.69,0.39 L15.69,0.39 Z" transform="translate(4 9)"/>
</svg>
