<svg xmlns="http://www.w3.org/2000/svg" width="24" height="24" viewBox="0 0 24 24">
  <path fill="#1F8CEB" fill-rule="evenodd" d="M20,10.5 C20,10.7395845 19.9869793,10.9739572 19.9609375,11.203125 C19.9348957,11.4322928 19.8385425,11.6302075 19.671875,11.796875 L11.765625,19.703125 C11.6614578,19.7968755 11.5494798,19.8697914 11.4296875,19.921875 C11.3098952,19.9739586 11.1822923,20 11.046875,20 C10.9114577,20 10.7838548,19.9739586 10.6640625,19.921875 C10.5442702,19.8697914 10.4375005,19.7968755 10.34375,19.703125 L4.296875,13.65625 C4.20312453,13.5624995 4.13020859,13.4557298 4.078125,13.3359375 C4.02604141,13.2161452 4,13.0885423 4,12.953125 C4,12.8177077 4.02604141,12.6901048 4.078125,12.5703125 C4.13020859,12.4505202 4.20312453,12.3385422 4.296875,12.234375 L12.203125,4.328125 C12.3697925,4.1614575 12.565103,4.0651043 12.7890625,4.0390625 C13.013022,4.0130207 13.2135408,4 13.390625,4 L18.78125,4 C19.114585,4 19.4010405,4.11979047 19.640625,4.359375 C19.8802095,4.59895953 20,4.885415 20,5.21875 L20,10.5 Z M18.953125,11.09375 C18.9739584,11.0520831 18.9869791,10.9687506 18.9921875,10.84375 C18.9973959,10.7187494 19,10.6093755 19,10.515625 L19,5.21875 C19,5.15624969 18.9791669,5.10416688 18.9375,5.0625 C18.8958331,5.02083312 18.8437503,5 18.78125,5 L13.390625,5 C13.3281247,5 13.2395839,5.00260414 13.125,5.0078125 C13.0104161,5.01302086 12.9375002,5.02604156 12.90625,5.046875 L5,12.953125 L11.046875,19 L18.953125,11.09375 Z M16,6 C16.5520861,6 17.0234355,6.19531055 17.4140625,6.5859375 C17.8046895,6.97656445 18,7.44791391 18,8 C18,8.55208609 17.8046895,9.02343555 17.4140625,9.4140625 C17.0234355,9.80468945 16.5520861,10 16,10 C15.4479139,10 14.9765645,9.80468945 14.5859375,9.4140625 C14.1953105,9.02343555 14,8.55208609 14,8 C14,7.44791391 14.1953105,6.97656445 14.5859375,6.5859375 C14.9765645,6.19531055 15.4479139,6 16,6 Z M16,9 C16.2812514,9 16.5182282,8.9036468 16.7109375,8.7109375 C16.9036468,8.5182282 17,8.28125141 17,8 C17,7.71874859 16.9036468,7.4817718 16.7109375,7.2890625 C16.5182282,7.0963532 16.2812514,7 16,7 C15.7291653,7 15.4947927,7.0963532 15.296875,7.2890625 C15.0989573,7.4817718 15,7.71874859 15,8 C15,8.28125141 15.0989573,8.5182282 15.296875,8.7109375 C15.4947927,8.9036468 15.7291653,9 16,9 Z"/>
</svg>
