<svg xmlns="http://www.w3.org/2000/svg" width="24" height="24" viewBox="0 0 24 24">
  <path fill="#556066" fill-rule="evenodd" d="M15.65625,17.046875 L16.078125,17.28125 C16.3593764,17.4375008 16.5,17.6406237 16.5,17.890625 L16.5,19.15625 C16.5,19.3958345 16.4166675,19.5963534 16.25,19.7578125 C16.0833325,19.9192716 15.8854178,20 15.65625,20 L4.84375,20 C4.61458219,20 4.4166675,19.9192716 4.25,19.7578125 C4.0833325,19.5963534 4,19.3958345 4,19.15625 L4,17.890625 C4,17.6614572 4.14062359,17.4635425 4.421875,17.296875 L4.84375,17.046875 L8.078125,15.296875 C7.48437203,14.8281227 7.07291781,14.2031289 6.84375,13.421875 C6.61458219,12.6406211 6.5,12.0208356 6.5,11.5625 L6.5,9.453125 C6.5,9.09895656 6.60937391,8.74739758 6.828125,8.3984375 C7.04687609,8.04947742 7.33333156,7.73437641 7.6875,7.453125 C8.04166844,7.17187359 8.44531023,6.94270922 8.8984375,6.765625 C9.35156477,6.58854078 9.80728937,6.5 10.265625,6.5 C10.7343773,6.5 11.1927061,6.58854078 11.640625,6.765625 C12.0885439,6.94270922 12.4869774,7.17187359 12.8359375,7.453125 C13.1848976,7.73437641 13.4661448,8.04947742 13.6796875,8.3984375 C13.8932302,8.74739758 14,9.09895656 14,9.453125 L14,11.5625 C14,12.0729192 13.8984385,12.7083295 13.6953125,13.46875 C13.4921865,14.2291705 13.0989612,14.8437477 12.515625,15.3125 L15.65625,17.046875 Z M15.5,19 L15.5,18.109375 C15.4687498,18.0781248 15.4322919,18.0520834 15.390625,18.03125 L15.265625,17.96875 C15.2552083,17.96875 15.2421876,17.9635417 15.2265625,17.953125 C15.2109374,17.9427083 15.1927084,17.9322917 15.171875,17.921875 L12.03125,16.1875 C11.8854159,16.1041662 11.7656255,15.9921882 11.671875,15.8515625 C11.5781245,15.7109368 11.5260417,15.5572925 11.515625,15.390625 C11.4947916,15.2239575 11.5182288,15.0625008 11.5859375,14.90625 C11.6536462,14.7499992 11.7552077,14.6197922 11.890625,14.515625 C12.3177105,14.18229 12.6093742,13.7057323 12.765625,13.0859375 C12.9218758,12.4661427 13,11.9583353 13,11.5625 L13,9.453125 C13,9.08853984 12.7265652,8.67187734 12.1796875,8.203125 C11.6328098,7.73437266 10.9947953,7.5 10.265625,7.5 C9.55728812,7.5 8.91927367,7.73437266 8.3515625,8.203125 C7.78385133,8.67187734 7.5,9.08853984 7.5,9.453125 L7.5,11.5625 C7.5,11.9583353 7.59374906,12.4661427 7.78125,13.0859375 C7.96875094,13.7057323 8.27603953,14.18229 8.703125,14.515625 C8.82812563,14.6197922 8.92447883,14.7499992 8.9921875,14.90625 C9.05989617,15.0625008 9.08333344,15.2239575 9.0625,15.390625 C9.05208328,15.5572925 9.00000047,15.7109368 8.90625,15.8515625 C8.81249953,15.9921882 8.69270906,16.098958 8.546875,16.171875 L5.3125,17.9375 C5.30208328,17.9375 5.29166672,17.9401041 5.28125,17.9453125 C5.27083328,17.9505209 5.26041672,17.9583333 5.25,17.96875 C5.20833313,17.9791667 5.16406273,17.9999998 5.1171875,18.03125 L5,18.109375 L5,19 L15.5,19 Z M19.15625,14.5625 L19.578125,14.796875 C19.8593764,14.9531258 20,15.1562487 20,15.40625 L20,16.65625 C20,16.8958345 19.9166675,17.0963534 19.75,17.2578125 C19.5833325,17.4192716 19.3854178,17.5 19.15625,17.5 L17.5,17.5 C17.4374997,17.2812489 17.3723962,17.0885425 17.3046875,16.921875 C17.2369788,16.7552075 17.1302091,16.6145839 16.984375,16.5 L19,16.5 L19,15.609375 C18.9687498,15.5885416 18.9322919,15.5651043 18.890625,15.5390625 C18.8489581,15.5130207 18.8072919,15.4947917 18.765625,15.484375 C18.7552083,15.4739583 18.7421876,15.4661459 18.7265625,15.4609375 C18.7109374,15.4557291 18.6927084,15.4479167 18.671875,15.4375 L15.484375,13.703125 C15.3385409,13.6197912 15.2187505,13.5078132 15.125,13.3671875 C15.0312495,13.2265618 14.9791667,13.0729175 14.96875,12.90625 C14.9479166,12.7395825 14.9713538,12.5781258 15.0390625,12.421875 C15.1067712,12.2656242 15.2083327,12.1354172 15.34375,12.03125 C15.7708355,11.6874983 16.0703116,11.2057323 16.2421875,10.5859375 C16.4140634,9.96614273 16.5,9.46354359 16.5,9.078125 L16.5,6.96875 C16.5,6.59374813 16.2187528,6.17187734 15.65625,5.703125 C15.0937472,5.23437266 14.4479203,5 13.71875,5 C13.3645816,5 13.0234391,5.05729109 12.6953125,5.171875 C12.3671859,5.28645891 12.072918,5.44270734 11.8125,5.640625 C11.6145823,5.57812469 11.4062511,5.54166672 11.1875,5.53125 C10.9687489,5.52083328 10.7552094,5.51041672 10.546875,5.5 C10.9114602,5.07291453 11.3802055,4.71354312 11.953125,4.421875 C12.5260445,4.13020688 13.1145803,3.984375 13.71875,3.984375 C14.1875023,3.984375 14.6484352,4.07551992 15.1015625,4.2578125 C15.5546898,4.44010508 15.9583316,4.67187359 16.3125,4.953125 C16.6666684,5.23437641 16.9531239,5.55208156 17.171875,5.90625 C17.3906261,6.26041844 17.5,6.61458156 17.5,6.96875 L17.5,9.078125 C17.5,9.5781275 17.3906261,10.2109337 17.171875,10.9765625 C16.9531239,11.7421913 16.5520863,12.3541644 15.96875,12.8125 L19.15625,14.5625 Z"/>
</svg>
