<svg xmlns="http://www.w3.org/2000/svg" width="24" height="24" viewBox="0 0 24 24">
  <g fill="#9AA5AB" transform="translate(0 2)">
    <path d="M18.0594375,4.24288667 L8.18901562,10.2950867 C7.63045312,10.6383667 7.366125,11.3163867 7.54607812,11.9434933 L8.61332812,15.6768267 C8.7045,15.99514 8.98903125,16.2067267 9.31640625,16.2067267 C9.33464063,16.2067267 9.3530625,16.2060733 9.37153125,16.20472 C9.7215,16.1794267 9.9984375,15.9199133 10.0449844,15.57402 L10.3224844,13.52694 C10.3598906,13.2515133 10.4932031,12.9953133 10.6975312,12.80594 L18.8427656,5.26815333 C19.0889062,5.04093333 19.1214375,4.66886 18.9186094,4.40272 C18.7154531,4.13634667 18.3463125,4.06746667 18.0594375,4.24288667 Z M10.04625,12.1089733 C9.68025,12.4481467 9.44179688,12.90646 9.37485938,13.39954 L9.24028125,14.3925133 L8.46557813,11.6824867 C8.402625,11.4629667 8.49534375,11.2255733 8.6908125,11.1054533 L15.9216563,6.67179333 L10.04625,12.1089733 Z"/>
    <path d="M23.6095312,0.297826667 C23.3011406,0.0376133333 22.8756094,-0.03402 22.4986875,0.110926667 L0.706875,8.48022 C0.275296875,8.64593333 -0.002203125,9.05048667 -9.74220365e-15,9.51085333 C0.00225,9.97164 0.283828125,10.3739533 0.7179375,10.5358867 L5.80809375,12.42724 L7.79367187,18.7844067 C7.90270312,19.1338933 8.17790625,19.4054467 8.52975,19.51082 C8.88140625,19.6161 9.2611875,19.5408267 9.5450625,19.3096867 L12.50475,16.9076133 C12.646875,16.7922533 12.8498437,16.78656 12.99825,16.8938467 L18.3365156,20.7522933 C18.5285625,20.8912667 18.7552031,20.9628067 18.9844687,20.9628067 C19.1187656,20.9628067 19.2539531,20.93826 19.3837031,20.8883267 C19.7346094,20.7532267 19.9897969,20.4537667 20.0662031,20.0873867 L23.9769375,1.35963333 C24.0590625,0.9653 23.9182969,0.55846 23.6095312,0.297826667 Z M23.04075,1.1662 L19.1300625,19.8939067 C19.1159062,19.9615733 19.0669687,19.9897133 19.0390312,20.0004933 C19.0109062,20.01132 18.9553594,20.0233133 18.8985469,19.9821533 L13.5600937,16.12352 C13.3214531,15.95104 13.0408594,15.8654067 12.7607812,15.8654067 C12.45525,15.8654067 12.1501406,15.9673733 11.9007656,16.1696267 L8.94042187,18.57226 C8.88773437,18.6151933 8.83303125,18.60754 8.8051875,18.5991867 C8.77715625,18.5907867 8.72714062,18.5669867 8.70679687,18.50184 L6.6515625,11.92156 C6.60764062,11.7809533 6.50076562,11.6684867 6.36220312,11.6169667 L1.05290625,9.64422667 C0.97340625,9.61459333 0.956484375,9.55285333 0.95625,9.50623333 C0.956015625,9.46003333 0.972328125,9.39857333 1.05107812,9.36833333 L22.8429375,0.999086667 C22.8430312,0.99904 22.8431719,0.998993333 22.8433125,0.998946667 C22.9140937,0.97174 22.9664531,1.00300667 22.9913906,1.02400667 C23.0164219,1.04524 23.0562656,1.09190667 23.04075,1.1662 Z"/>
  </g>
</svg>
