<?xml version="1.0" encoding="utf-8"?>
<!-- Generator: Adobe Illustrator 19.0.1, SVG Export Plug-In . SVG Version: 6.00 Build 0)  -->
<svg version="1.1" id="Capa_1" xmlns="http://www.w3.org/2000/svg" xmlns:xlink="http://www.w3.org/1999/xlink" x="0px" y="0px"
	 viewBox="56 -56 612 612" style="enable-background:new 56 -56 612 612;" xml:space="preserve">
<style type="text/css">
	.st0{fill:#959595;}
</style>
<path class="st0" d="M555-40.7H417.7c-3.1-8.9-11.5-15.3-21.4-15.3h-74.9c-9.9,0-18.2,6.4-21.4,15.3H162.8
	C128.2-40.7,100-12.1,100,23v58c0,12.7,10.2,23,22.7,23h42.7V533c0,12.7,10.2,23,22.7,23h341.6c12.5,0,22.7-10.3,22.7-23V104h42.7
	c12.5,0,22.7-10.3,22.7-23V23C617.9-12.1,589.7-40.7,555-40.7z M507,509.9H210.9V104H507V509.9z M572.4,57.9h-427V23
	c0-9.7,7.8-17.6,17.4-17.6H555c9.6,0,17.4,7.9,17.4,17.6V57.9L572.4,57.9z"/>
<path class="st0" d="M299.4,430.4c12.5,0,22.7-10.3,22.7-23V164.5c0-12.7-10.2-23-22.7-23c-12.5,0-22.7,10.3-22.7,23v242.8
	C276.7,420.1,286.9,430.4,299.4,430.4z"/>
<path class="st0" d="M418.4,430.4c12.5,0,22.7-10.3,22.7-23V164.5c0-12.7-10.2-23-22.7-23c-12.5,0-22.7,10.3-22.7,23v242.8
	C395.7,420.1,405.9,430.4,418.4,430.4z"/>
</svg>
