<svg xmlns="http://www.w3.org/2000/svg" width="168" height="168" viewBox="0 0 168 168">
  <path fill="#F35E5E" fill-opacity=".45" d="M134.171117,20.0714286 L103.996359,20.0714286 L103.996359,6.67428571 C103.996359,5.18285714 102.798544,4 101.345874,4 L67.6541262,4 C66.1759709,4 65.0036408,5.20857143 65.0036408,6.67428571 L65.0036408,20.0714286 L34.8288835,20.0714286 C33.3507282,20.0714286 32.1783981,21.28 32.1783981,22.7457143 L32.1783981,39.4342857 C32.1783981,40.9257143 33.3762136,42.1085714 34.8288835,42.1085714 L41.098301,42.1085714 L41.098301,110.174286 C41.098301,121.102857 49.9162621,130 60.7475728,130 L108.252427,130 C119.083738,130 127.901699,121.102857 127.901699,110.174286 L127.901699,42.1342857 L134.171117,42.1342857 C135.649272,42.1342857 136.821602,40.9257143 136.821602,39.46 L136.821602,22.7457143 C136.821602,21.28 135.623786,20.0714286 134.171117,20.0714286 L134.171117,20.0714286 Z M70.3300971,9.37428571 L98.6953883,9.37428571 L98.6953883,20.0971429 L70.3300971,20.0971429 L70.3300971,9.37428571 L70.3300971,9.37428571 Z M122.575243,110.174286 C122.575243,118.145714 116.152913,124.625714 108.252427,124.625714 L60.7475728,124.625714 C52.8470874,124.625714 46.4247573,118.145714 46.4247573,110.174286 L46.4247573,42.1342857 L122.575243,42.1342857 L122.575243,110.174286 Z M131.495146,36.76 L37.5048544,36.76 L37.5048544,25.4457143 L131.520631,25.4457143 L131.520631,36.76 L131.495146,36.76 Z M61.0788835,110.971429 C59.6262136,110.971429 58.4283981,109.762857 58.4283981,108.297143 L58.4283981,58.4885714 C58.4283981,57.0228571 59.6007282,55.8142857 61.0788835,55.8142857 C62.5315534,55.8142857 63.7293689,56.9971429 63.7293689,58.4885714 L63.7293689,108.297143 C63.7293689,109.762857 62.5570388,110.971429 61.0788835,110.971429 Z M84.5,110.971429 C83.0218447,110.971429 81.8495146,109.762857 81.8495146,108.297143 L81.8495146,58.4885714 C81.8495146,57.0228571 83.0473301,55.8142857 84.5,55.8142857 C85.9526699,55.8142857 87.1504854,56.9971429 87.1504854,58.4885714 L87.1504854,108.297143 C87.1504854,109.762857 85.9781553,110.971429 84.5,110.971429 Z M107.921117,110.971429 C106.442961,110.971429 105.245146,109.762857 105.270631,108.297143 L105.270631,58.4885714 C105.270631,57.0228571 106.442961,55.8142857 107.921117,55.8142857 C109.373786,55.8142857 110.571602,56.9971429 110.571602,58.4885714 L110.571602,108.297143 C110.571602,109.762857 109.399272,110.971429 107.921117,110.971429 Z M30.4972973,164.075694 L27.0162162,157.699074 L20.6216216,154.227778 L27.0162162,150.71875 L30.4972973,144.379861 L33.9783784,150.71875 L40.372973,154.227778 L33.9783784,157.699074 L30.4972973,164.075694 Z M6.43243243,88.4240741 L4.23783784,84.3868056 L0.189189189,82.1983796 L4.23783784,79.9722222 L6.43243243,75.9349537 L8.66486486,79.9722222 L12.7135135,82.1983796 L8.66486486,84.3868056 L6.43243243,88.4240741 Z M156.043243,84.8773148 L156.951351,86.5375 L158.616216,87.480787 L156.951351,88.3863426 L156.043243,90.0465278 L155.135135,88.3863426 L153.47027,87.480787 L155.135135,86.5375 L156.043243,84.8773148 Z M109.464865,158.227315 L110.827027,160.717593 L113.324324,162.075926 L110.827027,163.471991 L109.464865,165.924537 L108.102703,163.471991 L105.605405,162.075926 L108.102703,160.717593 L109.464865,158.227315 Z M164.102703,137.73912 L165.464865,140.191667 L167.962162,141.55 L165.464865,142.946065 L164.102703,145.398611 L162.740541,142.946065 L160.243243,141.55 L162.740541,140.191667 L164.102703,137.73912 Z M76.9243243,143.32338 L77.6810811,144.681713 L79.0054054,145.398611 L77.6810811,146.153241 L76.9243243,147.473843 L76.2054054,146.153241 L74.8432432,145.398611 L76.2054054,144.681713 L76.9243243,143.32338 Z"/>
</svg>
