<svg xmlns="http://www.w3.org/2000/svg" width="24" height="24" viewBox="0 0 24 24">
  <path fill="#9AA5AB" d="M23.8017187,2.49004717 C23.6179687,2.26981132 23.3375156,2.16183962 23.0625469,2.19014151 C23.1724687,1.96113208 23.2666406,1.72358491 23.3445469,1.47830189 C23.451375,1.14212264 23.3387812,0.768584906 23.0647031,0.549103774 C22.7905312,0.329198113 22.403625,0.302311321 22.1016562,0.482311321 C21.409875,0.895188679 20.6673281,1.20339623 19.8911719,1.4 C18.9051562,0.523820755 17.6077031,0.0260377358 16.2902344,0.0260377358 C13.2988594,0.0260377358 10.8651562,2.47495283 10.8651562,5.48504717 C10.8651562,5.51872642 10.8654375,5.55240566 10.8660469,5.58608491 C7.8285,5.17132075 5.00896875,3.58740566 3.06164062,1.18363208 C2.88515625,0.965801887 2.61379687,0.848773585 2.336625,0.871509434 C2.05884375,0.893396226 1.80923437,1.05108491 1.66875,1.29339623 C1.18790625,2.12372642 0.93375,3.0729717 0.93375,4.03863208 C0.93375,4.89023585 1.13146875,5.72448113 1.50304687,6.47589623 C1.44117187,6.49443396 1.38107812,6.52004717 1.32407812,6.5529717 C1.06734375,6.70099057 0.90375,6.97783019 0.897,7.27462264 C0.896390625,7.30061321 0.89634375,7.32660377 0.89634375,7.35287736 C0.89634375,8.90372642 1.56515625,10.3796226 2.69104687,11.4063208 C2.511,11.6290566 2.45329687,11.9325943 2.54076562,12.2070755 C3.00698437,13.6718396 4.07198437,14.8610849 5.43304687,15.4960377 C4.34746875,15.997783 3.15848437,16.259434 1.94179687,16.259434 C1.60964062,16.259434 1.27598437,16.2398113 0.95053125,16.2010377 C0.554953125,16.1536792 0.18478125,16.3842925 0.0504375,16.7618868 C-0.083765625,17.1392453 0.056625,17.5538208 0.39178125,17.7700472 C2.62640625,19.2118396 5.21020312,19.9739151 7.86384375,19.9739151 C13.078875,19.9739151 16.3446562,17.495283 18.1658906,15.4158491 C20.4317344,12.8292453 21.7312031,9.40424528 21.7312031,6.01910377 C21.7312031,5.95943396 21.7308281,5.89943396 21.7300781,5.83933962 C22.5539531,5.18235849 23.2688906,4.40160377 23.8575469,3.51551887 C24.0665625,3.2009434 24.0434531,2.77910377 23.8017187,2.49004717 Z M20.9592656,5.22301887 C20.8352812,5.3170283 20.7643594,5.46580189 20.7690937,5.62188679 C20.773125,5.75391509 20.7751406,5.88759434 20.7751406,6.01929245 C20.7751406,9.17339623 19.5626719,12.3665094 17.4486562,14.7798113 C15.7576406,16.7103774 12.7220625,19.0116981 7.86389062,19.0116981 C5.54475,19.0116981 3.28279687,18.3863679 1.293375,17.1992925 C1.5088125,17.2141981 1.72565625,17.2216981 1.94198437,17.2216981 C3.69773437,17.2216981 5.40314062,16.7317453 6.87384375,15.8048113 C7.038,15.7012736 7.12392187,15.5082547 7.09134375,15.3160849 C7.05867187,15.1238679 6.91401562,14.9705189 6.72496875,14.9276887 C5.24460937,14.5925943 4.02717187,13.5102358 3.50896875,12.0823113 C3.58870312,12.0944811 3.66890625,12.1046226 3.74873437,12.1126887 C3.97139062,12.1346698 4.18007812,11.9987264 4.25025,11.7846698 C4.32042187,11.570566 4.23346875,11.3361792 4.04109375,11.2207075 C2.72578125,10.4313679 1.89595312,9.00391509 1.85432812,7.47358491 C2.041125,7.56853774 2.235,7.65122642 2.4328125,7.72018868 C2.63657812,7.79117925 2.86232812,7.71622642 2.98396875,7.53707547 C3.10570312,7.3579717 3.0931875,7.11910377 2.95345312,6.95382075 C2.26771875,6.14264151 1.89009375,5.10740566 1.89009375,4.03877358 C1.89009375,3.295 2.07290625,2.56334906 2.4200625,1.91287736 C4.64639062,4.59410377 7.88920312,6.30259434 11.3421094,6.60764151 C11.4862969,6.62023585 11.6282812,6.56679245 11.7285469,6.46183962 C11.8288125,6.35688679 11.8764375,6.21183962 11.8581094,6.0675 C11.8337812,5.87575472 11.8214531,5.67981132 11.8214531,5.48523585 C11.8214531,3.00570755 13.8262031,0.988443396 16.2903281,0.988443396 C17.4493125,0.988443396 18.5896406,1.45608491 19.4188125,2.27136792 C19.534125,2.38471698 19.6984219,2.43212264 19.8558281,2.39707547 C20.7252656,2.20429245 21.5592656,1.88759434 22.3390312,1.45429245 C22.1492344,1.94325472 21.8771719,2.39089623 21.5279531,2.78830189 C21.3870469,2.94863208 21.3683437,3.18339623 21.4821094,3.36429245 C21.5958281,3.54518868 21.8147812,3.62877358 22.0189687,3.56919811 C22.3010625,3.48712264 22.5807656,3.39084906 22.8542344,3.28183962 C22.3195781,4.02212264 21.6834375,4.67396226 20.9592656,5.22301887 Z" transform="translate(0 2)"/>
</svg>
