<svg xmlns="http://www.w3.org/2000/svg" width="24" height="24" viewBox="0 0 24 24">
  <path fill="#FFF" d="M15.889521,7.56783511 L8.26943515,0.106327139 C8.11702201,-0.0354300751 7.88081199,-0.0354300751 7.73222078,0.106327139 L0.112170643,7.56783511 C-0.036420567,7.71333475 -0.036420567,7.94837261 0.108348705,8.09387225 C0.180751201,8.16476834 0.279800101,8.20579504 0.378849002,8.20579504 L4.95088623,8.20579504 L4.95088623,17.5327062 C4.95088623,17.7379097 5.12233762,17.9057939 5.33190124,17.9057939 L10.6659328,17.9057939 C10.8754964,17.9057939 11.0469478,17.7379097 11.0469478,17.5327062 L11.0469478,8.20579504 L15.618985,8.20579504 C15.8285486,8.20579504 16,8.03791085 16,7.8327074 C16,7.73201186 15.9618878,7.63873121 15.889521,7.56783511 Z M10.6659685,7.45965474 C10.4564049,7.45965474 10.2849535,7.62753893 10.2849535,7.83274238 L10.2849535,17.1596536 L5.71291624,17.1596536 L5.71291624,7.83274238 C5.71291624,7.62753893 5.54146485,7.45965474 5.33190124,7.45965474 L1.30090032,7.45965474 L7.99893486,0.893529119 L14.7007913,7.45965474 L10.6659685,7.45965474 Z" transform="translate(4 3)"/>
</svg>
