<svg xmlns="http://www.w3.org/2000/svg" width="24" height="24" viewBox="0 0 24 24">
  <path fill="#9AA5AB" fill-rule="evenodd" d="M12,5 C11.5729145,5 11.1510437,5.08072836 10.734375,5.2421875 C10.3177063,5.40364664 9.94271,5.60937375 9.609375,5.859375 C9.27604,6.10937625 9.00781352,6.38020687 8.8046875,6.671875 C8.60156148,6.96354313 8.5,7.23958203 8.5,7.5 L8.5,10 C8.5,10.4895858 8.62239461,11.1145795 8.8671875,11.875 C9.11198039,12.6354205 9.49478906,13.2239563 10.015625,13.640625 C10.1510423,13.7447922 10.2526038,13.8776034 10.3203125,14.0390625 C10.3880212,14.2005216 10.4114584,14.3697908 10.390625,14.546875 C10.3593748,14.7135425 10.2942713,14.8671868 10.1953125,15.0078125 C10.0963537,15.1484382 9.96875078,15.255208 9.8125,15.328125 L5.421875,17.40625 C5.35937469,17.4270834 5.27343805,17.4765621 5.1640625,17.5546875 C5.05468695,17.6328129 5,17.7760406 5,17.984375 L5,19 L18.984375,18.984375 L18.984375,18.015625 C18.984375,17.7447903 18.9192715,17.5755212 18.7890625,17.5078125 C18.6588535,17.4401038 18.5885417,17.40625 18.578125,17.40625 L14.21875,15.34375 C14.0624992,15.270833 13.9322922,15.1640632 13.828125,15.0234375 C13.7239578,14.8828118 13.6614584,14.7239592 13.640625,14.546875 C13.6197916,14.3697908 13.6432288,14.2005216 13.7109375,14.0390625 C13.7786462,13.8776034 13.8802077,13.7447922 14.015625,13.640625 C14.5572944,13.2239563 14.940103,12.6328163 15.1640625,11.8671875 C15.388022,11.1015587 15.5,10.4791691 15.5,10 L15.5,7.5 C15.5,7.22916531 15.3958344,6.94791813 15.1875,6.65625 C14.9791656,6.36458188 14.7109391,6.09635539 14.3828125,5.8515625 C14.0546859,5.60676961 13.6796896,5.40364664 13.2578125,5.2421875 C12.8359354,5.08072836 12.4166687,5 12,5 Z M12,4 C12.5520861,4 13.0963515,4.10416563 13.6328125,4.3125 C14.1692735,4.52083437 14.6484354,4.791665 15.0703125,5.125 C15.4921896,5.458335 15.8359362,5.83333125 16.1015625,6.25 C16.3671888,6.66666875 16.5,7.08333125 16.5,7.5 L16.5,10 C16.5,10.3020848 16.4687503,10.6510397 16.40625,11.046875 C16.3437497,11.4427103 16.2395841,11.8463521 16.09375,12.2578125 C15.9479159,12.6692729 15.7552095,13.0651023 15.515625,13.4453125 C15.2760405,13.8255227 14.9843767,14.1510403 14.640625,14.421875 L19,16.5 L19.4921875,16.7734375 C19.8203141,16.9557301 19.984375,17.1927069 19.984375,17.484375 L19.984375,19 C19.984375,19.2708347 19.8880218,19.5026032 19.6953125,19.6953125 C19.5026032,19.8880218 19.2708347,19.984375 19,19.984375 L5,19.984375 C4.71874859,19.984375 4.4817718,19.8880218 4.2890625,19.6953125 C4.0963532,19.5026032 4,19.2708347 4,19 L4,17.484375 C4,17.2135403 4.166665,16.9817718 4.5,16.7890625 L5,16.5 L9.390625,14.421875 C9.03645656,14.1406236 8.73958453,13.8020853 8.5,13.40625 C8.26041547,13.0104147 8.06510492,12.6067729 7.9140625,12.1953125 C7.76302008,11.7838521 7.65625031,11.3828145 7.59375,10.9921875 C7.53124969,10.6015605 7.5,10.2708347 7.5,10 L7.5,7.5 C7.5,7.08333125 7.63020703,6.66666875 7.890625,6.25 C8.15104297,5.83333125 8.49218539,5.458335 8.9140625,5.125 C9.33593961,4.791665 9.81770563,4.52083437 10.359375,4.3125 C10.9010444,4.10416563 11.4479139,4 12,4 Z"/>
</svg>
