<svg xmlns="http://www.w3.org/2000/svg" width="24" height="24" viewBox="0 0 24 24">
  <g fill="#9AA5AB">
    <path d="M20.322816,10.651875 C20.3532,7.16704688 17.326272,3.97401563 13.576032,3.53409375 L12.814608,3.44357813 C12.795024,3.44123438 12.7752,3.44010938 12.755472,3.44010938 C11.978256,3.44010938 11.43792,3.88382813 11.310048,4.62707813 C11.220432,5.14828125 11.3844,5.50054688 11.537856,5.70435938 C11.899008,6.1839375 12.477504,6.26128125 12.859776,6.31232813 L12.867408,6.3133125 C12.952704,6.32484375 13.0332,6.335625 13.089744,6.34809375 C16.064448,6.99717188 16.960896,7.90945313 17.449536,10.7848125 C17.458032,10.8351563 17.463264,10.918875 17.468352,10.9997813 C17.48136,11.2092188 17.503104,11.5597969 17.666016,11.8819219 C17.891712,12.3280313 18.316896,12.5737031 18.863184,12.5737031 C18.957312,12.5737031 19.05696,12.5660156 19.159104,12.5507813 C19.66704,12.4754063 20.040432,12.1940156 20.21064,11.7586406 C20.333136,11.4452813 20.324688,11.1264375 20.317872,10.9305469 L20.32272,10.6560938 C20.322768,10.6546875 20.322768,10.6532813 20.322816,10.651875 Z M19.338816,10.9510313 C19.356768,11.4627656 19.268784,11.5673906 19.011744,11.6055469 C18.95808,11.6134688 18.908064,11.6175469 18.862992,11.6175469 C18.607728,11.6175469 18.48336,11.5508438 18.445536,10.9418906 C18.43896,10.8365625 18.43224,10.7277188 18.415392,10.6283906 C18.125088,8.92040625 17.673792,7.85803125 16.906176,7.07601563 C16.140288,6.2956875 15.062784,5.79890625 13.30392,5.41514063 C13.207824,5.39404688 13.107408,5.38054688 13.001136,5.36620313 L12.992976,5.36517188 C12.734832,5.33067188 12.442224,5.29153125 12.32664,5.13796875 C12.304128,5.10815625 12.235776,5.0173125 12.275568,4.78560938 C12.33192,4.45809375 12.523632,4.40095313 12.728064,4.39664063 L13.458432,4.48340625 C16.729056,4.86707813 19.368624,7.62928125 19.343664,10.6415625 L19.338624,10.926375 C19.338432,10.9345313 19.338528,10.942875 19.338816,10.9510313 Z"/>
    <path d="M23.970816 10.8244687L23.97048 10.8169687C23.967072 10.7421094 23.963808 10.6714219 23.964576 10.6168594 23.997552 8.00765625 22.883856 5.35246875 20.909088 3.33220312 18.934176 1.31184375 16.270464.102609375 13.59648.01453125L13.005264.000140625C13.001232.000046875 12.997152 0 12.993072 0 12.105696 0 11.523072.53334375 11.472528 1.39204687 11.440752 1.9344375 11.681616 2.3596875 12.150768 2.58951562 12.481152 2.751375 12.849408 2.777625 13.069968 2.79332812 13.149312 2.79890625 13.23144 2.80471875 13.286352 2.81292187 18.27216 3.56170312 20.4624 5.765625 21.097824 10.6733906 21.105744 10.7344687 21.107328 10.8315469 21.108816 10.9257656 21.11256 11.1514687 21.1188 11.5292344 21.277632 11.8775156 21.496944 12.3582187 21.938256 12.6290625 22.524 12.6400312L22.552272 12.6403594C22.554192 12.6404062 22.55616 12.6404062 22.558032 12.6404062 22.976784 12.6404062 23.3328 12.5027344 23.58768 12.2422969 24.01608 11.8047187 23.988816 11.2147031 23.970816 10.8244687zM22.87992 11.5816875C22.8552 11.6070469 22.78008 11.6836406 22.560672 11.6842969L22.539216 11.6840625C22.229808 11.67825 22.098768 11.5694063 22.087824 10.9103437 22.085856 10.7906719 22.08384 10.6669687 22.0692 10.553625 21.717408 7.83684375 20.906832 5.92082812 19.518384 4.52390625 18.129552 3.1265625 16.196544 2.282625 13.434864 1.86782813 13.340928 1.85376563 13.238976 1.84659375 13.140576 1.83965625 12.464304 1.79146875 12.437568 1.65895313 12.45 1.44675 12.473856 1.042125 12.68184.9571875 12.98736.956203125L13.567824.970359375C18.647472 1.13779688 23.048256 5.64004688 22.98552 10.6046719 22.984464 10.6864688 22.988256 10.7705625 22.992336 10.859625L22.992672 10.8673594C23.005104 11.1355312 23.019168 11.4394219 22.87992 11.5816875zM21.63072 16.8229219C21.52896 16.7470313 21.413616 16.6609688 21.309984 16.5795 21.303696 16.5744844 21.297216 16.5697031 21.290592 16.5649688L19.179504 15.0677813C19.17744 15.0662813 19.175328 15.0648281 19.173264 15.063375 18.342672 14.4936563 17.580528 14.2166719 16.843104 14.2166719 15.815664 14.2166719 14.934672 14.7489844 14.224608 15.7988906 13.996368 16.1365781 13.793424 16.1820938 13.624992 16.1820938 13.457232 16.1820938 13.246512 16.128 13.015488 16.025625 10.721952 15.0099375 9.086256 13.4573906 8.153952 11.4110156 7.726416 10.4728125 7.955856 10.0815469 8.49648 9.72295313 9.011664 9.38146875 10.0836 8.6709375 10.005936 7.27964063 9.949296 6.26146875 8.65488 4.46442188 8.259504 3.93792188 7.86384 3.411 6.497376 1.6648125 5.525088 1.31573438 4.904448 1.09284375 4.25472 1.08989063 3.594096 1.30696875 2.06904 1.80764063.968832 2.69896875.412224 3.88467188-.12744 5.034375-.108624 6.37120313.4668 7.75059375 2.004144 11.4363281 4.16688 14.6508281 6.894864 17.3048438 10.09464 20.4180938 13.291392 22.4886563 16.667808 23.6348438 17.00232 23.7484219 17.674608 23.9468906 18.054672 23.9958281 18.075936 23.9985938 18.09744 23.9999531 18.118896 23.9999531 19.075584 23.9999531 20.130768 23.6073281 21.089952 22.8943594 22.03944 22.1886563 22.752288 21.2759531 23.097312 20.3243438 23.784192 18.4302656 22.488336 17.4630469 21.63072 16.8229219zM22.174416 20.0053125C21.602064 21.58425 19.692432 23.023125 18.152064 23.0436094 17.864928 23.0002969 17.301024 22.8375937 16.989408 22.7317969 13.755072 21.6337969 10.679184 19.6370625 7.586016 16.6275469 4.951392 14.0642812 2.86128 10.9563281 1.373664 7.38989062.902736 6.26114062.878064 5.18676562 1.302336 4.2830625 1.74336 3.34340625 2.643744 2.62767187 3.906192 2.21320312 4.128192 2.1403125 4.346976 2.10375 4.561008 2.10375 4.774944 2.10375 4.984128 2.14021875 5.187216 2.21310937 5.5584 2.34632812 6.431088 3.11985937 7.469904 4.50323437 8.509488 5.88764062 9.006432 6.93975 9.028224 7.3314375 9.072096 8.1174375 8.517936 8.55295312 7.946448 8.93179687 6.916176 9.61528125 6.691392 10.5533437 7.259328 11.7996562 8.292 14.06625 10.092624 15.7810781 12.610944 16.8962812 12.973056 17.056875 13.31424 17.13825 13.624992 17.13825 14.200656 17.13825 14.677344 16.8648281 15.041664 16.3257656 15.5664 15.5499844 16.155648 15.172875 16.843152 15.172875 17.37144 15.172875 17.948592 15.3922969 18.60744 15.84375L20.705568 17.33175C20.816208 17.4185156 20.933088 17.5056562 21.036384 17.5827656 21.99504 18.2982656 22.59216 18.8534531 22.174416 20.0053125z"/>
  </g>
</svg>
