<svg xmlns="http://www.w3.org/2000/svg" width="24" height="24" viewBox="0 0 24 24">
  <path fill="#9AA5AB" d="M22.9335937,10.7184467 C22.4115469,10.0955867 21.8217656,9.53946 21.2513437,9.00162667 C21.0509062,8.81258 20.8435312,8.61709333 20.6438437,8.42300667 C20.6437969,8.42296 20.64375,8.42291333 20.6437031,8.42286667 C20.3751094,8.16204667 20.243625,7.97692 20.2298906,7.84018667 C20.2163906,7.70578667 20.3086406,7.50638 20.5208437,7.21163333 C20.8381406,6.7683 21.1763437,6.32422 21.5035312,5.89479333 C21.7943437,5.51306 22.095,5.11830667 22.3831875,4.72131333 L22.447875,4.63218 C23.0101406,3.85742 23.5914844,3.05629333 23.9030156,2.08002667 C23.9919844,1.80012 24.084375,1.38590667 23.8615312,1.02228 C23.6385937,0.65856 23.2252969,0.55076 22.9340156,0.501386667 C22.79175,0.47712 22.65675,0.475113333 22.531125,0.475113333 L18.8839687,0.471893333 C18.2534062,0.46144 17.8159687,0.758986667 17.5775625,1.35650667 C17.3867812,1.83372 17.1614531,2.38676667 16.9004062,2.91139333 C16.4009531,3.9242 15.7663125,5.09072667 14.8464375,6.06265333 L14.8055625,6.10596 C14.7429375,6.17250667 14.6406094,6.28133333 14.5880625,6.3063 C14.4884062,6.24395333 14.3734219,5.88737333 14.3786719,5.70056667 C14.3788125,5.69594667 14.3788594,5.69137333 14.3788594,5.6868 L14.375625,1.49132667 C14.375625,1.47 14.374125,1.44867333 14.3712656,1.42753333 C14.2894687,0.828986667 14.13,0.228946667 13.1784375,0.042 C13.1479219,0.03598 13.1168906,0.0329933333 13.0858594,0.0329933333 L9.29203125,0.0329933333 C8.57826562,0.0329933333 8.20073437,0.3584 7.8980625,0.7112 C7.81045312,0.814053333 7.57767187,1.08714667 7.69626562,1.421 C7.81626562,1.75882 8.17382812,1.82625333 8.29120312,1.84837333 C8.70464062,1.92649333 8.9184375,2.15912667 8.984625,2.60386 C9.11545312,3.46798667 9.13148437,4.39240667 9.03515625,5.51161333 C9.00829687,5.8121 8.95832812,6.04048667 8.87770312,6.23042 C8.85539062,6.28301333 8.83579687,6.31558667 8.82210937,6.33476667 C8.80026562,6.32599333 8.76628125,6.30919333 8.71921875,6.27713333 C8.4286875,6.07922 8.20973437,5.77154667 7.998,5.47409333 C7.15228125,4.28535333 6.44090625,2.97243333 5.82295312,1.45973333 C5.56846875,0.83986 5.0900625,0.49364 4.47675,0.48468 C3.30825,0.465313333 2.22754687,0.46578 1.17398437,0.486173333 C0.6770625,0.49476 0.32859375,0.650486667 0.13809375,0.949106667 C-0.052640625,1.24828667 -0.04565625,1.62974 0.15890625,2.08306 C1.62121875,5.32032667 2.949,7.67531333 4.464,9.71903333 C5.53073437,11.15786 6.60454687,12.15662 7.8433125,12.86222 C9.14484375,13.60352 10.6126875,13.96682 12.3155625,13.9667733 C12.5092031,13.9667733 12.7062187,13.96206 12.9058594,13.9525867 C13.9564687,13.90494 14.3839219,13.4889067 14.4305625,12.47022 C14.4567187,11.9318267 14.5169062,11.49568 14.7257344,11.1167467 C14.7841406,11.0106733 14.8500469,10.9395533 14.9019844,10.9265333 C14.9572031,10.9128133 15.055125,10.94646 15.1640156,11.01688 C15.3630937,11.1455867 15.5345156,11.32012 15.6754687,11.4733267 C15.8183437,11.6290533 15.9627187,11.7899133 16.1024531,11.9454533 C16.3997812,12.2766467 16.7072344,12.6191333 17.0293594,12.9458 C17.7579375,13.6851867 18.5978437,14.0242667 19.5267656,13.95324 L22.8645,13.95478 L22.8646875,13.95478 C22.8752812,13.95478 22.885875,13.9544533 22.8964687,13.9537533 C23.2814531,13.9282267 23.6143125,13.7160333 23.8097812,13.3714467 C24.0451406,12.9564867 24.0415781,12.43088 23.8000781,11.9649133 C23.5480781,11.4804667 23.221125,11.0635 22.9335937,10.7184467 Z M22.9772344,12.9034267 C22.9312031,12.98458 22.8744375,12.9993733 22.8451406,13.00292 L19.5081094,13.00138 L19.5077813,13.00138 C19.4946094,13.00138 19.4814375,13.0018933 19.4683594,13.0030133 C18.8109375,13.05752 18.2521406,12.8274533 17.7117656,12.27912 C17.40525,11.9682267 17.1053438,11.6342333 16.8153281,11.3112067 C16.674,11.1538 16.5278906,10.99098 16.3810781,10.8310067 C16.1990156,10.6330467 15.9739688,10.4055467 15.6847969,10.2186 C15.2518594,9.93883333 14.8930781,9.94728 14.6684063,10.0036533 C14.4460781,10.05942 14.1300469,10.2185533 13.8874688,10.6592733 C13.5732188,11.2294933 13.5038906,11.8446533 13.4756719,12.4257933 C13.4593594,12.7812067 13.3989844,12.8751 13.3737656,12.8989467 C13.3407188,12.9302133 13.2302813,12.9851867 12.8617969,13.00194 C11.0910469,13.08482 9.60501563,12.76912 8.31815625,12.0361267 C7.1986875,11.3984733 6.2184375,10.4825467 5.23335938,9.1539 C3.7603125,7.16688 2.46421875,4.86584 1.03101563,1.69297333 C0.979078125,1.57803333 0.963046875,1.50630667 0.95840625,1.4679 C0.99496875,1.45595333 1.06640625,1.44022667 1.19165625,1.43794 C2.23453125,1.41782667 3.3039375,1.41726667 4.46189063,1.43649333 C4.62042188,1.43882667 4.8009375,1.48619333 4.937625,1.81916 C5.58328125,3.39971333 6.32910938,4.77521333 7.21785938,6.02438667 C7.45382813,6.35595333 7.74754688,6.76867333 8.17921875,7.06272 C8.57460938,7.33226667 8.89546875,7.31938667 9.0950625,7.26114667 C9.29475,7.20286 9.571875,7.04092667 9.75853125,6.60095333 C9.87895313,6.31736 9.95175,5.99802 9.98779688,5.59454 C10.0907813,4.3974 10.0725,3.40209333 9.930375,2.4633 C9.83020313,1.79069333 9.48135938,1.3048 8.93184375,1.05667333 C9.0294375,1.00608667 9.13940625,0.984993333 9.292125,0.984993333 L13.0363594,0.984993333 C13.2470156,1.03203333 13.2887344,1.08728667 13.3030313,1.10618667 C13.3636875,1.1865 13.398375,1.37648 13.4195625,1.52492667 L13.42275,5.68171333 C13.4143125,6.0802 13.6088438,6.96397333 14.2711875,7.20631333 C14.276625,7.20832 14.2821094,7.21018667 14.2875938,7.21196 C14.8905938,7.40814667 15.2894531,6.98436667 15.5035781,6.75668 L15.5417344,6.71626667 C16.5493594,5.65156667 17.227875,4.40752667 17.7579844,3.33256 C18.0342656,2.77746 18.2682656,2.20327333 18.466125,1.70832667 C18.565125,1.46010667 18.6552188,1.41922667 18.8701875,1.42375333 C18.8731406,1.42384667 18.8760469,1.42384667 18.8790469,1.42384667 L22.5308438,1.42706667 C22.6157813,1.42706667 22.7044219,1.42804667 22.7731875,1.43976 C22.9471875,1.46925333 23.0188594,1.50518667 23.0424844,1.52007333 C23.0449219,1.54765333 23.0443594,1.62698667 22.9917656,1.79256 C22.726875,2.62271333 22.2149531,3.32803333 21.6730313,4.07479333 L21.6082969,4.16406667 C21.3267188,4.55196 21.0293906,4.94223333 20.7419063,5.31972 C20.4105,5.7547 20.0679375,6.20442667 19.7431406,6.65830667 C19.0487344,7.62286 19.1097656,8.26294 19.9763438,9.10443333 C20.1811406,9.30346667 20.3910469,9.50142667 20.5941094,9.69285333 C21.1697813,10.2357267 21.7135781,10.7484533 22.198875,11.3274 C22.4529375,11.63232 22.7409375,11.9985133 22.9508438,12.4020867 C23.0603438,12.6133467 23.0334844,12.8042133 22.9772344,12.9034267 Z" transform="translate(0 5)"/>
</svg>
