<?xml version="1.0" encoding="utf-8"?>
<!-- Generator: Adobe Illustrator 19.0.1, SVG Export Plug-In . SVG Version: 6.00 Build 0)  -->
<svg version="1.1" id="Capa_1" xmlns="http://www.w3.org/2000/svg" xmlns:xlink="http://www.w3.org/1999/xlink" x="0px" y="0px"
	 viewBox="56 -56 612 612" style="enable-background:new 56 -56 612 612;" xml:space="preserve">
<style type="text/css">
	.st0{fill:#D8E2E9;}
</style>
<path class="st0" d="M587.6-56H136.4C92-56,56-20,56,24.4v451.2C56,520,92,556,136.4,556h451.2c44.4,0,80.4-36,80.4-80.4V24.4
	C668-20,632-56,587.6-56z M512.3,277.1c3.5,3.5,7.2,6.9,10.8,10.3c10,9.4,20.3,19.2,29.4,30.1c4.9,5.9,10.6,13.1,14.9,21.5
	c3.8,7.5,3.9,15.8,0.2,22.4c-3,5.3-8.1,8.5-13.9,8.9c-0.1,0-0.3,0-0.4,0h-58.9c-15.8,1.2-29.5-4.4-42-17.1
	c-5.7-5.8-11.1-11.9-16.4-17.8c-2.4-2.7-4.9-5.5-7.4-8.2c-2.6-2.8-5.8-6.1-9.5-8.5c-2.1-1.3-4-2.1-5.6-2.1c-0.8,0-3.3,0-5.9,4.8
	c-4.2,7.6-5.1,16.6-5.5,25.1c-0.8,16.7-7.2,22.9-24.3,23.7c-3.5,0.2-6.9,0.2-10.3,0.2c-29.5,0-54.8-6.3-77.4-19.2
	c-21.5-12.2-40.1-29.7-58.7-54.9c-26.5-36-49.8-77.5-75.5-134.6c-3.2-7.1-3.4-13-0.6-17.5c2.8-4.5,8.2-6.8,16-6.9
	c9.1-0.2,18.4-0.3,28.5-0.3c9.2,0,18.9,0.1,29.5,0.2c9.7,0.2,17.3,5.7,21.3,15.6c10.9,26.9,23.5,50.3,38.6,71.5
	c4.4,6.3,8.2,11.3,13.4,14.9c2.2,1.5,3.4,1.7,3.8,1.7c1.3,0,2.6-2.8,2.9-3.7c1.6-3.7,2.5-8,3-13.5c1.7-20,1.4-36.6-0.9-52.1
	c-1.3-8.9-6-14-14.4-15.6c-1.7-0.3-6.9-1.3-8.4-5.8c-1.6-4.5,1.6-8.2,3.1-9.9c5.6-6.6,11.6-11,22.5-11h66.8c0.4,0,0.7,0,1.1,0.1
	c13.7,2.7,17.3,10.2,18.9,22.2c0,0.3,0.1,0.5,0.1,0.8l0,74.2v0.2c-0.1,3.8,2.2,12.1,5.6,13.4c0.3,0.1,0.6,0.2,0.8,0.2
	c1.6,0,3.8-2.4,5.7-4.4l0.7-0.7c16.4-17.4,27.7-38.3,36.7-56.4c4.5-9.1,8.4-18.7,12-27.7c3.7-9.4,10.3-14,20-14h0.5l64.2,0
	c2.1,0,4.4,0.1,6.6,0.4c4.6,0.8,11.1,2.5,14.5,8c3.4,5.5,1.9,12.1,0.5,16.5c-5.4,16.9-15.5,30.9-25.3,44.5l-1,1.5
	c-5.1,7.1-10.5,14.1-15.7,21c-5.7,7.5-11.6,15.3-17.2,23.1C501.8,263.4,502.2,267.2,512.3,277.1z"/>
</svg>
